<?xml version="1.0" encoding="UTF-8" standalone="no"?>
<!-- Created with Inkscape (http://www.inkscape.org/) -->

<svg
   width="512"
   height="512"
   viewBox="0 0 135.46667 135.46667"
   version="1.1"
   id="svg1"
   sodipodi:docname="gamepadla-plus-loading.svg"
   inkscape:version="1.3.2 (091e20e, 2023-11-25, custom)"
   xml:space="preserve"
   inkscape:export-filename="gamepadla-plus-icon-export.png"
   inkscape:export-xdpi="96"
   inkscape:export-ydpi="96"
   xmlns:inkscape="http://www.inkscape.org/namespaces/inkscape"
   xmlns:sodipodi="http://sodipodi.sourceforge.net/DTD/sodipodi-0.dtd"
   xmlns="http://www.w3.org/2000/svg"
   xmlns:svg="http://www.w3.org/2000/svg"
   xmlns:rdf="http://www.w3.org/1999/02/22-rdf-syntax-ns#"
   xmlns:cc="http://creativecommons.org/ns#"
   xmlns:dc="http://purl.org/dc/elements/1.1/"><title
     id="title1">Gamepadla+ Icon with Loading Screen</title><sodipodi:namedview
     id="namedview1"
     pagecolor="#505050"
     bordercolor="#ffffff"
     borderopacity="1"
     inkscape:showpageshadow="0"
     inkscape:pageopacity="0"
     inkscape:pagecheckerboard="1"
     inkscape:deskcolor="#505050"
     inkscape:document-units="mm"
     inkscape:zoom="2.2910156"
     inkscape:cx="137.27536"
     inkscape:cy="311.87042"
     inkscape:window-width="3440"
     inkscape:window-height="1369"
     inkscape:window-x="-8"
     inkscape:window-y="352"
     inkscape:window-maximized="1"
     inkscape:current-layer="layer5" /><defs
     id="defs1" /><g
     inkscape:label="Base Controller"
     inkscape:groupmode="layer"
     id="layer1"><g
       inkscape:groupmode="layer"
       id="layer5"
       inkscape:label="Background"><rect
         style="fill:#d5fff6;stroke-width:0.232152"
         id="rect1"
         width="135.12024"
         height="95.392555"
         x="0.1154876"
         y="21.365158"
         ry="21.754406" /></g><path
       style="fill:none;stroke:#000000;stroke-width:0.160909px;stroke-linecap:butt;stroke-linejoin:miter;stroke-opacity:1"
       d="m 36.475723,76.418439 c 0,0 -2.262849,-0.348796 -5.020696,-3.766984 C 28.69718,69.233267 30.606458,60.094846 30.606458,60.094846 l 4.313556,-14.440101 2.687134,-7.115412 2.227491,-2.302044 c 0,0 0.353569,-0.941746 0.848568,-1.778853 0.494998,-0.837108 6.222834,-2.720599 6.222834,-2.720599 0,0 2.616419,-0.662709 3.641772,-0.558071 1.025353,0.104638 2.581062,1.185902 2.581062,1.185902 0,0 -0.07071,0.174397 1.202138,0.139517 1.272853,-0.03488 17.39565,0.03488 17.39565,0.03488 0,0 0.636426,-0.104639 1.626423,-0.662711 0.989995,-0.558071 0.919283,-0.523191 2.015349,-0.662709 1.096067,-0.139517 6.823901,1.499818 7.955327,2.232287 1.131426,0.732469 1.661778,0.941745 1.873925,1.534695 0.212141,0.592952 0.530352,1.39518 0.530352,1.39518 l 1.091962,0.796061 c 0.707576,0.578682 0.330375,0.108707 1.064816,1.366465 1.62605,2.784675 3.818553,9.556975 4.561052,12.207815 0.742499,2.65084 1.979989,6.417822 2.510347,9.103542 0.530358,2.685719 0.813215,6.069027 0.565713,7.987398 -0.247495,1.918371 -0.707138,3.487947 -1.202141,4.464567 -0.494998,0.97663 -1.520347,2.057891 -2.474987,2.685718 -0.954639,0.627832 -2.227496,1.220782 -2.899274,1.430063 -0.671783,0.209276 -2.722491,-1.709099 -3.288204,-2.162528 -0.565706,-0.453434 -4.030697,-5.022641 -4.030697,-5.022641 0,0 -3.005345,-3.732102 -4.136771,-4.255295 C 76.358431,64.45478 77.100928,64.524539 75.89879,64.175744 74.696651,63.826949 50.759956,63.86183 50.759956,63.86183 c 0,0 -1.732494,0.313914 -2.36892,0.871985 -0.636427,0.558072 -2.969989,2.441563 -3.747843,3.522828 -0.777855,1.081263 -2.298206,3.104272 -3.323559,4.255288 -1.025353,1.151034 -2.156779,2.476442 -2.934633,3.03452 -0.777853,0.558066 -0.848567,0.871985 -1.343567,0.906863 -0.494997,0.03485 -0.565711,-0.03485 -0.565711,-0.03485 z"
       id="path1"
       sodipodi:nodetypes="csccccscscscssssccsssssssscsscssssccc" /><path
       style="fill:#f4e3d7;stroke-width:0.0351174"
       d="m 36.520528,76.324336 c -0.780727,-0.157105 -1.913545,-0.779779 -2.891045,-1.589113 -0.779415,-0.645326 -1.869412,-1.798933 -2.309503,-2.444277 -0.607609,-0.890994 -0.994644,-2.204453 -1.178503,-3.999424 -0.08599,-0.83955 -0.08596,-2.916905 7.2e-5,-3.976259 0.108457,-1.335531 0.337814,-3.09213 0.516506,-3.955817 0.03606,-0.174306 1.037452,-3.565941 2.225308,-7.536969 l 2.159738,-7.22005 1.324322,-3.502159 c 1.235973,-3.268524 1.333634,-3.511682 1.46392,-3.644905 0.07678,-0.07851 0.578612,-0.59787 1.115183,-1.15413 0.957028,-0.992148 0.977732,-1.016694 1.088476,-1.29054 0.163166,-0.403479 0.490116,-1.080968 0.660787,-1.369251 0.128394,-0.216871 0.18479,-0.273313 0.438626,-0.438979 0.73362,-0.4788 2.376704,-1.173905 4.718291,-1.99607 1.055547,-0.370619 1.444128,-0.478242 2.432259,-0.673654 1.311072,-0.259277 2.116186,-0.316181 2.604323,-0.184071 0.525915,0.142333 1.245298,0.494981 1.985236,0.973178 0.279201,0.180437 0.38592,0.229533 0.548034,0.252116 0.110724,0.01542 3.335714,0.02941 7.166647,0.03108 3.830933,0.0017 7.896104,0.01346 9.033715,0.0262 2.028444,0.02271 2.073581,0.02175 2.337276,-0.04995 0.388122,-0.105535 0.961163,-0.355525 1.513146,-0.660111 0.264446,-0.145923 0.579395,-0.309426 0.699885,-0.363338 0.417513,-0.186819 1.326757,-0.285836 1.888659,-0.205678 1.445204,0.20617 4.488778,1.045502 6.165572,1.700293 0.659364,0.25748 0.807913,0.334198 1.566692,0.809096 1.031875,0.645825 1.153458,0.75929 1.342674,1.253027 0.05652,0.147491 0.194146,0.505942 0.305832,0.79656 l 0.203062,0.528398 0.51848,0.377989 c 0.285164,0.207892 0.647817,0.47781 0.805896,0.599817 l 0.287418,0.221829 0.409415,0.720398 c 1.036426,1.823646 1.980969,4.116469 3.278312,7.957887 0.654596,1.938243 0.862279,2.60151 1.518081,4.848246 0.288379,0.98796 0.692161,2.361339 0.897285,3.051953 1.1776,3.964715 1.581063,5.689133 1.876968,8.022279 0.206195,1.625804 0.282397,2.886853 0.255865,4.234332 -0.02357,1.197454 -0.117214,1.962636 -0.384059,3.138385 -0.497311,2.191264 -1.043767,3.250502 -2.297288,4.452976 -0.703592,0.674941 -1.391406,1.128038 -2.593713,1.708604 -0.841258,0.406217 -1.325534,0.587658 -1.479909,0.55446 -0.315517,-0.06784 -0.900022,-0.418037 -1.548893,-0.927992 -0.645825,-0.507562 -1.573448,-1.314088 -1.786728,-1.553493 -0.483706,-0.542941 -1.55396,-1.886621 -2.980497,-3.741953 -1.239204,-1.611683 -2.322172,-2.874776 -3.376204,-3.937745 -0.762794,-0.76927 -1.169022,-1.104236 -1.610355,-1.327872 -0.188901,-0.09572 -0.436988,-0.242951 -0.551305,-0.327172 -0.114312,-0.08422 -0.255574,-0.177114 -0.313914,-0.206428 -0.215486,-0.108281 -0.680389,-0.236856 -0.972317,-0.268914 -1.354362,-0.148723 -8.15018,-0.242337 -18.491717,-0.254724 l -6.488012,-0.0078 -0.388927,0.09943 c -1.199277,0.306618 -1.542839,0.480106 -2.415643,1.219835 -1.132186,0.959562 -1.592136,1.374204 -2.306434,2.079229 -0.549038,0.541908 -0.770604,0.79011 -1.076209,1.205591 -1.614041,2.194341 -2.433083,3.219418 -3.817873,4.778278 -0.968564,1.090322 -1.773895,1.901915 -2.289926,2.307752 -0.228283,0.179538 -0.521337,0.421438 -0.651236,0.537565 -0.129897,0.116132 -0.285201,0.237061 -0.345118,0.268737 -0.149777,0.07917 -0.547429,0.105441 -0.806633,0.05328 z M 55.292883,59.257614 c 0.127658,-0.07223 0.214284,-0.154911 0.282855,-0.26999 l 0.09884,-0.165879 0.01035,-1.403898 0.01035,-1.403898 h 1.363234 c 1.535698,0 1.532191,4.8e-4 1.704129,-0.255781 l 0.09408,-0.140239 v -1.156117 -1.156118 l -0.09408,-0.140238 c -0.171957,-0.256335 -0.16826,-0.25578 -1.705636,-0.25578 h -1.364741 v -1.299491 c 0,-0.741538 -0.01482,-1.350505 -0.03454,-1.418303 -0.05563,-0.191343 -0.203306,-0.370211 -0.387156,-0.468923 l -0.171263,-0.09195 -1.197354,3.19e-4 -1.197353,3.2e-4 -0.184014,0.104109 c -0.12766,0.07223 -0.214285,0.154913 -0.282858,0.26999 l -0.09884,0.165879 -0.01038,1.369019 -0.01038,1.36902 H 50.68421 c -1.614414,0 -1.602028,-0.0018 -1.774811,0.25578 l -0.09408,0.140238 v 1.156118 1.156117 l 0.09408,0.140239 c 0.1728,0.257591 0.16022,0.25578 1.77635,0.25578 h 1.435454 v 1.334369 c 0,0.760314 0.01479,1.385265 0.03439,1.452672 0.05615,0.193147 0.184169,0.35106 0.372212,0.459132 l 0.176786,0.101602 h 1.202138 1.202138 z M 72.488225,58.38658 c 0.961357,-0.182211 1.790747,-0.621055 2.507665,-1.326854 1.58306,-1.558508 1.904113,-4.002726 0.780282,-5.9404 -0.706681,-1.218434 -1.988948,-2.102442 -3.392795,-2.339022 -0.433091,-0.07298 -1.197631,-0.07308 -1.631641,-1.59e-4 -0.652447,0.109559 -1.307399,0.372598 -1.919967,0.77109 -0.36368,0.236585 -1.026109,0.901626 -1.289594,1.294675 -0.382517,0.570617 -0.602735,1.0938 -0.751235,1.784772 -0.104794,0.487601 -0.112554,1.355826 -0.01652,1.848611 0.418535,2.147675 2.136999,3.73438 4.307513,3.977239 0.350997,0.03927 1.000617,0.007 1.406293,-0.06991 z m 8.194698,-7.991099 c 1.00478,-0.263635 1.703879,-1.152042 1.703879,-2.165267 0,-0.412139 -0.04791,-0.615434 -0.236365,-1.002803 -0.288078,-0.592179 -0.852341,-1.039168 -1.531486,-1.213195 -0.304056,-0.07791 -0.861894,-0.07578 -1.165512,0.0045 -0.426627,0.112747 -0.733555,0.289101 -1.066349,0.612693 -0.252397,0.245417 -0.329406,0.347532 -0.447186,0.59295 -0.183113,0.381571 -0.236219,0.606402 -0.234798,0.994065 0.0015,0.394055 0.05467,0.618959 0.235241,0.994065 0.114673,0.238216 0.199074,0.352095 0.429502,0.579511 0.237621,0.23451 0.344374,0.31037 0.622681,0.44247 0.293487,0.139307 0.429668,0.17899 0.848568,0.247276 0.158946,0.02591 0.578058,-0.01702 0.841825,-0.08623 z m -33.847597,-1.96154 c 0.955506,-0.239481 1.681824,-0.653263 2.360079,-1.344534 0.688153,-0.70136 1.131151,-1.546412 1.318913,-2.515925 0.07928,-0.409393 0.08967,-1.323441 0.01942,-1.709093 -0.375242,-2.059896 -1.913123,-3.610098 -3.963585,-3.995338 -0.442859,-0.0832 -1.238065,-0.08465 -1.688595,-0.0031 -2.258924,0.409039 -3.911978,2.292304 -4.028514,4.589541 -0.119374,2.353185 1.506764,4.481852 3.807832,4.984572 0.184739,0.04036 0.375667,0.08031 0.424282,0.08879 0.04862,0.0085 0.38274,0.01052 0.742497,0.0045 0.560623,-0.0093 0.704638,-0.02353 1.007675,-0.09948 z m 38.26662,-2.24087 c 0.851187,-0.170611 1.543512,-0.80217 1.796538,-1.638852 0.100701,-0.333001 0.08507,-0.899181 -0.03483,-1.26132 -0.224263,-0.677352 -0.771251,-1.219888 -1.477351,-1.465341 -0.349013,-0.121323 -0.895532,-0.148403 -1.282222,-0.06354 -1.066912,0.234159 -1.82457,1.147912 -1.822824,2.198367 9.8e-4,0.592161 0.199124,1.100793 0.59204,1.51977 0.57932,0.617756 1.395119,0.877984 2.228651,0.710911 z m -9.026371,-0.224556 c 0.392817,-0.120278 0.67756,-0.294822 0.989997,-0.606855 0.449936,-0.449351 0.652511,-0.93533 0.653581,-1.567931 0.0015,-0.873277 -0.49685,-1.63924 -1.321769,-2.031644 -0.69538,-0.330784 -1.590021,-0.286522 -2.254253,0.111528 -0.812494,0.486897 -1.241257,1.406734 -1.077203,2.310956 0.07706,0.424745 0.260615,0.784388 0.605371,1.18611 0.09448,0.110091 0.452722,0.359491 0.671782,0.467679 0.161325,0.07967 0.466133,0.174393 0.689463,0.21425 0.209381,0.03737 0.802534,-0.01045 1.043031,-0.08409 z m 4.738617,-4.374046 c 1.215023,-0.378647 1.89716,-1.626867 1.532191,-2.803725 -0.118967,-0.383613 -0.271639,-0.62997 -0.577825,-0.932418 -0.472223,-0.46645 -0.999371,-0.679835 -1.676779,-0.678747 -0.35897,6.65e-4 -0.608612,0.04675 -0.915948,0.169397 -0.60415,0.241098 -1.120552,0.788723 -1.319843,1.399635 -0.102818,0.315179 -0.126808,0.880111 -0.05091,1.199005 0.150399,0.631955 0.620195,1.206868 1.224339,1.498282 0.183902,0.0887 0.445738,0.184977 0.581863,0.213938 0.348561,0.07416 0.84108,0.04739 1.202916,-0.06537 z"
       id="path11" /></g><g
     inkscape:groupmode="layer"
     id="layer3"
     inkscape:label="Elements"><ellipse
       style="fill:#666666;stroke-width:0.158827"
       id="path3"
       cx="45.720181"
       cy="43.67881"
       rx="4.86273"
       ry="4.8710432" /><ellipse
       style="fill:#000000;fill-rule:evenodd;stroke-width:0.163333"
       id="path2"
       cx="45.707996"
       cy="43.728138"
       rx="3.5806966"
       ry="3.5392137" /><ellipse
       style="fill:#666666;stroke-width:0.158827"
       id="ellipse3"
       cx="71.571404"
       cy="53.593548"
       rx="4.86273"
       ry="4.8710432" /><ellipse
       style="fill:#000000;fill-rule:evenodd;stroke-width:0.163333"
       id="ellipse4"
       cx="71.559227"
       cy="53.642872"
       rx="3.5806966"
       ry="3.5392137" /><ellipse
       style="fill:#666666;stroke-width:0.180951"
       id="path4"
       cx="80.046806"
       cy="48.2169"
       rx="2.3376105"
       ry="2.256711" /><ellipse
       style="fill:#666666;stroke-width:0.180951"
       id="ellipse5"
       cx="84.622017"
       cy="43.974777"
       rx="2.3376105"
       ry="2.256711" /><ellipse
       style="fill:#666666;stroke-width:0.180951"
       id="ellipse6"
       cx="80.096802"
       cy="39.436691"
       rx="2.3376105"
       ry="2.256711" /><ellipse
       style="fill:#666666;stroke-width:0.180951"
       id="ellipse7"
       cx="75.378906"
       cy="43.802132"
       rx="2.3376105"
       ry="2.256711" /><text
       xml:space="preserve"
       style="font-style:normal;font-variant:normal;font-weight:normal;font-stretch:normal;font-size:4.88461px;line-height:1.25;font-family:Consolas;-inkscape-font-specification:'Consolas, Normal';font-variant-ligatures:normal;font-variant-caps:normal;font-variant-numeric:normal;font-variant-east-asian:normal;fill:#000000;fill-opacity:1;stroke:none;stroke-width:0.152644"
       x="67.053116"
       y="49.886032"
       id="text7"
       transform="scale(1.1023653,0.9071403)"><tspan
         sodipodi:role="line"
         id="tspan7"
         style="font-style:normal;font-variant:normal;font-weight:normal;font-stretch:normal;font-size:4.88461px;font-family:Consolas;-inkscape-font-specification:'Consolas, Normal';font-variant-ligatures:normal;font-variant-caps:normal;font-variant-numeric:normal;font-variant-east-asian:normal;stroke-width:0.152644"
         x="67.053116"
         y="49.886032">X</tspan></text><text
       xml:space="preserve"
       style="font-style:normal;font-variant:normal;font-weight:normal;font-stretch:normal;font-size:4.88461px;line-height:1.25;font-family:Consolas;-inkscape-font-specification:'Consolas, Normal';font-variant-ligatures:normal;font-variant-caps:normal;font-variant-numeric:normal;font-variant-east-asian:normal;fill:#000000;fill-opacity:1;stroke:none;stroke-width:0.152644"
       x="71.286858"
       y="54.711494"
       id="text8"
       transform="scale(1.1023653,0.9071403)"><tspan
         sodipodi:role="line"
         id="tspan8"
         style="font-style:normal;font-variant:normal;font-weight:normal;font-stretch:normal;font-size:4.88461px;font-family:Consolas;-inkscape-font-specification:'Consolas, Normal';font-variant-ligatures:normal;font-variant-caps:normal;font-variant-numeric:normal;font-variant-east-asian:normal;stroke-width:0.152644"
         x="71.286858"
         y="54.711494">A</tspan></text><text
       xml:space="preserve"
       style="font-style:normal;font-variant:normal;font-weight:normal;font-stretch:normal;font-size:4.88461px;line-height:1.25;font-family:Consolas;-inkscape-font-specification:'Consolas, Normal';font-variant-ligatures:normal;font-variant-caps:normal;font-variant-numeric:normal;font-variant-east-asian:normal;fill:#000000;fill-opacity:1;stroke:none;stroke-width:0.152644"
       x="75.456444"
       y="50.020607"
       id="text9"
       transform="scale(1.1023653,0.9071403)"><tspan
         sodipodi:role="line"
         id="tspan9"
         style="font-style:normal;font-variant:normal;font-weight:normal;font-stretch:normal;font-size:4.88461px;font-family:Consolas;-inkscape-font-specification:'Consolas, Normal';font-variant-ligatures:normal;font-variant-caps:normal;font-variant-numeric:normal;font-variant-east-asian:normal;stroke-width:0.152644"
         x="75.456444"
         y="50.020607">B</tspan></text><text
       xml:space="preserve"
       style="font-style:normal;font-variant:normal;font-weight:normal;font-stretch:normal;font-size:4.88461px;line-height:1.25;font-family:Consolas;-inkscape-font-specification:'Consolas, Normal';font-variant-ligatures:normal;font-variant-caps:normal;font-variant-numeric:normal;font-variant-east-asian:normal;fill:#000000;fill-opacity:1;stroke:none;stroke-width:0.152644"
       x="71.334961"
       y="45.099018"
       id="text10"
       transform="scale(1.1023653,0.9071403)"><tspan
         sodipodi:role="line"
         id="tspan10"
         style="font-style:normal;font-variant:normal;font-weight:normal;font-stretch:normal;font-size:4.88461px;font-family:Consolas;-inkscape-font-specification:'Consolas, Normal';font-variant-ligatures:normal;font-variant-caps:normal;font-variant-numeric:normal;font-variant-east-asian:normal;stroke-width:0.152644"
         x="71.334961"
         y="45.099018">Y</tspan></text><rect
       style="fill:#666666;stroke-width:0.153421"
       id="rect10"
       width="3.5357013"
       height="9.7313719"
       x="52.138882"
       y="49.631004"
       ry="0.77690053" /><rect
       style="fill:#666666;stroke-width:0.145249"
       id="rect11"
       width="10.041391"
       height="3.1042728"
       x="48.815319"
       y="52.909676"
       ry="0.59192425" /></g><g
     inkscape:groupmode="layer"
     id="layer4"
     inkscape:label="Plus"><rect
       style="fill:#f4e3d7;stroke-width:0.160909"
       id="rect15"
       width="13.992367"
       height="3.2394922"
       x="-52.893707"
       y="97.524483"
       ry="0.6000284"
       transform="rotate(-90)" /><rect
       style="fill:#f4e3d7;stroke-width:0.160909"
       id="rect13"
       width="14.183939"
       height="3.1957386"
       x="92.120811"
       y="44.254192"
       ry="0.59192425" /><rect
       style="fill:#000000;stroke-width:0.160909"
       id="rect12"
       width="13.750651"
       height="2.8116403"
       x="92.331924"
       y="44.436028"
       ry="0.59192425" /><rect
       style="fill:#000000;stroke-width:0.160909"
       id="rect16"
       width="13.564931"
       height="2.8501348"
       x="-52.685463"
       y="97.708809"
       ry="0.6000284"
       transform="rotate(-90)" /></g><g
     inkscape:groupmode="layer"
     id="layer6"
     inkscape:label="Stop Watch"><ellipse
       style="fill:#000000;stroke-width:0.151433"
       id="path21"
       cx="94.259071"
       cy="65.432289"
       rx="8.8254166"
       ry="8.8172045" /><ellipse
       style="fill:#e3dbdb;stroke-width:0.155259"
       id="path18"
       cx="94.29657"
       cy="65.592613"
       rx="7.2378421"
       ry="7.0784273" /><rect
       style="fill:#333333;stroke-width:0.196762"
       id="rect17"
       width="0.87997478"
       height="6.2237868"
       x="66.008247"
       y="84.821548"
       rx="0.78816569"
       ry="3.1118934"
       transform="matrix(0.95571016,-0.2943095,0.33922,0.94070707,0,0)" /><ellipse
       style="fill:#333333;stroke-width:0.160909"
       id="path17"
       cx="94.184067"
       cy="65.604935"
       rx="1.0750508"
       ry="0.9988721" /><ellipse
       style="fill:#000000;stroke-width:0.160909"
       id="path16"
       cx="94.184067"
       cy="65.629608"
       rx="0.52502483"
       ry="0.53026545" /><rect
       style="fill:#333333;stroke-width:0.160909"
       id="rect18"
       width="0.67503071"
       height="1.3071665"
       x="93.784042"
       y="59.106113"
       rx="0.33751535"
       ry="0.59192443" /><rect
       style="fill:#333333;stroke-width:0.160909"
       id="rect19"
       width="0.67503071"
       height="1.3071665"
       x="93.784042"
       y="70.254013"
       rx="0.33751535"
       ry="0.59192443" /><rect
       style="fill:#333333;stroke-width:0.160909"
       id="rect20"
       width="0.66591436"
       height="1.3250616"
       x="64.012001"
       y="-101.31627"
       rx="0.33295718"
       ry="0.60002786"
       transform="matrix(-0.00936688,0.99995613,-0.99995845,-0.00911558,0,0)" /><rect
       style="fill:#333333;stroke-width:0.160909"
       id="rect21"
       width="0.66591436"
       height="1.3250616"
       x="64.41256"
       y="-89.844002"
       rx="0.33295718"
       ry="0.60002786"
       transform="matrix(-0.00936688,0.99995613,-0.99995845,-0.00911558,0,0)" /><path
       id="rect22"
       style="stroke-width:0.160909"
       d="m 92.758998,55.949183 2.725121,0.04935 0.800038,1.331835 -4.250195,0.221973 z"
       sodipodi:nodetypes="ccccc" /><rect
       style="fill:#000000;stroke-width:0.160909"
       id="rect23"
       width="2.1000993"
       height="1.7264457"
       x="93.034012"
       y="55.15995" /><rect
       style="fill:#000000;stroke-width:0.127359"
       id="rect24"
       width="3.0501442"
       height="1.0605309"
       x="92.558983"
       y="54.346054"
       ry="0.42021039" /><path
       id="path24"
       style="stroke-width:0.141682"
       d="m 99.626198,57.4395 1.643812,1.70556 -0.39764,1.280595 -2.763494,-2.483068 z"
       sodipodi:nodetypes="ccccc" /><rect
       style="fill:#000000;stroke-width:0.141811"
       id="rect25"
       width="1.827212"
       height="1.5412283"
       x="109.49927"
       y="-30.57497"
       transform="matrix(0.70720066,0.70701289,-0.74848229,0.66315477,0,0)" /><rect
       style="fill:#000000;stroke-width:0.112243"
       id="rect26"
       width="2.6538079"
       height="0.94675452"
       x="109.08595"
       y="-31.301554"
       ry="0.37512916"
       transform="matrix(0.70720066,0.70701289,-0.74848229,0.66315477,0,0)" /></g><g
     inkscape:groupmode="layer"
     id="layer2"
     inkscape:label="Label"><text
       xml:space="preserve"
       style="font-style:normal;font-weight:normal;font-size:13.6456px;line-height:1.25;font-family:sans-serif;fill:#000000;fill-opacity:1;stroke:none;stroke-width:0.255855"
       x="7.3277111"
       y="90.916328"
       id="text1"
       transform="scale(0.95916065,1.0425782)"><tspan
         sodipodi:role="line"
         id="tspan1"
         style="font-size:13.6456px;stroke-width:0.255855"
         x="7.3277111"
         y="90.916328">Loading Application</tspan></text></g><metadata
     id="metadata1"><rdf:RDF><cc:Work
         rdf:about=""><cc:license
           rdf:resource="http://creativecommons.org/licenses/by-nc-sa/4.0/" /><dc:title>Gamepadla+ Icon with Loading Screen</dc:title><dc:date>07.11.2024</dc:date><dc:creator><cc:Agent><dc:title>Adam McKellar</dc:title></cc:Agent></dc:creator></cc:Work><cc:License
         rdf:about="http://creativecommons.org/licenses/by-nc-sa/4.0/"><cc:permits
           rdf:resource="http://creativecommons.org/ns#Reproduction" /><cc:permits
           rdf:resource="http://creativecommons.org/ns#Distribution" /><cc:requires
           rdf:resource="http://creativecommons.org/ns#Notice" /><cc:requires
           rdf:resource="http://creativecommons.org/ns#Attribution" /><cc:prohibits
           rdf:resource="http://creativecommons.org/ns#CommercialUse" /><cc:permits
           rdf:resource="http://creativecommons.org/ns#DerivativeWorks" /><cc:requires
           rdf:resource="http://creativecommons.org/ns#ShareAlike" /></cc:License></rdf:RDF></metadata></svg>
