<?xml version="1.0" encoding="UTF-8" standalone="no"?>
<!-- Created with Inkscape (http://www.inkscape.org/) -->

<svg
   width="512"
   height="512"
   viewBox="0 0 135.46667 135.46667"
   version="1.1"
   id="svg1"
   sodipodi:docname="gamepadla-plus-icon-round-white.svg"
   inkscape:version="1.3.2 (091e20e, 2023-11-25, custom)"
   xml:space="preserve"
   inkscape:export-filename="gamepadla-plus-icon-export.svg"
   inkscape:export-xdpi="96"
   inkscape:export-ydpi="96"
   xmlns:inkscape="http://www.inkscape.org/namespaces/inkscape"
   xmlns:sodipodi="http://sodipodi.sourceforge.net/DTD/sodipodi-0.dtd"
   xmlns="http://www.w3.org/2000/svg"
   xmlns:svg="http://www.w3.org/2000/svg"
   xmlns:rdf="http://www.w3.org/1999/02/22-rdf-syntax-ns#"
   xmlns:cc="http://creativecommons.org/ns#"
   xmlns:dc="http://purl.org/dc/elements/1.1/"><title
     id="title1">Gamepadla+ Icon on White Round Surface</title><sodipodi:namedview
     id="namedview1"
     pagecolor="#505050"
     bordercolor="#ffffff"
     borderopacity="1"
     inkscape:showpageshadow="0"
     inkscape:pageopacity="0"
     inkscape:pagecheckerboard="1"
     inkscape:deskcolor="#505050"
     inkscape:document-units="mm"
     inkscape:zoom="2.2910156"
     inkscape:cx="111.52259"
     inkscape:cy="259.05542"
     inkscape:window-width="3440"
     inkscape:window-height="1369"
     inkscape:window-x="-8"
     inkscape:window-y="352"
     inkscape:window-maximized="1"
     inkscape:current-layer="layer6" /><defs
     id="defs1" /><g
     inkscape:groupmode="layer"
     id="layer2"
     inkscape:label="Background"
     sodipodi:insensitive="true"
     style="display:inline"><circle
       style="fill:#ffffff;stroke-width:0.439472;image-rendering:auto"
       id="path5"
       cx="67.771393"
       cy="67.771385"
       r="67.655899" /></g><g
     inkscape:label="Base Controller"
     inkscape:groupmode="layer"
     id="layer1"><path
       style="fill:none;stroke:#000000;stroke-width:0.264583px;stroke-linecap:butt;stroke-linejoin:miter;stroke-opacity:1"
       d="m 17.554078,101.51339 c 0,0 -3.695596,-0.57744 -8.1996022,-6.236324 C 4.8504688,89.618185 7.9686268,74.489342 7.9686268,74.489342 L 15.013356,50.58346 19.401877,38.80375 23.039728,34.992668 c 0,0 0.577435,-1.559079 1.385848,-2.944927 0.80841,-1.38585 10.162886,-4.504007 10.162886,-4.504007 0,0 4.273032,-1.097129 5.947598,-0.923899 1.674566,0.173231 4.215289,1.963286 4.215289,1.963286 0,0 -0.115488,0.288718 1.963285,0.230973 2.078773,-0.05774 28.409889,0.05775 28.409889,0.05775 0,0 1.039386,-0.173233 2.65621,-1.097132 1.616821,-0.923898 1.501336,-0.866153 3.291388,-1.097129 1.790054,-0.230973 11.144527,2.48298 12.992327,3.695597 1.8478,1.212617 2.71395,1.559078 3.06042,2.54072 0.34646,0.981643 0.86615,2.309749 0.86615,2.309749 l 1.783353,1.317894 c 1.155579,0.95802 0.539549,0.179968 1.739009,2.262212 2.6556,4.610086 6.23631,15.821768 7.44893,20.210287 1.21262,4.38852 3.23364,10.624836 4.0998,15.071101 0.86616,4.446262 1.32811,10.047398 0.9239,13.2233 -0.4042,3.175903 -1.15487,5.774368 -1.96329,7.391183 -0.80841,1.61683 -2.48297,3.406882 -4.04205,4.446262 -1.55908,1.039392 -3.63786,2.021032 -4.73498,2.367502 -1.09713,0.34646 -4.446262,-2.829452 -5.370162,-3.580112 -0.92389,-0.750672 -6.582776,-8.315088 -6.582776,-8.315088 0,0 -4.908211,-6.178571 -6.756011,-7.044727 -1.847797,-0.866156 -0.63518,-0.750668 -2.598465,-1.328105 -1.963285,-0.577438 -41.055752,-0.519692 -41.055752,-0.519692 0,0 -2.829441,0.519692 -3.868827,1.44359 -1.039387,0.923899 -4.850469,4.042058 -6.120829,5.832113 -1.270362,1.790054 -3.753339,5.139187 -5.427906,7.044717 -1.674566,1.90556 -3.522366,4.099802 -4.792726,5.023714 -1.270359,0.92389 -1.385847,1.44359 -2.194261,1.50133 -0.80841,0.0577 -0.923897,-0.0577 -0.923897,-0.0577 z"
       id="path1"
       sodipodi:nodetypes="csccccscscscssssccsssssssscsscssssccc" /><path
       style="fill:#f4e3d7;stroke-width:0.0577437"
       d="m 17.627252,101.3576 c -1.275053,-0.26009 -3.125126,-1.29094 -4.72154,-2.630812 C 11.632802,97.658436 9.8526616,95.748616 9.1339222,94.680236 8.1415988,93.205178 7.5095094,91.030719 7.2092378,88.059107 7.0687938,86.669216 7.0688549,83.230112 7.2093545,81.476329 7.3864824,79.265331 7.7610599,76.357245 8.0528932,74.927394 8.1117897,74.638826 9.7472176,69.023905 11.687178,62.449787 l 3.527199,-11.952941 2.16283,-5.797896 c 2.018542,-5.411108 2.178038,-5.813661 2.390816,-6.034215 0.125394,-0.129973 0.944967,-0.989785 1.821273,-1.910685 1.562981,-1.642521 1.596794,-1.683158 1.777656,-2.136516 0.266477,-0.667967 0.800438,-1.789565 1.079171,-2.266823 0.209688,-0.359034 0.301792,-0.452475 0.716347,-0.726739 1.19812,-0.792663 3.88154,-1.943423 7.705727,-3.304535 1.723877,-0.613566 2.358493,-0.791739 3.972269,-1.115248 2.141191,-0.429238 3.456072,-0.523443 4.253278,-0.304733 0.858903,0.235635 2.033772,0.819451 3.242209,1.611116 0.45598,0.298717 0.630269,0.379997 0.895027,0.417383 0.18083,0.02553 5.447758,0.04869 11.704286,0.05146 6.256528,0.0028 12.895606,0.02228 14.753507,0.04337 3.312774,0.0376 3.38649,0.03601 3.817147,-0.0827 0.633865,-0.174715 1.569733,-0.588579 2.471211,-1.092827 0.431882,-0.241578 0.946245,-0.51226 1.143024,-0.601514 0.681865,-0.309282 2.166807,-0.473207 3.084483,-0.340503 2.36025,0.341318 7.330895,1.730849 10.069369,2.81487 1.076847,0.426263 1.319451,0.553271 2.558659,1.339475 1.685218,1.069176 1.883783,1.257019 2.192803,2.074412 0.09231,0.244174 0.317071,0.837597 0.499472,1.318721 l 0.331634,0.874773 0.84676,0.625769 c 0.465719,0.34417 1.057986,0.791024 1.316165,0.99301 l 0.46939,0.367242 0.66864,1.192633 c 1.69265,3.019083 3.23524,6.814899 5.35401,13.174445 1.06906,3.208801 1.40824,4.306853 2.47927,8.026371 0.47097,1.635588 1.13041,3.909245 1.46541,5.052571 1.92321,6.563666 2.58213,9.418476 3.06539,13.281046 0.33675,2.691553 0.4612,4.779245 0.41787,7.010024 -0.0385,1.982409 -0.19143,3.249184 -0.62723,5.19566 -0.81219,3.627683 -1.70464,5.381273 -3.75184,7.371993 -1.14908,1.117382 -2.27239,1.867492 -4.23595,2.828634 -1.37391,0.6725 -2.16481,0.97288 -2.41693,0.91792 -0.51529,-0.11232 -1.46988,-0.69207 -2.52959,-1.536312 -1.054734,-0.84028 -2.569691,-2.175502 -2.918012,-2.571842 -0.789969,-0.89885 -2.537865,-3.12334 -4.867629,-6.194879 -2.02382,-2.668174 -3.79248,-4.759251 -5.513883,-6.519018 C 85.83265,83.269216 85.169215,82.714673 84.448447,82.344439 84.139941,82.18597 83.734776,81.94223 83.548078,81.8028 83.361388,81.66337 83.130685,81.509584 83.035406,81.461054 82.683483,81.281798 81.924222,81.068939 81.447456,81.015866 79.235566,80.769652 68.136904,80.614673 51.247513,80.594165 l -10.595965,-0.01286 -0.63518,0.164616 c -1.958612,0.507611 -2.519704,0.794824 -3.945133,2.019461 -1.849041,1.588575 -2.600214,2.275023 -3.766778,3.442206 -0.896667,0.897141 -1.258519,1.308044 -1.757621,1.995881 -2.635989,3.632777 -3.973616,5.329812 -6.2352,7.910537 -1.58182,1.80505 -2.897055,3.148662 -3.739817,3.820532 -0.372822,0.297232 -0.851426,0.697702 -1.063572,0.889952 -0.212143,0.19226 -0.46578,0.39246 -0.563634,0.4449 -0.24461,0.13107 -0.894039,0.17456 -1.317361,0.0882 z M 48.285521,73.103288 c 0.208486,-0.119573 0.349961,-0.256458 0.461949,-0.446974 l 0.161425,-0.274616 0.01691,-2.324182 0.01691,-2.324182 h 2.226381 c 2.508041,0 2.502313,7.94e-4 2.783115,-0.42345 l 0.153641,-0.232169 V 65.16374 63.249763 l -0.153647,-0.232167 c -0.280834,-0.424368 -0.274796,-0.423449 -2.785578,-0.423449 h -2.22884 v -2.151335 c 0,-1.22763 -0.02421,-2.235788 -0.05641,-2.348029 -0.09085,-0.316773 -0.332031,-0.612892 -0.632288,-0.776312 l -0.279699,-0.15223 -1.955472,5.29e-4 -1.95547,5.29e-4 -0.300524,0.172355 c -0.208489,0.119573 -0.349962,0.256461 -0.461952,0.446974 l -0.161422,0.274616 -0.01696,2.266439 -0.01696,2.26644 h -2.341815 c -2.636596,0 -2.616369,-0.003 -2.89855,0.423449 l -0.15364,0.232167 v 1.913977 1.913975 l 0.15364,0.232169 c 0.28221,0.426448 0.261665,0.42345 2.901064,0.42345 h 2.344327 v 2.209075 c 0,1.258715 0.02416,2.293334 0.05617,2.404928 0.0917,0.319759 0.300779,0.581186 0.607883,0.760102 l 0.288719,0.168204 h 1.963285 1.963285 z m 28.082755,-1.442014 c 1.570051,-0.301654 2.924577,-1.02817 4.095419,-2.196634 2.585392,-2.580142 3.109722,-6.626595 1.274326,-9.834454 -1.154123,-2.017143 -3.248271,-3.480636 -5.540978,-3.872299 -0.707308,-0.120827 -1.955924,-0.120983 -2.664732,-2.64e-4 -1.065551,0.181377 -2.135193,0.616844 -3.135614,1.276556 -0.593948,0.391671 -1.675802,1.49266 -2.106115,2.143361 -0.624711,0.944668 -0.984362,1.810808 -1.226887,2.954726 -0.171145,0.807233 -0.183819,2.244598 -0.02698,3.060414 0.683535,3.555519 3.490063,6.182342 7.034861,6.5844 0.573233,0.06502 1.634167,0.01156 2.296702,-0.115737 z M 89.751533,58.431846 c 1.640967,-0.436454 2.782708,-1.90723 2.782708,-3.584644 0,-0.682305 -0.07825,-1.018865 -0.386022,-1.660162 -0.470477,-0.980364 -1.39201,-1.720363 -2.501162,-2.008468 -0.496572,-0.128985 -1.407612,-0.12545 -1.903468,0.0074 -0.696751,0.186655 -1.198014,0.478612 -1.741519,1.014325 -0.412205,0.406294 -0.537974,0.575347 -0.730327,0.981641 -0.299053,0.631698 -0.385783,1.003911 -0.383463,1.645695 0.0024,0.652367 0.08928,1.0247 0.384186,1.645695 0.18728,0.394372 0.32512,0.582901 0.701447,0.959393 0.388073,0.388236 0.562417,0.513823 1.016937,0.732517 0.479311,0.230627 0.701717,0.296323 1.385848,0.409371 0.259585,0.0429 0.944062,-0.02818 1.374835,-0.14275 z M 34.472974,55.184475 c 1.560494,-0.396465 2.746688,-1.08149 3.854387,-2.225903 1.123865,-1.161116 1.847352,-2.560116 2.153997,-4.165166 0.129484,-0.677757 0.146444,-2.190983 0.03171,-2.829438 -0.612831,-3.410199 -3.124438,-5.976591 -6.473172,-6.614364 -0.723259,-0.137747 -2.021959,-0.140142 -2.757746,-0.0051 -3.689186,0.677172 -6.388889,3.794956 -6.579211,7.598079 -0.194956,3.895746 2.460789,7.419798 6.218801,8.252061 0.301709,0.06682 0.613526,0.132961 0.692922,0.146986 0.0794,0.01402 0.625076,0.01741 1.212617,0.0075 0.915586,-0.01543 1.150787,-0.03895 1.645695,-0.164689 z M 96.968507,51.47467 c 1.390126,-0.282451 2.520804,-1.32801 2.934034,-2.713154 0.164469,-0.551289 0.138929,-1.488612 -0.0569,-2.08814 -0.366256,-1.12137 -1.259574,-2.019551 -2.41275,-2.425903 -0.569994,-0.200853 -1.462547,-0.245684 -2.094073,-0.105183 -1.74244,0.387655 -2.979817,1.900391 -2.976965,3.639442 0.0016,0.980334 0.325202,1.822384 0.966896,2.51601 0.946123,1.022707 2.278454,1.45352 3.639746,1.176928 z M 82.226995,51.102912 c 0.641533,-0.199123 1.106564,-0.488083 1.616824,-1.00466 0.734817,-0.743911 1.065654,-1.548458 1.067403,-2.595743 0.0024,-1.445728 -0.811437,-2.713794 -2.158661,-3.363428 -1.135668,-0.547619 -2.596761,-0.474342 -3.681558,0.184637 -1.326933,0.806069 -2.027171,2.328878 -1.759246,3.825835 0.125851,0.703175 0.425627,1.29857 0.988668,1.963629 0.154302,0.182258 0.739368,0.595146 1.097129,0.774253 0.26347,0.1319 0.76127,0.288711 1.126003,0.354695 0.341953,0.06187 1.310667,-0.0173 1.703438,-0.139218 z m 7.738922,-7.241323 c 1.984328,-0.626857 3.098366,-2.693311 2.502313,-4.641623 -0.194291,-0.635079 -0.443629,-1.042929 -0.943681,-1.543637 -0.771216,-0.772218 -1.632133,-1.125482 -2.738448,-1.12368 -0.586256,0.0011 -0.993961,0.07739 -1.495891,0.28044 -0.986674,0.399142 -1.830041,1.305747 -2.155515,2.317125 -0.167918,0.521785 -0.207098,1.457042 -0.08315,1.984976 0.245626,1.046215 1.012878,1.997995 1.999543,2.480437 0.300342,0.146854 0.727962,0.306234 0.950275,0.354179 0.569257,0.122766 1.373619,0.07846 1.964555,-0.108217 z"
       id="path11" /></g><g
     inkscape:groupmode="layer"
     id="layer3"
     inkscape:label="Elements"><ellipse
       style="fill:#666666;stroke-width:0.26116"
       id="path3"
       cx="32.65176"
       cy="47.31226"
       rx="7.9416189"
       ry="8.0641117" /><ellipse
       style="fill:#000000;fill-rule:evenodd;stroke-width:0.268569"
       id="path2"
       cx="32.631866"
       cy="47.393921"
       rx="5.8478522"
       ry="5.8592405" /><ellipse
       style="fill:#666666;stroke-width:0.26116"
       id="ellipse3"
       cx="74.870949"
       cy="63.726303"
       rx="7.9416189"
       ry="8.0641117" /><ellipse
       style="fill:#000000;fill-rule:evenodd;stroke-width:0.268569"
       id="ellipse4"
       cx="74.851059"
       cy="63.807961"
       rx="5.8478522"
       ry="5.8592405" /><ellipse
       style="fill:#666666;stroke-width:0.297539"
       id="path4"
       cx="88.712639"
       cy="54.825157"
       rx="3.8176932"
       ry="3.7360313" /><ellipse
       style="fill:#666666;stroke-width:0.297539"
       id="ellipse5"
       cx="96.1847"
       cy="47.802235"
       rx="3.8176932"
       ry="3.7360313" /><ellipse
       style="fill:#666666;stroke-width:0.297539"
       id="ellipse6"
       cx="88.794296"
       cy="40.289341"
       rx="3.8176932"
       ry="3.7360313" /><ellipse
       style="fill:#666666;stroke-width:0.297539"
       id="ellipse7"
       cx="81.089211"
       cy="47.516418"
       rx="3.8176932"
       ry="3.7360313" /><text
       xml:space="preserve"
       style="font-style:normal;font-variant:normal;font-weight:normal;font-stretch:normal;font-size:8.03178px;line-height:1.25;font-family:Consolas;-inkscape-font-specification:'Consolas, Normal';font-variant-ligatures:normal;font-variant-caps:normal;font-variant-numeric:normal;font-variant-east-asian:normal;fill:#000000;fill-opacity:1;stroke:none;stroke-width:0.250993"
       x="71.8806"
       y="54.65654"
       id="text7"
       transform="scale(1.0948956,0.91332909)"><tspan
         sodipodi:role="line"
         id="tspan7"
         style="font-style:normal;font-variant:normal;font-weight:normal;font-stretch:normal;font-size:8.03178px;font-family:Consolas;-inkscape-font-specification:'Consolas, Normal';font-variant-ligatures:normal;font-variant-caps:normal;font-variant-numeric:normal;font-variant-east-asian:normal;stroke-width:0.250993"
         x="71.8806"
         y="54.65654">X</tspan></text><text
       xml:space="preserve"
       style="font-style:normal;font-variant:normal;font-weight:normal;font-stretch:normal;font-size:8.03178px;line-height:1.25;font-family:Consolas;-inkscape-font-specification:'Consolas, Normal';font-variant-ligatures:normal;font-variant-caps:normal;font-variant-numeric:normal;font-variant-east-asian:normal;fill:#000000;fill-opacity:1;stroke:none;stroke-width:0.250993"
       x="78.842148"
       y="62.591057"
       id="text8"
       transform="scale(1.0948956,0.91332909)"><tspan
         sodipodi:role="line"
         id="tspan8"
         style="font-style:normal;font-variant:normal;font-weight:normal;font-stretch:normal;font-size:8.03178px;font-family:Consolas;-inkscape-font-specification:'Consolas, Normal';font-variant-ligatures:normal;font-variant-caps:normal;font-variant-numeric:normal;font-variant-east-asian:normal;stroke-width:0.250993"
         x="78.842148"
         y="62.591057">A</tspan></text><text
       xml:space="preserve"
       style="font-style:normal;font-variant:normal;font-weight:normal;font-stretch:normal;font-size:8.03178px;line-height:1.25;font-family:Consolas;-inkscape-font-specification:'Consolas, Normal';font-variant-ligatures:normal;font-variant-caps:normal;font-variant-numeric:normal;font-variant-east-asian:normal;fill:#000000;fill-opacity:1;stroke:none;stroke-width:0.250993"
       x="85.698212"
       y="54.877823"
       id="text9"
       transform="scale(1.0948956,0.91332909)"><tspan
         sodipodi:role="line"
         id="tspan9"
         style="font-style:normal;font-variant:normal;font-weight:normal;font-stretch:normal;font-size:8.03178px;font-family:Consolas;-inkscape-font-specification:'Consolas, Normal';font-variant-ligatures:normal;font-variant-caps:normal;font-variant-numeric:normal;font-variant-east-asian:normal;stroke-width:0.250993"
         x="85.698212"
         y="54.877823">B</tspan></text><text
       xml:space="preserve"
       style="font-style:normal;font-variant:normal;font-weight:normal;font-stretch:normal;font-size:8.03178px;line-height:1.25;font-family:Consolas;-inkscape-font-specification:'Consolas, Normal';font-variant-ligatures:normal;font-variant-caps:normal;font-variant-numeric:normal;font-variant-east-asian:normal;fill:#000000;fill-opacity:1;stroke:none;stroke-width:0.250993"
       x="78.921249"
       y="46.78524"
       id="text10"
       transform="scale(1.0948956,0.91332909)"><tspan
         sodipodi:role="line"
         id="tspan10"
         style="font-style:normal;font-variant:normal;font-weight:normal;font-stretch:normal;font-size:8.03178px;font-family:Consolas;-inkscape-font-specification:'Consolas, Normal';font-variant-ligatures:normal;font-variant-caps:normal;font-variant-numeric:normal;font-variant-east-asian:normal;stroke-width:0.250993"
         x="78.921249"
         y="46.78524">Y</tspan></text><rect
       style="fill:#666666;stroke-width:0.25227"
       id="rect10"
       width="5.7743678"
       height="16.110485"
       x="43.134529"
       y="57.166233"
       ry="1.2861748" /><rect
       style="fill:#666666;stroke-width:0.238834"
       id="rect11"
       width="16.399204"
       height="5.1391873"
       x="37.706623"
       y="62.594139"
       ry="0.97994268" /></g><g
     inkscape:groupmode="layer"
     id="layer4"
     inkscape:label="Plus"><rect
       style="fill:#f4e3d7;stroke-width:0.264583"
       id="rect15"
       width="23.16465"
       height="5.2906108"
       x="-62.567703"
       y="117.25648"
       ry="0.97994268"
       transform="rotate(-90)" /><rect
       style="fill:#f4e3d7;stroke-width:0.264583"
       id="rect13"
       width="23.16465"
       height="5.2906108"
       x="108.43143"
       y="48.264816"
       ry="0.97994268" /><rect
       style="fill:#000000;stroke-width:0.264583"
       id="rect12"
       width="22.457022"
       height="4.6547279"
       x="108.77621"
       y="48.565845"
       ry="0.97994268" /><rect
       style="fill:#000000;stroke-width:0.264583"
       id="rect16"
       width="22.457022"
       height="4.6547279"
       x="-62.222954"
       y="117.55754"
       ry="0.97994268"
       transform="rotate(-90)" /></g><g
     inkscape:groupmode="layer"
     id="layer6"
     inkscape:label="Stop Watch"><ellipse
       style="fill:#000000;stroke-width:0.249001"
       id="path21"
       cx="111.92355"
       cy="83.3256"
       rx="14.413322"
       ry="14.597063" /><ellipse
       style="fill:#e3dbdb;stroke-width:0.255292"
       id="path18"
       cx="111.98479"
       cy="83.591011"
       rx="11.820559"
       ry="11.718481" /><rect
       style="fill:#333333;stroke-width:0.323479"
       id="rect17"
       width="1.4388551"
       height="10.287689"
       x="76.698753"
       y="103.79542"
       rx="1.2887372"
       ry="5.1438446"
       transform="matrix(0.95457106,-0.29798336,0.33515617,0.94216259,0,0)" /><ellipse
       style="fill:#333333;stroke-width:0.264583"
       id="path17"
       cx="111.80106"
       cy="83.611412"
       rx="1.7557306"
       ry="1.6536533" /><ellipse
       style="fill:#000000;stroke-width:0.264583"
       id="path16"
       cx="111.80106"
       cy="83.65226"
       rx="0.85744983"
       ry="0.87786531" /><rect
       style="fill:#333333;stroke-width:0.264583"
       id="rect18"
       width="1.1024336"
       height="2.1640408"
       x="111.14776"
       y="72.85247"
       rx="0.55121678"
       ry="0.97994298" /><rect
       style="fill:#333333;stroke-width:0.264583"
       id="rect19"
       width="1.1024336"
       height="2.1640408"
       x="111.14776"
       y="91.308052"
       rx="0.55121678"
       ry="0.97994298" /><rect
       style="fill:#333333;stroke-width:0.264583"
       id="rect20"
       width="1.1024336"
       height="2.1640408"
       x="81.363464"
       y="-123.22009"
       rx="0.55121678"
       ry="0.97994298"
       transform="rotate(90.529442)" /><rect
       style="fill:#333333;stroke-width:0.264583"
       id="rect21"
       width="1.1024336"
       height="2.1640408"
       x="82.026596"
       y="-104.48401"
       rx="0.55121678"
       ry="0.97994298"
       transform="rotate(90.529442)" /><path
       id="rect22"
       style="stroke-width:0.264583"
       d="m 109.4737,67.626113 4.45056,0.0817 1.30659,2.20488 -6.94125,0.36748 z"
       sodipodi:nodetypes="ccccc" /><rect
       style="fill:#000000;stroke-width:0.264583"
       id="rect23"
       width="3.4297993"
       height="2.8581662"
       x="109.92283"
       y="66.319519" /><rect
       style="fill:#000000;stroke-width:0.209416"
       id="rect24"
       width="4.9813752"
       height="1.7557306"
       x="109.14704"
       y="64.972092"
       ry="0.69566691" /><path
       id="path24"
       style="stroke-width:0.232968"
       d="m 120.68894,70.093363 2.68461,2.82359 -0.64941,2.12005 -4.51323,-4.11077 z"
       sodipodi:nodetypes="ccccc" /><rect
       style="fill:#000000;stroke-width:0.233096"
       id="rect25"
       width="3.0046227"
       height="2.5322864"
       x="133.33226"
       y="-37.873039"
       transform="matrix(0.7023774,0.71180474,-0.74398565,0.66819559,0,0)" /><rect
       style="fill:#000000;stroke-width:0.184494"
       id="rect26"
       width="4.3638568"
       height="1.5555474"
       x="132.65262"
       y="-39.066837"
       ry="0.61634898"
       transform="matrix(0.7023774,0.71180474,-0.74398565,0.66819559,0,0)" /></g><metadata
     id="metadata1"><rdf:RDF><cc:Work
         rdf:about=""><cc:license
           rdf:resource="http://creativecommons.org/licenses/by-nc-sa/4.0/" /><dc:title>Gamepadla+ Icon on White Round Surface</dc:title><dc:date>07.11.2024</dc:date><dc:creator><cc:Agent><dc:title>Adam McKellar</dc:title></cc:Agent></dc:creator></cc:Work><cc:License
         rdf:about="http://creativecommons.org/licenses/by-nc-sa/4.0/"><cc:permits
           rdf:resource="http://creativecommons.org/ns#Reproduction" /><cc:permits
           rdf:resource="http://creativecommons.org/ns#Distribution" /><cc:requires
           rdf:resource="http://creativecommons.org/ns#Notice" /><cc:requires
           rdf:resource="http://creativecommons.org/ns#Attribution" /><cc:prohibits
           rdf:resource="http://creativecommons.org/ns#CommercialUse" /><cc:permits
           rdf:resource="http://creativecommons.org/ns#DerivativeWorks" /><cc:requires
           rdf:resource="http://creativecommons.org/ns#ShareAlike" /></cc:License></rdf:RDF></metadata></svg>
