<?xml version="1.0" encoding="UTF-8" standalone="no"?>
<!DOCTYPE svg PUBLIC "-//W3C//DTD SVG 1.1//EN"
 "http://www.w3.org/Graphics/SVG/1.1/DTD/svg11.dtd">
<!-- Generated by graphviz version 2.43.0 (0)
 -->
<!-- Title: dependencies Pages: 1 -->
<svg width="1306pt" height="1154pt"
 viewBox="0.00 0.00 1306.00 1154.00" xmlns="http://www.w3.org/2000/svg" xmlns:xlink="http://www.w3.org/1999/xlink">
<g id="graph0" class="graph" transform="scale(1 1) rotate(0) translate(4 1150)">
<title>dependencies</title>
<polygon fill="white" stroke="transparent" points="-4,4 -4,-1150 1302,-1150 1302,4 -4,4"/>
<!-- backports.tarfile -->
<g id="node1" class="node">
<title>backports.tarfile</title>
<polygon fill="none" stroke="black" points="933.5,-1146 758.5,-1146 758.5,-1110 933.5,-1110 933.5,-1146"/>
<text text-anchor="middle" x="846" y="-1124.3" font-family="Times,serif" font-size="14.00">backports.tarfile 1.2.0</text>
</g>
<!-- build -->
<g id="node2" class="node">
<title>build</title>
<polygon fill="none" stroke="black" points="366,-757 273,-757 273,-721 366,-721 366,-757"/>
<text text-anchor="middle" x="319.5" y="-735.3" font-family="Times,serif" font-size="14.00">build 1.2.1</text>
</g>
<!-- importlib_metadata -->
<g id="node11" class="node">
<title>importlib_metadata</title>
<polygon fill="none" stroke="black" points="677,-838 482,-838 482,-802 677,-802 677,-838"/>
<text text-anchor="middle" x="579.5" y="-816.3" font-family="Times,serif" font-size="14.00">importlib&#45;metadata 8.2.0</text>
</g>
<!-- build&#45;&gt;importlib_metadata -->
<g id="edge2" class="edge">
<title>build&#45;&gt;importlib_metadata</title>
<path fill="none" stroke="black" d="M366.36,-754C417.14,-754 491,-754 491,-754 491,-754 491,-791.97 491,-791.97"/>
<polygon fill="black" stroke="black" points="487.5,-791.97 491,-801.97 494.5,-791.97 487.5,-791.97"/>
</g>
<!-- packaging -->
<g id="node23" class="node">
<title>packaging</title>
<polygon fill="none" stroke="black" points="642,-676 517,-676 517,-640 642,-640 642,-676"/>
<text text-anchor="middle" x="579.5" y="-654.3" font-family="Times,serif" font-size="14.00">packaging 24.1</text>
</g>
<!-- build&#45;&gt;packaging -->
<g id="edge4" class="edge">
<title>build&#45;&gt;packaging</title>
<path fill="none" stroke="black" d="M366.13,-724C426.76,-724 525,-724 525,-724 525,-724 525,-686.03 525,-686.03"/>
<polygon fill="black" stroke="black" points="528.5,-686.03 525,-676.03 521.5,-686.03 528.5,-686.03"/>
</g>
<!-- pyproject_hooks -->
<g id="node30" class="node">
<title>pyproject_hooks</title>
<polygon fill="none" stroke="black" points="664.5,-784 494.5,-784 494.5,-748 664.5,-748 664.5,-784"/>
<text text-anchor="middle" x="579.5" y="-762.3" font-family="Times,serif" font-size="14.00">pyproject&#45;hooks 1.1.0</text>
</g>
<!-- build&#45;&gt;pyproject_hooks -->
<g id="edge1" class="edge">
<title>build&#45;&gt;pyproject_hooks</title>
<path fill="none" stroke="black" d="M366.28,-751C366.28,-751 484.46,-751 484.46,-751"/>
<polygon fill="black" stroke="black" points="484.46,-754.5 494.46,-751 484.46,-747.5 484.46,-754.5"/>
</g>
<!-- tomli -->
<g id="node39" class="node">
<title>tomli</title>
<polygon fill="none" stroke="black" points="626.5,-730 532.5,-730 532.5,-694 626.5,-694 626.5,-730"/>
<text text-anchor="middle" x="579.5" y="-708.3" font-family="Times,serif" font-size="14.00">tomli 2.0.1</text>
</g>
<!-- build&#45;&gt;tomli -->
<g id="edge3" class="edge">
<title>build&#45;&gt;tomli</title>
<path fill="none" stroke="black" d="M366.28,-727C366.28,-727 522.22,-727 522.22,-727"/>
<polygon fill="black" stroke="black" points="522.22,-730.5 532.22,-727 522.22,-723.5 522.22,-730.5"/>
</g>
<!-- certifi -->
<g id="node3" class="node">
<title>certifi</title>
<polygon fill="none" stroke="black" points="909,-144 783,-144 783,-108 909,-108 909,-144"/>
<text text-anchor="middle" x="846" y="-122.3" font-family="Times,serif" font-size="14.00">certifi 2024.7.4</text>
</g>
<!-- cffi -->
<g id="node4" class="node">
<title>cffi</title>
<polygon fill="none" stroke="black" points="1102,-938 1014,-938 1014,-902 1102,-902 1102,-938"/>
<text text-anchor="middle" x="1058" y="-916.3" font-family="Times,serif" font-size="14.00">cffi 1.16.0</text>
</g>
<!-- pycparser -->
<g id="node28" class="node">
<title>pycparser</title>
<polygon fill="none" stroke="black" points="1298,-938 1174,-938 1174,-902 1298,-902 1298,-938"/>
<text text-anchor="middle" x="1236" y="-916.3" font-family="Times,serif" font-size="14.00">pycparser 2.22</text>
</g>
<!-- cffi&#45;&gt;pycparser -->
<g id="edge5" class="edge">
<title>cffi&#45;&gt;pycparser</title>
<path fill="none" stroke="black" d="M1102,-920C1102,-920 1163.7,-920 1163.7,-920"/>
<polygon fill="black" stroke="black" points="1163.7,-923.5 1173.7,-920 1163.7,-916.5 1163.7,-923.5"/>
</g>
<!-- charset_normalizer -->
<g id="node5" class="node">
<title>charset_normalizer</title>
<polygon fill="none" stroke="black" points="942,-90 750,-90 750,-54 942,-54 942,-90"/>
<text text-anchor="middle" x="846" y="-68.3" font-family="Times,serif" font-size="14.00">charset&#45;normalizer 3.3.2</text>
</g>
<!-- cryptography -->
<g id="node6" class="node">
<title>cryptography</title>
<polygon fill="none" stroke="black" points="927,-938 765,-938 765,-902 927,-902 927,-938"/>
<text text-anchor="middle" x="846" y="-916.3" font-family="Times,serif" font-size="14.00">cryptography 43.0.0</text>
</g>
<!-- cryptography&#45;&gt;cffi -->
<g id="edge6" class="edge">
<title>cryptography&#45;&gt;cffi</title>
<path fill="none" stroke="black" d="M927.06,-920C927.06,-920 1003.78,-920 1003.78,-920"/>
<polygon fill="black" stroke="black" points="1003.78,-923.5 1013.78,-920 1003.78,-916.5 1003.78,-923.5"/>
</g>
<!-- docutils -->
<g id="node7" class="node">
<title>docutils</title>
<polygon fill="none" stroke="black" points="640.5,-460 518.5,-460 518.5,-424 640.5,-424 640.5,-460"/>
<text text-anchor="middle" x="579.5" y="-438.3" font-family="Times,serif" font-size="14.00">docutils 0.20.1</text>
</g>
<!-- exceptiongroup -->
<g id="node8" class="node">
<title>exceptiongroup</title>
<polygon fill="none" stroke="black" points="663.5,-568 495.5,-568 495.5,-532 663.5,-532 663.5,-568"/>
<text text-anchor="middle" x="579.5" y="-546.3" font-family="Times,serif" font-size="14.00">exceptiongroup 1.2.2</text>
</g>
<!-- graphviz -->
<g id="node9" class="node">
<title>graphviz</title>
<polygon fill="none" stroke="black" points="143,-446 15,-446 15,-410 143,-410 143,-446"/>
<text text-anchor="middle" x="79" y="-424.3" font-family="Times,serif" font-size="14.00">graphviz 0.20.3</text>
</g>
<!-- idna -->
<g id="node10" class="node">
<title>idna</title>
<polygon fill="none" stroke="black" points="883,-36 809,-36 809,0 883,0 883,-36"/>
<text text-anchor="middle" x="846" y="-14.3" font-family="Times,serif" font-size="14.00">idna 3.7</text>
</g>
<!-- zipp -->
<g id="node43" class="node">
<title>zipp</title>
<polygon fill="none" stroke="black" points="894,-861 798,-861 798,-825 894,-825 894,-861"/>
<text text-anchor="middle" x="846" y="-839.3" font-family="Times,serif" font-size="14.00">zipp 3.19.2</text>
</g>
<!-- importlib_metadata&#45;&gt;zipp -->
<g id="edge7" class="edge">
<title>importlib_metadata&#45;&gt;zipp</title>
<path fill="none" stroke="black" d="M677.22,-831.5C677.22,-831.5 787.98,-831.5 787.98,-831.5"/>
<polygon fill="black" stroke="black" points="787.98,-835 797.98,-831.5 787.98,-828 787.98,-835"/>
</g>
<!-- importlib_resources -->
<g id="node12" class="node">
<title>importlib_resources</title>
<polygon fill="none" stroke="black" points="678,-892 481,-892 481,-856 678,-856 678,-892"/>
<text text-anchor="middle" x="579.5" y="-870.3" font-family="Times,serif" font-size="14.00">importlib&#45;resources 6.4.0</text>
</g>
<!-- importlib_resources&#45;&gt;zipp -->
<g id="edge8" class="edge">
<title>importlib_resources&#45;&gt;zipp</title>
<path fill="none" stroke="black" d="M678.36,-876.5C754.2,-876.5 846,-876.5 846,-876.5 846,-876.5 846,-871.32 846,-871.32"/>
<polygon fill="black" stroke="black" points="849.5,-871.32 846,-861.32 842.5,-871.32 849.5,-871.32"/>
</g>
<!-- iniconfig -->
<g id="node13" class="node">
<title>iniconfig</title>
<polygon fill="none" stroke="black" points="638.5,-514 520.5,-514 520.5,-478 638.5,-478 638.5,-514"/>
<text text-anchor="middle" x="579.5" y="-492.3" font-family="Times,serif" font-size="14.00">iniconfig 2.0.0</text>
</g>
<!-- jaraco.classes -->
<g id="node14" class="node">
<title>jaraco.classes</title>
<polygon fill="none" stroke="black" points="657.5,-1092 501.5,-1092 501.5,-1056 657.5,-1056 657.5,-1092"/>
<text text-anchor="middle" x="579.5" y="-1070.3" font-family="Times,serif" font-size="14.00">jaraco.classes 3.4.0</text>
</g>
<!-- more_itertools -->
<g id="node21" class="node">
<title>more_itertools</title>
<polygon fill="none" stroke="black" points="929.5,-1069 762.5,-1069 762.5,-1033 929.5,-1033 929.5,-1069"/>
<text text-anchor="middle" x="846" y="-1047.3" font-family="Times,serif" font-size="14.00">more&#45;itertools 10.3.0</text>
</g>
<!-- jaraco.classes&#45;&gt;more_itertools -->
<g id="edge9" class="edge">
<title>jaraco.classes&#45;&gt;more_itertools</title>
<path fill="none" stroke="black" d="M657.66,-1062.5C657.66,-1062.5 752.26,-1062.5 752.26,-1062.5"/>
<polygon fill="black" stroke="black" points="752.26,-1066 762.26,-1062.5 752.26,-1059 752.26,-1066"/>
</g>
<!-- jaraco.context -->
<g id="node15" class="node">
<title>jaraco.context</title>
<polygon fill="none" stroke="black" points="658.5,-1146 500.5,-1146 500.5,-1110 658.5,-1110 658.5,-1146"/>
<text text-anchor="middle" x="579.5" y="-1124.3" font-family="Times,serif" font-size="14.00">jaraco.context 5.3.0</text>
</g>
<!-- jaraco.context&#45;&gt;backports.tarfile -->
<g id="edge10" class="edge">
<title>jaraco.context&#45;&gt;backports.tarfile</title>
<path fill="none" stroke="black" d="M658.74,-1128C658.74,-1128 748.21,-1128 748.21,-1128"/>
<polygon fill="black" stroke="black" points="748.21,-1131.5 758.21,-1128 748.21,-1124.5 748.21,-1131.5"/>
</g>
<!-- jaraco.functools -->
<g id="node16" class="node">
<title>jaraco.functools</title>
<polygon fill="none" stroke="black" points="664.5,-1038 494.5,-1038 494.5,-1002 664.5,-1002 664.5,-1038"/>
<text text-anchor="middle" x="579.5" y="-1016.3" font-family="Times,serif" font-size="14.00">jaraco.functools 4.0.1</text>
</g>
<!-- jaraco.functools&#45;&gt;more_itertools -->
<g id="edge11" class="edge">
<title>jaraco.functools&#45;&gt;more_itertools</title>
<path fill="none" stroke="black" d="M664.55,-1017.5C718.42,-1017.5 778,-1017.5 778,-1017.5 778,-1017.5 778,-1022.68 778,-1022.68"/>
<polygon fill="black" stroke="black" points="774.5,-1022.68 778,-1032.68 781.5,-1022.68 774.5,-1022.68"/>
</g>
<!-- jeepney -->
<g id="node17" class="node">
<title>jeepney</title>
<polygon fill="none" stroke="black" points="902.5,-992 789.5,-992 789.5,-956 902.5,-956 902.5,-992"/>
<text text-anchor="middle" x="846" y="-970.3" font-family="Times,serif" font-size="14.00">jeepney 0.8.0</text>
</g>
<!-- keyring -->
<g id="node18" class="node">
<title>keyring</title>
<polygon fill="none" stroke="black" points="379.5,-946 259.5,-946 259.5,-910 379.5,-910 379.5,-946"/>
<text text-anchor="middle" x="319.5" y="-924.3" font-family="Times,serif" font-size="14.00">keyring 25.2.1</text>
</g>
<!-- keyring&#45;&gt;importlib_metadata -->
<g id="edge15" class="edge">
<title>keyring&#45;&gt;importlib_metadata</title>
<path fill="none" stroke="black" d="M374,-909.76C374,-880.43 374,-826 374,-826 374,-826 471.87,-826 471.87,-826"/>
<polygon fill="black" stroke="black" points="471.87,-829.5 481.87,-826 471.87,-822.5 471.87,-829.5"/>
</g>
<!-- keyring&#45;&gt;importlib_resources -->
<g id="edge16" class="edge">
<title>keyring&#45;&gt;importlib_resources</title>
<path fill="none" stroke="black" d="M377,-909.72C377,-894.05 377,-874 377,-874 377,-874 470.92,-874 470.92,-874"/>
<polygon fill="black" stroke="black" points="470.92,-877.5 480.92,-874 470.92,-870.5 470.92,-877.5"/>
</g>
<!-- keyring&#45;&gt;jaraco.classes -->
<g id="edge13" class="edge">
<title>keyring&#45;&gt;jaraco.classes</title>
<path fill="none" stroke="black" d="M379.52,-924.4C387.5,-924.4 393,-924.4 393,-924.4 393,-924.4 393,-1074 393,-1074 393,-1074 491.49,-1074 491.49,-1074"/>
<polygon fill="black" stroke="black" points="491.49,-1077.5 501.49,-1074 491.49,-1070.5 491.49,-1077.5"/>
</g>
<!-- keyring&#45;&gt;jaraco.context -->
<g id="edge14" class="edge">
<title>keyring&#45;&gt;jaraco.context</title>
<path fill="none" stroke="black" d="M379.52,-931.6C384.11,-931.6 387,-931.6 387,-931.6 387,-931.6 387,-1128 387,-1128 387,-1128 490.37,-1128 490.37,-1128"/>
<polygon fill="black" stroke="black" points="490.37,-1131.5 500.37,-1128 490.37,-1124.5 490.37,-1131.5"/>
</g>
<!-- keyring&#45;&gt;jaraco.functools -->
<g id="edge17" class="edge">
<title>keyring&#45;&gt;jaraco.functools</title>
<path fill="none" stroke="black" d="M379.69,-917.2C391.33,-917.2 400,-917.2 400,-917.2 400,-917.2 400,-1020 400,-1020 400,-1020 484.48,-1020 484.48,-1020"/>
<polygon fill="black" stroke="black" points="484.48,-1023.5 494.48,-1020 484.48,-1016.5 484.48,-1023.5"/>
</g>
<!-- keyring&#45;&gt;jeepney -->
<g id="edge12" class="edge">
<title>keyring&#45;&gt;jeepney</title>
<path fill="none" stroke="black" d="M320,-946.24C320,-953.43 320,-960 320,-960 320,-960 779.46,-960 779.46,-960"/>
<polygon fill="black" stroke="black" points="779.46,-963.5 789.46,-960 779.46,-956.5 779.46,-963.5"/>
</g>
<!-- secretstorage -->
<g id="node37" class="node">
<title>secretstorage</title>
<polygon fill="none" stroke="black" points="659.5,-946 499.5,-946 499.5,-910 659.5,-910 659.5,-946"/>
<text text-anchor="middle" x="579.5" y="-924.3" font-family="Times,serif" font-size="14.00">SecretStorage 3.3.3</text>
</g>
<!-- keyring&#45;&gt;secretstorage -->
<g id="edge18" class="edge">
<title>keyring&#45;&gt;secretstorage</title>
<path fill="none" stroke="black" d="M379.8,-938.8C379.8,-938.8 489.33,-938.8 489.33,-938.8"/>
<polygon fill="black" stroke="black" points="489.33,-942.3 499.33,-938.8 489.33,-935.3 489.33,-942.3"/>
</g>
<!-- markdown_it_py -->
<g id="node19" class="node">
<title>markdown_it_py</title>
<polygon fill="none" stroke="black" points="664,-298 495,-298 495,-262 664,-262 664,-298"/>
<text text-anchor="middle" x="579.5" y="-276.3" font-family="Times,serif" font-size="14.00">markdown&#45;it&#45;py 3.0.0</text>
</g>
<!-- mdurl -->
<g id="node20" class="node">
<title>mdurl</title>
<polygon fill="none" stroke="black" points="896,-298 796,-298 796,-262 896,-262 896,-298"/>
<text text-anchor="middle" x="846" y="-276.3" font-family="Times,serif" font-size="14.00">mdurl 0.1.2</text>
</g>
<!-- markdown_it_py&#45;&gt;mdurl -->
<g id="edge19" class="edge">
<title>markdown_it_py&#45;&gt;mdurl</title>
<path fill="none" stroke="black" d="M664.19,-280C664.19,-280 785.7,-280 785.7,-280"/>
<polygon fill="black" stroke="black" points="785.7,-283.5 795.7,-280 785.7,-276.5 785.7,-283.5"/>
</g>
<!-- nh3 -->
<g id="node22" class="node">
<title>nh3</title>
<polygon fill="none" stroke="black" points="626,-406 533,-406 533,-370 626,-370 626,-406"/>
<text text-anchor="middle" x="579.5" y="-384.3" font-family="Times,serif" font-size="14.00">nh3 0.2.18</text>
</g>
<!-- pip -->
<g id="node24" class="node">
<title>pip</title>
<polygon fill="none" stroke="black" points="123.5,-500 34.5,-500 34.5,-464 123.5,-464 123.5,-500"/>
<text text-anchor="middle" x="79" y="-478.3" font-family="Times,serif" font-size="14.00">pip 20.0.2</text>
</g>
<!-- pkg_resources -->
<g id="node25" class="node">
<title>pkg_resources</title>
<polygon fill="none" stroke="black" points="158,-554 0,-554 0,-518 158,-518 158,-554"/>
<text text-anchor="middle" x="79" y="-532.3" font-family="Times,serif" font-size="14.00">pkg&#45;resources 0.0.0</text>
</g>
<!-- pkginfo -->
<g id="node26" class="node">
<title>pkginfo</title>
<polygon fill="none" stroke="black" points="379,-446 260,-446 260,-410 379,-410 379,-446"/>
<text text-anchor="middle" x="319.5" y="-424.3" font-family="Times,serif" font-size="14.00">pkginfo 1.11.1</text>
</g>
<!-- pluggy -->
<g id="node27" class="node">
<title>pluggy</title>
<polygon fill="none" stroke="black" points="632.5,-622 526.5,-622 526.5,-586 632.5,-586 632.5,-622"/>
<text text-anchor="middle" x="579.5" y="-600.3" font-family="Times,serif" font-size="14.00">pluggy 1.5.0</text>
</g>
<!-- pygments -->
<g id="node29" class="node">
<title>pygments</title>
<polygon fill="none" stroke="black" points="648,-352 511,-352 511,-316 648,-316 648,-352"/>
<text text-anchor="middle" x="579.5" y="-330.3" font-family="Times,serif" font-size="14.00">pygments 2.18.0</text>
</g>
<!-- pytest -->
<g id="node31" class="node">
<title>pytest</title>
<polygon fill="none" stroke="black" points="370.5,-622 268.5,-622 268.5,-586 370.5,-586 370.5,-622"/>
<text text-anchor="middle" x="319.5" y="-600.3" font-family="Times,serif" font-size="14.00">pytest 8.3.3</text>
</g>
<!-- pytest&#45;&gt;exceptiongroup -->
<g id="edge22" class="edge">
<title>pytest&#45;&gt;exceptiongroup</title>
<path fill="none" stroke="black" d="M370.74,-595C426.25,-595 507,-595 507,-595 507,-595 507,-578.04 507,-578.04"/>
<polygon fill="black" stroke="black" points="510.5,-578.04 507,-568.04 503.5,-578.04 510.5,-578.04"/>
</g>
<!-- pytest&#45;&gt;iniconfig -->
<g id="edge23" class="edge">
<title>pytest&#45;&gt;iniconfig</title>
<path fill="none" stroke="black" d="M320,-585.76C320,-557.66 320,-507 320,-507 320,-507 510.29,-507 510.29,-507"/>
<polygon fill="black" stroke="black" points="510.29,-510.5 520.29,-507 510.29,-503.5 510.29,-510.5"/>
</g>
<!-- pytest&#45;&gt;packaging -->
<g id="edge21" class="edge">
<title>pytest&#45;&gt;packaging</title>
<path fill="none" stroke="black" d="M370.6,-613C430.59,-613 522,-613 522,-613 522,-613 522,-629.96 522,-629.96"/>
<polygon fill="black" stroke="black" points="518.5,-629.96 522,-639.96 525.5,-629.96 518.5,-629.96"/>
</g>
<!-- pytest&#45;&gt;pluggy -->
<g id="edge20" class="edge">
<title>pytest&#45;&gt;pluggy</title>
<path fill="none" stroke="black" d="M370.56,-604C370.56,-604 516.33,-604 516.33,-604"/>
<polygon fill="black" stroke="black" points="516.33,-607.5 526.33,-604 516.33,-600.5 516.33,-607.5"/>
</g>
<!-- pytest&#45;&gt;tomli -->
<g id="edge24" class="edge">
<title>pytest&#45;&gt;tomli</title>
<path fill="none" stroke="black" d="M320,-622.03C320,-651.68 320,-707.5 320,-707.5 320,-707.5 522.21,-707.5 522.21,-707.5"/>
<polygon fill="black" stroke="black" points="522.21,-711 532.21,-707.5 522.21,-704 522.21,-711"/>
</g>
<!-- readme_renderer -->
<g id="node32" class="node">
<title>readme_renderer</title>
<polygon fill="none" stroke="black" points="406.5,-392 232.5,-392 232.5,-356 406.5,-356 406.5,-392"/>
<text text-anchor="middle" x="319.5" y="-370.3" font-family="Times,serif" font-size="14.00">readme&#45;renderer 43.0</text>
</g>
<!-- readme_renderer&#45;&gt;docutils -->
<g id="edge25" class="edge">
<title>readme_renderer&#45;&gt;docutils</title>
<path fill="none" stroke="black" d="M406.78,-384.67C463.13,-384.67 526,-384.67 526,-384.67 526,-384.67 526,-413.86 526,-413.86"/>
<polygon fill="black" stroke="black" points="522.5,-413.86 526,-423.86 529.5,-413.86 522.5,-413.86"/>
</g>
<!-- readme_renderer&#45;&gt;nh3 -->
<g id="edge27" class="edge">
<title>readme_renderer&#45;&gt;nh3</title>
<path fill="none" stroke="black" d="M406.8,-377.33C406.8,-377.33 522.92,-377.33 522.92,-377.33"/>
<polygon fill="black" stroke="black" points="522.92,-380.83 532.92,-377.33 522.92,-373.83 522.92,-380.83"/>
</g>
<!-- readme_renderer&#45;&gt;pygments -->
<g id="edge26" class="edge">
<title>readme_renderer&#45;&gt;pygments</title>
<path fill="none" stroke="black" d="M406.67,-363C458.81,-363 515,-363 515,-363 515,-363 515,-361.92 515,-361.92"/>
<polygon fill="black" stroke="black" points="518.5,-362.2 515,-352.2 511.5,-362.2 518.5,-362.2"/>
</g>
<!-- requests -->
<g id="node33" class="node">
<title>requests</title>
<polygon fill="none" stroke="black" points="643.5,-125 515.5,-125 515.5,-89 643.5,-89 643.5,-125"/>
<text text-anchor="middle" x="579.5" y="-103.3" font-family="Times,serif" font-size="14.00">requests 2.32.3</text>
</g>
<!-- requests&#45;&gt;certifi -->
<g id="edge30" class="edge">
<title>requests&#45;&gt;certifi</title>
<path fill="none" stroke="black" d="M643.67,-116.5C643.67,-116.5 772.84,-116.5 772.84,-116.5"/>
<polygon fill="black" stroke="black" points="772.84,-120 782.84,-116.5 772.84,-113 772.84,-120"/>
</g>
<!-- requests&#45;&gt;charset_normalizer -->
<g id="edge29" class="edge">
<title>requests&#45;&gt;charset_normalizer</title>
<path fill="none" stroke="black" d="M643.85,-99C693.94,-99 755,-99 755,-99 755,-99 755,-98.12 755,-98.12"/>
<polygon fill="black" stroke="black" points="758.5,-100.16 755,-90.16 751.5,-100.16 758.5,-100.16"/>
</g>
<!-- requests&#45;&gt;idna -->
<g id="edge28" class="edge">
<title>requests&#45;&gt;idna</title>
<path fill="none" stroke="black" d="M580,-88.99C580,-62.98 580,-18 580,-18 580,-18 798.73,-18 798.73,-18"/>
<polygon fill="black" stroke="black" points="798.73,-21.5 808.73,-18 798.73,-14.5 798.73,-21.5"/>
</g>
<!-- urllib3 -->
<g id="node42" class="node">
<title>urllib3</title>
<polygon fill="none" stroke="black" points="898,-198 794,-198 794,-162 898,-162 898,-198"/>
<text text-anchor="middle" x="846" y="-176.3" font-family="Times,serif" font-size="14.00">urllib3 2.2.2</text>
</g>
<!-- requests&#45;&gt;urllib3 -->
<g id="edge31" class="edge">
<title>requests&#45;&gt;urllib3</title>
<path fill="none" stroke="black" d="M580,-125.31C580,-145.15 580,-174 580,-174 580,-174 783.76,-174 783.76,-174"/>
<polygon fill="black" stroke="black" points="783.76,-177.5 793.76,-174 783.76,-170.5 783.76,-177.5"/>
</g>
<!-- requests_toolbelt -->
<g id="node34" class="node">
<title>requests_toolbelt</title>
<polygon fill="none" stroke="black" points="409,-152 230,-152 230,-116 409,-116 409,-152"/>
<text text-anchor="middle" x="319.5" y="-130.3" font-family="Times,serif" font-size="14.00">requests&#45;toolbelt 1.0.0</text>
</g>
<!-- requests_toolbelt&#45;&gt;requests -->
<g id="edge32" class="edge">
<title>requests_toolbelt&#45;&gt;requests</title>
<path fill="none" stroke="black" d="M409.34,-120.5C409.34,-120.5 505.48,-120.5 505.48,-120.5"/>
<polygon fill="black" stroke="black" points="505.48,-124 515.48,-120.5 505.48,-117 505.48,-124"/>
</g>
<!-- rfc3986 -->
<g id="node35" class="node">
<title>rfc3986</title>
<polygon fill="none" stroke="black" points="376,-1000 263,-1000 263,-964 376,-964 376,-1000"/>
<text text-anchor="middle" x="319.5" y="-978.3" font-family="Times,serif" font-size="14.00">rfc3986 2.0.0</text>
</g>
<!-- rich -->
<g id="node36" class="node">
<title>rich</title>
<polygon fill="none" stroke="black" points="366.5,-325 272.5,-325 272.5,-289 366.5,-289 366.5,-325"/>
<text text-anchor="middle" x="319.5" y="-303.3" font-family="Times,serif" font-size="14.00">rich 13.7.1</text>
</g>
<!-- rich&#45;&gt;markdown_it_py -->
<g id="edge34" class="edge">
<title>rich&#45;&gt;markdown_it_py</title>
<path fill="none" stroke="black" d="M366.58,-295C366.58,-295 484.91,-295 484.91,-295"/>
<polygon fill="black" stroke="black" points="484.91,-298.5 494.91,-295 484.91,-291.5 484.91,-298.5"/>
</g>
<!-- rich&#45;&gt;pygments -->
<g id="edge35" class="edge">
<title>rich&#45;&gt;pygments</title>
<path fill="none" stroke="black" d="M366.58,-320.5C366.58,-320.5 500.74,-320.5 500.74,-320.5"/>
<polygon fill="black" stroke="black" points="500.74,-324 510.74,-320.5 500.74,-317 500.74,-324"/>
</g>
<!-- typing_extensions -->
<g id="node41" class="node">
<title>typing_extensions</title>
<polygon fill="none" stroke="black" points="676,-244 483,-244 483,-208 676,-208 676,-244"/>
<text text-anchor="middle" x="579.5" y="-222.3" font-family="Times,serif" font-size="14.00">typing&#45;extensions 4.12.2</text>
</g>
<!-- rich&#45;&gt;typing_extensions -->
<g id="edge33" class="edge">
<title>rich&#45;&gt;typing_extensions</title>
<path fill="none" stroke="black" d="M366.6,-292C416.15,-292 487,-292 487,-292 487,-292 487,-254.03 487,-254.03"/>
<polygon fill="black" stroke="black" points="490.5,-254.03 487,-244.03 483.5,-254.03 490.5,-254.03"/>
</g>
<!-- secretstorage&#45;&gt;cryptography -->
<g id="edge37" class="edge">
<title>secretstorage&#45;&gt;cryptography</title>
<path fill="none" stroke="black" d="M659.82,-924C659.82,-924 754.92,-924 754.92,-924"/>
<polygon fill="black" stroke="black" points="754.92,-927.5 764.92,-924 754.92,-920.5 754.92,-927.5"/>
</g>
<!-- secretstorage&#45;&gt;jeepney -->
<g id="edge36" class="edge">
<title>secretstorage&#45;&gt;jeepney</title>
<path fill="none" stroke="black" d="M659.82,-942C738.29,-942 846,-942 846,-942 846,-942 846,-945.76 846,-945.76"/>
<polygon fill="black" stroke="black" points="842.5,-945.76 846,-955.76 849.5,-945.76 842.5,-945.76"/>
</g>
<!-- setuptools -->
<g id="node38" class="node">
<title>setuptools</title>
<polygon fill="none" stroke="black" points="149,-608 9,-608 9,-572 149,-572 149,-608"/>
<text text-anchor="middle" x="79" y="-586.3" font-family="Times,serif" font-size="14.00">setuptools 44.0.0</text>
</g>
<!-- twine -->
<g id="node40" class="node">
<title>twine</title>
<polygon fill="none" stroke="black" points="127.5,-392 30.5,-392 30.5,-356 127.5,-356 127.5,-392"/>
<text text-anchor="middle" x="79" y="-370.3" font-family="Times,serif" font-size="14.00">twine 5.1.1</text>
</g>
<!-- twine&#45;&gt;importlib_metadata -->
<g id="edge38" class="edge">
<title>twine&#45;&gt;importlib_metadata</title>
<path fill="none" stroke="black" d="M127.77,-368C165.73,-368 212,-368 212,-368 212,-368 212,-814 212,-814 212,-814 471.98,-814 471.98,-814"/>
<polygon fill="black" stroke="black" points="471.98,-817.5 481.98,-814 471.98,-810.5 471.98,-817.5"/>
</g>
<!-- twine&#45;&gt;keyring -->
<g id="edge40" class="edge">
<title>twine&#45;&gt;keyring</title>
<path fill="none" stroke="black" d="M127.77,-374C159.11,-374 194,-374 194,-374 194,-374 194,-928 194,-928 194,-928 249.32,-928 249.32,-928"/>
<polygon fill="black" stroke="black" points="249.32,-931.5 259.32,-928 249.32,-924.5 249.32,-931.5"/>
</g>
<!-- twine&#45;&gt;pkginfo -->
<g id="edge42" class="edge">
<title>twine&#45;&gt;pkginfo</title>
<path fill="none" stroke="black" d="M127.82,-386C140.66,-386 151,-386 151,-386 151,-386 151,-428 151,-428 151,-428 249.62,-428 249.62,-428"/>
<polygon fill="black" stroke="black" points="249.62,-431.5 259.62,-428 249.62,-424.5 249.62,-431.5"/>
</g>
<!-- twine&#45;&gt;readme_renderer -->
<g id="edge44" class="edge">
<title>twine&#45;&gt;readme_renderer</title>
<path fill="none" stroke="black" d="M127.67,-362C127.67,-362 222.47,-362 222.47,-362"/>
<polygon fill="black" stroke="black" points="222.47,-365.5 232.47,-362 222.47,-358.5 222.47,-365.5"/>
</g>
<!-- twine&#45;&gt;requests -->
<g id="edge41" class="edge">
<title>twine&#45;&gt;requests</title>
<path fill="none" stroke="black" d="M50,-355.76C50,-294.89 50,-102.5 50,-102.5 50,-102.5 505.37,-102.5 505.37,-102.5"/>
<polygon fill="black" stroke="black" points="505.37,-106 515.37,-102.5 505.37,-99 505.37,-106"/>
</g>
<!-- twine&#45;&gt;requests_toolbelt -->
<g id="edge39" class="edge">
<title>twine&#45;&gt;requests_toolbelt</title>
<path fill="none" stroke="black" d="M70,-355.96C70,-300.15 70,-134 70,-134 70,-134 219.78,-134 219.78,-134"/>
<polygon fill="black" stroke="black" points="219.78,-137.5 229.78,-134 219.78,-130.5 219.78,-137.5"/>
</g>
<!-- twine&#45;&gt;rfc3986 -->
<g id="edge43" class="edge">
<title>twine&#45;&gt;rfc3986</title>
<path fill="none" stroke="black" d="M127.5,-380C151.75,-380 176,-380 176,-380 176,-380 176,-982 176,-982 176,-982 252.79,-982 252.79,-982"/>
<polygon fill="black" stroke="black" points="252.79,-985.5 262.79,-982 252.78,-978.5 252.79,-985.5"/>
</g>
<!-- twine&#45;&gt;rich -->
<g id="edge46" class="edge">
<title>twine&#45;&gt;rich</title>
<path fill="none" stroke="black" d="M109,-355.69C109,-335.85 109,-307 109,-307 109,-307 262.26,-307 262.26,-307"/>
<polygon fill="black" stroke="black" points="262.26,-310.5 272.26,-307 262.26,-303.5 262.26,-310.5"/>
</g>
<!-- twine&#45;&gt;urllib3 -->
<g id="edge45" class="edge">
<title>twine&#45;&gt;urllib3</title>
<path fill="none" stroke="black" d="M89,-355.97C89,-308.92 89,-186 89,-186 89,-186 783.97,-186 783.97,-186"/>
<polygon fill="black" stroke="black" points="783.97,-189.5 793.97,-186 783.97,-182.5 783.97,-189.5"/>
</g>
</g>
</svg>
