<?xml version="1.0" encoding="UTF-8" standalone="no"?>
<!-- Created with Inkscape (http://www.inkscape.org/) -->

<svg
   width="48mm"
   height="48mm"
   viewBox="0 0 48 48"
   version="1.1"
   id="svg1"
   inkscape:version="1.3.2 (091e20ef0f, 2023-11-25)"
   sodipodi:docname="design-system-logo.svg"
   inkscape:export-filename="design-system-logo-square.svg"
   inkscape:export-xdpi="270.93329"
   inkscape:export-ydpi="270.93329"
   xmlns:inkscape="http://www.inkscape.org/namespaces/inkscape"
   xmlns:sodipodi="http://sodipodi.sourceforge.net/DTD/sodipodi-0.dtd"
   xmlns="http://www.w3.org/2000/svg"
   xmlns:svg="http://www.w3.org/2000/svg">
  <sodipodi:namedview
     id="namedview1"
     pagecolor="#ffffff"
     bordercolor="#000000"
     borderopacity="0.25"
     inkscape:showpageshadow="2"
     inkscape:pageopacity="0.0"
     inkscape:pagecheckerboard="0"
     inkscape:deskcolor="#d1d1d1"
     inkscape:document-units="mm"
     inkscape:zoom="2.8578563"
     inkscape:cx="129.11776"
     inkscape:cy="115.47116"
     inkscape:window-width="1920"
     inkscape:window-height="1008"
     inkscape:window-x="0"
     inkscape:window-y="0"
     inkscape:window-maximized="1"
     inkscape:current-layer="layer1" />
  <defs
     id="defs1" />
  <g
     inkscape:label="Layer 1"
     inkscape:groupmode="layer"
     id="layer1"
     transform="translate(-29.897917,-78.316666)">
    <rect
       style="fill:#000000;fill-opacity:1;stroke:none;stroke-width:1.73182;stroke-opacity:1"
       id="rect2"
       width="48"
       height="48"
       x="29.897917"
       y="78.316666" />
    <path
       d="m 68.617508,117.35392 c 6.577218,0 11.239547,-5.07858 11.239547,-11.36436 0,-6.285786 -4.662329,-11.405992 -11.239547,-11.405992 -3.122095,0 -5.744656,1.207203 -7.243263,2.7058 V 87.715 l -4.45419,0.749298 v 28.265212 h 4.537447 l -0.04163,-2.20627 c 1.41535,1.45697 3.704885,2.83068 7.201633,2.83068 z m -0.333023,-3.99626 c -3.996283,0 -7.160006,-2.7058 -7.160006,-7.40973 0,-4.6623 3.163723,-7.368104 7.160006,-7.368104 4.037912,0 7.201637,3.288594 7.201637,7.368104 0,4.07952 -3.163725,7.40973 -7.201637,7.40973 z"
       id="text5-2"
       style="font-size:157.333px;font-family:Lack;-inkscape-font-specification:'Lack, Normal';fill:#ffffff;stroke-width:1.5875"
       aria-label="b" />
    <path
       d="m 46.512489,127.05665 c 6.285783,0 8.616931,-2.20627 8.616931,-2.20627 v -4.03789 c -0.04163,0 -3.246958,2.2479 -8.533675,2.2479 -4.870439,0 -7.20159,-2.9972 -7.701121,-6.32741 h 17.192233 v -2.08139 c 0,-5.20346 -3.621608,-10.36529 -9.865762,-10.36529 -6.66043,0 -11.614123,4.91207 -11.614123,11.36436 0,6.20253 4.329279,11.40599 11.905517,11.40599 z m -7.409728,-13.8204 c 0.249767,-1.6651 1.831618,-5.28671 6.535547,-5.28671 4.703929,0 5.78625,3.62161 5.95276,5.28671 z"
       id="text5-5"
       style="font-size:157.333px;font-family:Lack;-inkscape-font-specification:'Lack, Normal';fill:#ffffff;stroke-width:1.5875"
       aria-label="e" />
    <path
       d="m 35.870712,103.46178 6.366946,-15.578693 6.592723,15.578693 9.031132,-25.196845 h -5.10259 L 48.469138,91.766473 42.282815,77.316666 36.593204,91.721317 31.94217,78.264935 h -5.102587 z"
       id="text5-6"
       style="font-size:170.667px;font-family:Lack;-inkscape-font-specification:'Lack, Normal';fill:#ffffff;stroke-width:1.5875"
       aria-label="w" />
  </g>
</svg>
