<?xml version="1.0" encoding="utf-8" standalone="no"?>
<!DOCTYPE svg PUBLIC "-//W3C//DTD SVG 1.1//EN"
  "http://www.w3.org/Graphics/SVG/1.1/DTD/svg11.dtd">
<svg xmlns:xlink="http://www.w3.org/1999/xlink" width="476.2224pt" height="142.86672pt" viewBox="0 0 476.2224 142.86672" xmlns="http://www.w3.org/2000/svg" version="1.1">
 <metadata>
  <rdf:RDF xmlns:dc="http://purl.org/dc/elements/1.1/" xmlns:cc="http://creativecommons.org/ns#" xmlns:rdf="http://www.w3.org/1999/02/22-rdf-syntax-ns#">
   <cc:Work>
    <dc:type rdf:resource="http://purl.org/dc/dcmitype/StillImage"/>
    <dc:date>2024-10-19T22:25:06.726460</dc:date>
    <dc:format>image/svg+xml</dc:format>
    <dc:creator>
     <cc:Agent>
      <dc:title>Matplotlib v3.8.4, https://matplotlib.org/</dc:title>
     </cc:Agent>
    </dc:creator>
   </cc:Work>
  </rdf:RDF>
 </metadata>
 <defs>
  <style type="text/css">*{stroke-linejoin: round; stroke-linecap: butt}</style>
 </defs>
 <g id="figure_1">
  <g id="patch_1">
   <path d="M 0 142.86672 
L 476.2224 142.86672 
L 476.2224 0 
L 0 0 
L 0 142.86672 
z
" style="fill: none"/>
  </g>
  <g id="axes_1"/>
  <g id="axes_2">
   <g id="patch_2">
    <path d="M 416.256603 125.00838 
L 421.649821 125.00838 
L 421.649821 17.144006 
L 416.256603 17.144006 
L 416.256603 125.00838 
z
" style="fill: none"/>
   </g>
   <g id="QuadMesh_1">
    <path d="M 416.256603 125.00838 
L 421.649821 125.00838 
L 421.649821 115.202528 
L 416.256603 115.202528 
L 416.256603 125.00838 
" clip-path="url(#p6d5296bca6)" style="fill: #e2e418"/>
    <path d="M 416.256603 115.202528 
L 421.649821 115.202528 
L 421.649821 105.396676 
L 416.256603 105.396676 
L 416.256603 115.202528 
" clip-path="url(#p6d5296bca6)" style="fill: #a5db36"/>
    <path d="M 416.256603 105.396676 
L 421.649821 105.396676 
L 421.649821 95.590824 
L 416.256603 95.590824 
L 416.256603 105.396676 
" clip-path="url(#p6d5296bca6)" style="fill: #69cd5b"/>
    <path d="M 416.256603 95.590824 
L 421.649821 95.590824 
L 421.649821 85.784971 
L 416.256603 85.784971 
L 416.256603 95.590824 
" clip-path="url(#p6d5296bca6)" style="fill: #3bbb75"/>
    <path d="M 416.256603 85.784971 
L 421.649821 85.784971 
L 421.649821 75.979119 
L 416.256603 75.979119 
L 416.256603 85.784971 
" clip-path="url(#p6d5296bca6)" style="fill: #21a685"/>
    <path d="M 416.256603 75.979119 
L 421.649821 75.979119 
L 421.649821 66.173267 
L 416.256603 66.173267 
L 416.256603 75.979119 
" clip-path="url(#p6d5296bca6)" style="fill: #21908d"/>
    <path d="M 416.256603 66.173267 
L 421.649821 66.173267 
L 421.649821 56.367415 
L 416.256603 56.367415 
L 416.256603 66.173267 
" clip-path="url(#p6d5296bca6)" style="fill: #297a8e"/>
    <path d="M 416.256603 56.367415 
L 421.649821 56.367415 
L 421.649821 46.561563 
L 416.256603 46.561563 
L 416.256603 56.367415 
" clip-path="url(#p6d5296bca6)" style="fill: #32648e"/>
    <path d="M 416.256603 46.561563 
L 421.649821 46.561563 
L 421.649821 36.755711 
L 416.256603 36.755711 
L 416.256603 46.561563 
" clip-path="url(#p6d5296bca6)" style="fill: #3e4c8a"/>
    <path d="M 416.256603 36.755711 
L 421.649821 36.755711 
L 421.649821 26.949859 
L 416.256603 26.949859 
L 416.256603 36.755711 
" clip-path="url(#p6d5296bca6)" style="fill: #472f7d"/>
    <path d="M 416.256603 26.949859 
L 421.649821 26.949859 
L 421.649821 17.144006 
L 416.256603 17.144006 
L 416.256603 26.949859 
" clip-path="url(#p6d5296bca6)" style="fill: #471164"/>
   </g>
   <g id="matplotlib.axis_1"/>
   <g id="matplotlib.axis_2">
    <g id="ytick_1">
     <g id="line2d_1">
      <defs>
       <path id="m840e412b42" d="M 0 0 
L 3.5 0 
" style="stroke: #000000; stroke-width: 0.8"/>
      </defs>
      <g>
       <use xlink:href="#m840e412b42" x="421.649821" y="125.00838" style="stroke: #000000; stroke-width: 0.8"/>
      </g>
     </g>
     <g id="text_1">
      <!-- 1 -->
      <g transform="translate(428.649821 128.945177) scale(0.11 -0.11)">
       <defs>
        <path id="ArialMT-31" d="M 2384 0 
L 1822 0 
L 1822 3584 
Q 1619 3391 1289 3197 
Q 959 3003 697 2906 
L 697 3450 
Q 1169 3672 1522 3987 
Q 1875 4303 2022 4600 
L 2384 4600 
L 2384 0 
z
" transform="scale(0.015625)"/>
       </defs>
       <use xlink:href="#ArialMT-31"/>
      </g>
     </g>
    </g>
    <g id="ytick_2">
     <g id="line2d_2">
      <g>
       <use xlink:href="#m840e412b42" x="421.649821" y="98.042287" style="stroke: #000000; stroke-width: 0.8"/>
      </g>
     </g>
     <g id="text_2">
      <!-- 2 -->
      <g transform="translate(428.649821 101.979083) scale(0.11 -0.11)">
       <defs>
        <path id="ArialMT-32" d="M 3222 541 
L 3222 0 
L 194 0 
Q 188 203 259 391 
Q 375 700 629 1000 
Q 884 1300 1366 1694 
Q 2113 2306 2375 2664 
Q 2638 3022 2638 3341 
Q 2638 3675 2398 3904 
Q 2159 4134 1775 4134 
Q 1369 4134 1125 3890 
Q 881 3647 878 3216 
L 300 3275 
Q 359 3922 746 4261 
Q 1134 4600 1788 4600 
Q 2447 4600 2831 4234 
Q 3216 3869 3216 3328 
Q 3216 3053 3103 2787 
Q 2991 2522 2730 2228 
Q 2469 1934 1863 1422 
Q 1356 997 1212 845 
Q 1069 694 975 541 
L 3222 541 
z
" transform="scale(0.015625)"/>
       </defs>
       <use xlink:href="#ArialMT-32"/>
      </g>
     </g>
    </g>
    <g id="ytick_3">
     <g id="line2d_3">
      <g>
       <use xlink:href="#m840e412b42" x="421.649821" y="71.076193" style="stroke: #000000; stroke-width: 0.8"/>
      </g>
     </g>
     <g id="text_3">
      <!-- 3 -->
      <g transform="translate(428.649821 75.01299) scale(0.11 -0.11)">
       <defs>
        <path id="ArialMT-33" d="M 269 1209 
L 831 1284 
Q 928 806 1161 595 
Q 1394 384 1728 384 
Q 2125 384 2398 659 
Q 2672 934 2672 1341 
Q 2672 1728 2419 1979 
Q 2166 2231 1775 2231 
Q 1616 2231 1378 2169 
L 1441 2663 
Q 1497 2656 1531 2656 
Q 1891 2656 2178 2843 
Q 2466 3031 2466 3422 
Q 2466 3731 2256 3934 
Q 2047 4138 1716 4138 
Q 1388 4138 1169 3931 
Q 950 3725 888 3313 
L 325 3413 
Q 428 3978 793 4289 
Q 1159 4600 1703 4600 
Q 2078 4600 2393 4439 
Q 2709 4278 2876 4000 
Q 3044 3722 3044 3409 
Q 3044 3113 2884 2869 
Q 2725 2625 2413 2481 
Q 2819 2388 3044 2092 
Q 3269 1797 3269 1353 
Q 3269 753 2831 336 
Q 2394 -81 1725 -81 
Q 1122 -81 723 278 
Q 325 638 269 1209 
z
" transform="scale(0.015625)"/>
       </defs>
       <use xlink:href="#ArialMT-33"/>
      </g>
     </g>
    </g>
    <g id="ytick_4">
     <g id="line2d_4">
      <g>
       <use xlink:href="#m840e412b42" x="421.649821" y="44.1101" style="stroke: #000000; stroke-width: 0.8"/>
      </g>
     </g>
     <g id="text_4">
      <!-- 4 -->
      <g transform="translate(428.649821 48.046897) scale(0.11 -0.11)">
       <defs>
        <path id="ArialMT-34" d="M 2069 0 
L 2069 1097 
L 81 1097 
L 81 1613 
L 2172 4581 
L 2631 4581 
L 2631 1613 
L 3250 1613 
L 3250 1097 
L 2631 1097 
L 2631 0 
L 2069 0 
z
M 2069 1613 
L 2069 3678 
L 634 1613 
L 2069 1613 
z
" transform="scale(0.015625)"/>
       </defs>
       <use xlink:href="#ArialMT-34"/>
      </g>
     </g>
    </g>
    <g id="ytick_5">
     <g id="line2d_5">
      <g>
       <use xlink:href="#m840e412b42" x="421.649821" y="17.144006" style="stroke: #000000; stroke-width: 0.8"/>
      </g>
     </g>
     <g id="text_5">
      <!-- 5 -->
      <g transform="translate(428.649821 21.080803) scale(0.11 -0.11)">
       <defs>
        <path id="ArialMT-35" d="M 266 1200 
L 856 1250 
Q 922 819 1161 601 
Q 1400 384 1738 384 
Q 2144 384 2425 690 
Q 2706 997 2706 1503 
Q 2706 1984 2436 2262 
Q 2166 2541 1728 2541 
Q 1456 2541 1237 2417 
Q 1019 2294 894 2097 
L 366 2166 
L 809 4519 
L 3088 4519 
L 3088 3981 
L 1259 3981 
L 1013 2750 
Q 1425 3038 1878 3038 
Q 2478 3038 2890 2622 
Q 3303 2206 3303 1553 
Q 3303 931 2941 478 
Q 2500 -78 1738 -78 
Q 1113 -78 717 272 
Q 322 622 266 1200 
z
" transform="scale(0.015625)"/>
       </defs>
       <use xlink:href="#ArialMT-35"/>
      </g>
     </g>
    </g>
   </g>
   <g id="LineCollection_1"/>
   <g id="patch_3">
    <path d="M 416.256603 125.00838 
L 418.953212 125.00838 
L 421.649821 125.00838 
L 421.649821 17.144006 
L 418.953212 17.144006 
L 416.256603 17.144006 
L 416.256603 125.00838 
z
" style="fill: none; stroke: #000000; stroke-width: 0.8; stroke-linejoin: miter; stroke-linecap: square"/>
   </g>
   <g id="text_6">
    <!-- MSP -->
    <g transform="translate(405.951025 -4.200994) scale(0.12 -0.12)">
     <defs>
      <path id="ArialMT-4d" d="M 475 0 
L 475 4581 
L 1388 4581 
L 2472 1338 
Q 2622 884 2691 659 
Q 2769 909 2934 1394 
L 4031 4581 
L 4847 4581 
L 4847 0 
L 4263 0 
L 4263 3834 
L 2931 0 
L 2384 0 
L 1059 3900 
L 1059 0 
L 475 0 
z
" transform="scale(0.015625)"/>
      <path id="ArialMT-53" d="M 288 1472 
L 859 1522 
Q 900 1178 1048 958 
Q 1197 738 1509 602 
Q 1822 466 2213 466 
Q 2559 466 2825 569 
Q 3091 672 3220 851 
Q 3350 1031 3350 1244 
Q 3350 1459 3225 1620 
Q 3100 1781 2813 1891 
Q 2628 1963 1997 2114 
Q 1366 2266 1113 2400 
Q 784 2572 623 2826 
Q 463 3081 463 3397 
Q 463 3744 659 4045 
Q 856 4347 1234 4503 
Q 1613 4659 2075 4659 
Q 2584 4659 2973 4495 
Q 3363 4331 3572 4012 
Q 3781 3694 3797 3291 
L 3216 3247 
Q 3169 3681 2898 3903 
Q 2628 4125 2100 4125 
Q 1550 4125 1298 3923 
Q 1047 3722 1047 3438 
Q 1047 3191 1225 3031 
Q 1400 2872 2139 2705 
Q 2878 2538 3153 2413 
Q 3553 2228 3743 1945 
Q 3934 1663 3934 1294 
Q 3934 928 3725 604 
Q 3516 281 3123 101 
Q 2731 -78 2241 -78 
Q 1619 -78 1198 103 
Q 778 284 539 648 
Q 300 1013 288 1472 
z
" transform="scale(0.015625)"/>
      <path id="ArialMT-50" d="M 494 0 
L 494 4581 
L 2222 4581 
Q 2678 4581 2919 4538 
Q 3256 4481 3484 4323 
Q 3713 4166 3852 3881 
Q 3991 3597 3991 3256 
Q 3991 2672 3619 2267 
Q 3247 1863 2275 1863 
L 1100 1863 
L 1100 0 
L 494 0 
z
M 1100 2403 
L 2284 2403 
Q 2872 2403 3119 2622 
Q 3366 2841 3366 3238 
Q 3366 3525 3220 3729 
Q 3075 3934 2838 4000 
Q 2684 4041 2272 4041 
L 1100 4041 
L 1100 2403 
z
" transform="scale(0.015625)"/>
     </defs>
     <use xlink:href="#ArialMT-4d"/>
     <use xlink:href="#ArialMT-53" x="83.300781"/>
     <use xlink:href="#ArialMT-50" x="150"/>
    </g>
    <!-- [$\mathrm{USD} \cdot \mathrm{kg}^{\mathrm{-1}}$] -->
    <g transform="translate(384.813212 11.144006) scale(0.12 -0.12)">
     <defs>
      <path id="ArialMT-5b" d="M 434 -1272 
L 434 4581 
L 1675 4581 
L 1675 4116 
L 997 4116 
L 997 -806 
L 1675 -806 
L 1675 -1272 
L 434 -1272 
z
" transform="scale(0.015625)"/>
      <path id="DejaVuSans-55" d="M 556 4666 
L 1191 4666 
L 1191 1831 
Q 1191 1081 1462 751 
Q 1734 422 2344 422 
Q 2950 422 3222 751 
Q 3494 1081 3494 1831 
L 3494 4666 
L 4128 4666 
L 4128 1753 
Q 4128 841 3676 375 
Q 3225 -91 2344 -91 
Q 1459 -91 1007 375 
Q 556 841 556 1753 
L 556 4666 
z
" transform="scale(0.015625)"/>
      <path id="DejaVuSans-53" d="M 3425 4513 
L 3425 3897 
Q 3066 4069 2747 4153 
Q 2428 4238 2131 4238 
Q 1616 4238 1336 4038 
Q 1056 3838 1056 3469 
Q 1056 3159 1242 3001 
Q 1428 2844 1947 2747 
L 2328 2669 
Q 3034 2534 3370 2195 
Q 3706 1856 3706 1288 
Q 3706 609 3251 259 
Q 2797 -91 1919 -91 
Q 1588 -91 1214 -16 
Q 841 59 441 206 
L 441 856 
Q 825 641 1194 531 
Q 1563 422 1919 422 
Q 2459 422 2753 634 
Q 3047 847 3047 1241 
Q 3047 1584 2836 1778 
Q 2625 1972 2144 2069 
L 1759 2144 
Q 1053 2284 737 2584 
Q 422 2884 422 3419 
Q 422 4038 858 4394 
Q 1294 4750 2059 4750 
Q 2388 4750 2728 4690 
Q 3069 4631 3425 4513 
z
" transform="scale(0.015625)"/>
      <path id="DejaVuSans-44" d="M 1259 4147 
L 1259 519 
L 2022 519 
Q 2988 519 3436 956 
Q 3884 1394 3884 2338 
Q 3884 3275 3436 3711 
Q 2988 4147 2022 4147 
L 1259 4147 
z
M 628 4666 
L 1925 4666 
Q 3281 4666 3915 4102 
Q 4550 3538 4550 2338 
Q 4550 1131 3912 565 
Q 3275 0 1925 0 
L 628 0 
L 628 4666 
z
" transform="scale(0.015625)"/>
      <path id="DejaVuSans-22c5" d="M 684 2619 
L 1344 2619 
L 1344 1825 
L 684 1825 
L 684 2619 
z
" transform="scale(0.015625)"/>
      <path id="DejaVuSans-6b" d="M 581 4863 
L 1159 4863 
L 1159 1991 
L 2875 3500 
L 3609 3500 
L 1753 1863 
L 3688 0 
L 2938 0 
L 1159 1709 
L 1159 0 
L 581 0 
L 581 4863 
z
" transform="scale(0.015625)"/>
      <path id="DejaVuSans-67" d="M 2906 1791 
Q 2906 2416 2648 2759 
Q 2391 3103 1925 3103 
Q 1463 3103 1205 2759 
Q 947 2416 947 1791 
Q 947 1169 1205 825 
Q 1463 481 1925 481 
Q 2391 481 2648 825 
Q 2906 1169 2906 1791 
z
M 3481 434 
Q 3481 -459 3084 -895 
Q 2688 -1331 1869 -1331 
Q 1566 -1331 1297 -1286 
Q 1028 -1241 775 -1147 
L 775 -588 
Q 1028 -725 1275 -790 
Q 1522 -856 1778 -856 
Q 2344 -856 2625 -561 
Q 2906 -266 2906 331 
L 2906 616 
Q 2728 306 2450 153 
Q 2172 0 1784 0 
Q 1141 0 747 490 
Q 353 981 353 1791 
Q 353 2603 747 3093 
Q 1141 3584 1784 3584 
Q 2172 3584 2450 3431 
Q 2728 3278 2906 2969 
L 2906 3500 
L 3481 3500 
L 3481 434 
z
" transform="scale(0.015625)"/>
      <path id="DejaVuSans-2212" d="M 678 2272 
L 4684 2272 
L 4684 1741 
L 678 1741 
L 678 2272 
z
" transform="scale(0.015625)"/>
      <path id="DejaVuSans-31" d="M 794 531 
L 1825 531 
L 1825 4091 
L 703 3866 
L 703 4441 
L 1819 4666 
L 2450 4666 
L 2450 531 
L 3481 531 
L 3481 0 
L 794 0 
L 794 531 
z
" transform="scale(0.015625)"/>
      <path id="ArialMT-5d" d="M 1363 -1272 
L 122 -1272 
L 122 -806 
L 800 -806 
L 800 4116 
L 122 4116 
L 122 4581 
L 1363 4581 
L 1363 -1272 
z
" transform="scale(0.015625)"/>
     </defs>
     <use xlink:href="#ArialMT-5b" transform="translate(0 0.684375)"/>
     <use xlink:href="#DejaVuSans-55" transform="translate(27.783203 0.684375)"/>
     <use xlink:href="#DejaVuSans-53" transform="translate(100.976562 0.684375)"/>
     <use xlink:href="#DejaVuSans-44" transform="translate(164.453125 0.684375)"/>
     <use xlink:href="#DejaVuSans-22c5" transform="translate(260.9375 0.684375)"/>
     <use xlink:href="#DejaVuSans-6b" transform="translate(312.207031 0.684375)"/>
     <use xlink:href="#DejaVuSans-67" transform="translate(370.117188 0.684375)"/>
     <use xlink:href="#DejaVuSans-2212" transform="translate(434.550781 38.965625) scale(0.7)"/>
     <use xlink:href="#DejaVuSans-31" transform="translate(493.203125 38.965625) scale(0.7)"/>
     <use xlink:href="#ArialMT-5d" transform="translate(540.473633 0.684375)"/>
    </g>
   </g>
  </g>
  <g id="axes_3">
   <g id="patch_4">
    <path d="M 59.5278 125.00838 
L 158.276258 125.00838 
L 158.276258 17.144006 
L 59.5278 17.144006 
L 59.5278 125.00838 
z
" style="fill: none"/>
   </g>
   <g id="PathCollection_1">
    <defs>
     <path id="mb1e1e8f34a" d="M 158.276258 -61.551956 
L 158.276258 -65.798062 
L 158.276258 -77.782992 
L 158.276258 -89.767922 
L 158.276258 -101.752853 
L 158.276258 -113.737783 
L 158.276258 -125.722714 
L 147.304207 -125.722714 
L 136.332156 -125.722714 
L 134.732813 -125.722714 
L 134.925004 -113.737783 
L 135.54338 -101.752853 
L 136.332156 -94.510762 
L 137.458753 -89.767922 
L 142.058777 -77.782992 
L 147.304207 -68.697281 
L 150.723437 -65.798062 
z
" style="stroke: #e2e418"/>
    </defs>
    <g clip-path="url(#p7285d65d7a)">
     <use xlink:href="#mb1e1e8f34a" x="0" y="142.86672" style="fill: #e2e418; stroke: #e2e418"/>
    </g>
   </g>
   <g id="PathCollection_2">
    <defs>
     <path id="mb3466e8eb4" d="M 147.304207 -27.92237 
L 158.276258 -25.484919 
L 158.276258 -29.84327 
L 158.276258 -41.828201 
L 158.276258 -53.813131 
L 158.276258 -61.551956 
L 150.723437 -65.798062 
L 147.304207 -68.697281 
L 142.058777 -77.782992 
L 137.458753 -89.767922 
L 136.332156 -94.510762 
L 135.54338 -101.752853 
L 134.925004 -113.737783 
L 134.732813 -125.722714 
L 125.360105 -125.722714 
L 114.388054 -125.722714 
L 112.435052 -125.722714 
L 112.788709 -113.737783 
L 113.229523 -101.752853 
L 113.744214 -89.767922 
L 114.388054 -81.661972 
L 114.686495 -77.782992 
L 116.468347 -65.798062 
L 119.676596 -53.813131 
L 125.360105 -42.277374 
L 125.691155 -41.828201 
L 136.332156 -32.890127 
L 143.024299 -29.84327 
z
" style="stroke: #a5db36"/>
    </defs>
    <g clip-path="url(#p7285d65d7a)">
     <use xlink:href="#mb3466e8eb4" x="0" y="142.86672" style="fill: #a5db36; stroke: #a5db36"/>
    </g>
   </g>
   <g id="PathCollection_3">
    <defs>
     <path id="md41b24974b" d="M 125.360105 -17.85834 
L 136.332156 -17.85834 
L 147.304207 -17.85834 
L 158.276258 -17.85834 
L 158.276258 -25.484919 
L 147.304207 -27.92237 
L 143.024299 -29.84327 
L 136.332156 -32.890127 
L 125.691155 -41.828201 
L 125.360105 -42.277374 
L 119.676596 -53.813131 
L 116.468347 -65.798062 
L 114.686495 -77.782992 
L 114.388054 -81.661972 
L 113.744214 -89.767922 
L 113.229523 -101.752853 
L 112.788709 -113.737783 
L 112.435052 -125.722714 
L 103.416003 -125.722714 
L 92.443953 -125.722714 
L 90.185597 -125.722714 
L 90.635138 -113.737783 
L 91.391675 -101.752853 
L 92.238482 -89.767922 
L 92.443953 -86.669508 
L 93.065695 -77.782992 
L 94.360534 -65.798062 
L 97.430604 -53.813131 
L 103.416003 -42.909911 
L 103.963028 -41.828201 
L 114.388054 -29.846764 
L 114.390883 -29.84327 
L 123.859235 -17.85834 
z
" style="stroke: #69cd5b"/>
    </defs>
    <g clip-path="url(#p7285d65d7a)">
     <use xlink:href="#md41b24974b" x="0" y="142.86672" style="fill: #69cd5b; stroke: #69cd5b"/>
    </g>
   </g>
   <g id="PathCollection_4">
    <defs>
     <path id="md770392b94" d="M 92.443953 -26.42954 
L 100.72898 -17.85834 
L 103.416003 -17.85834 
L 114.388054 -17.85834 
L 123.859235 -17.85834 
L 114.390883 -29.84327 
L 114.388054 -29.846764 
L 103.963028 -41.828201 
L 103.416003 -42.909911 
L 97.430604 -53.813131 
L 94.360534 -65.798062 
L 93.065695 -77.782992 
L 92.443953 -86.669508 
L 92.238482 -89.767922 
L 91.391675 -101.752853 
L 90.635138 -113.737783 
L 90.185597 -125.722714 
L 81.471902 -125.722714 
L 70.499851 -125.722714 
L 69.379468 -125.722714 
L 69.677695 -113.737783 
L 70.317157 -101.752853 
L 70.499851 -99.481031 
L 71.091246 -89.767922 
L 72.020898 -77.782992 
L 73.140536 -65.798062 
L 75.123565 -53.813131 
L 79.802669 -41.828201 
L 81.471902 -39.563115 
L 89.535176 -29.84327 
z
" style="stroke: #3bbb75"/>
    </defs>
    <g clip-path="url(#p7285d65d7a)">
     <use xlink:href="#md770392b94" x="0" y="142.86672" style="fill: #3bbb75; stroke: #3bbb75"/>
    </g>
   </g>
   <g id="PathCollection_5">
    <defs>
     <path id="mc7d606471e" d="M 70.499851 -24.432452 
L 75.443014 -17.85834 
L 81.471902 -17.85834 
L 92.443953 -17.85834 
L 100.72898 -17.85834 
L 92.443953 -26.42954 
L 89.535176 -29.84327 
L 81.471902 -39.563115 
L 79.802669 -41.828201 
L 75.123565 -53.813131 
L 73.140536 -65.798062 
L 72.020898 -77.782992 
L 71.091246 -89.767922 
L 70.499851 -99.481031 
L 70.317157 -101.752853 
L 69.677695 -113.737783 
L 69.379468 -125.722714 
L 59.5278 -125.722714 
L 59.5278 -113.737783 
L 59.5278 -101.752853 
L 59.5278 -89.767922 
L 59.5278 -77.782992 
L 59.5278 -65.798062 
L 59.5278 -53.813131 
L 59.5278 -41.828201 
L 59.5278 -35.86743 
L 65.207723 -29.84327 
z
" style="stroke: #21a685"/>
    </defs>
    <g clip-path="url(#p7285d65d7a)">
     <use xlink:href="#mc7d606471e" x="0" y="142.86672" style="fill: #21a685; stroke: #21a685"/>
    </g>
   </g>
   <g id="PathCollection_6">
    <defs>
     <path id="m5772c3927c" d="M 70.499851 -17.85834 
L 75.443014 -17.85834 
L 70.499851 -24.432452 
L 65.207723 -29.84327 
L 59.5278 -35.86743 
L 59.5278 -29.84327 
L 59.5278 -17.85834 
z
" style="stroke: #21908d"/>
    </defs>
    <g clip-path="url(#p7285d65d7a)">
     <use xlink:href="#m5772c3927c" x="0" y="142.86672" style="fill: #21908d; stroke: #21908d"/>
    </g>
   </g>
   <g id="PathCollection_7"/>
   <g id="PathCollection_8"/>
   <g id="PathCollection_9"/>
   <g id="PathCollection_10"/>
   <g id="PathCollection_11"/>
   <g id="QuadContourSet_1">
    <path clip-path="url(#p7285d65d7a)" style="fill: none; stroke: #3d4240; stroke-opacity: 0.1; stroke-width: 0.8"/>
    <path d="M 158.276258 81.314764 
L 150.723437 77.068658 
L 147.304207 74.169439 
L 142.058777 65.083728 
L 137.458753 53.098798 
L 136.332156 48.355958 
L 135.54338 41.113867 
L 134.925004 29.128937 
L 134.732813 17.144006 
" clip-path="url(#p7285d65d7a)" style="fill: none; stroke: #3d4240; stroke-opacity: 0.1; stroke-width: 0.8"/>
    <path d="M 158.276258 117.381801 
L 147.304207 114.94435 
L 143.024299 113.02345 
L 136.332156 109.976593 
L 125.691155 101.038519 
L 125.360105 100.589346 
L 119.800605 89.305288 
M 114.642706 64.514574 
L 114.388054 61.204748 
L 113.744214 53.098798 
L 113.229523 41.113867 
L 112.788709 29.128937 
L 112.435052 17.144006 
" clip-path="url(#p7285d65d7a)" style="fill: none; stroke: #3d4240; stroke-opacity: 0.1; stroke-width: 0.8"/>
    <path d="M 123.859235 125.00838 
L 114.390883 113.02345 
L 114.388054 113.019956 
L 103.963028 101.038519 
L 103.416003 99.956809 
L 97.430604 89.053589 
L 94.360534 77.068658 
L 93.065695 65.083728 
L 92.443953 56.197212 
L 92.238482 53.098798 
L 91.391675 41.113867 
L 90.635138 29.128937 
L 90.185597 17.144006 
" clip-path="url(#p7285d65d7a)" style="fill: none; stroke: #3d4240; stroke-opacity: 0.1; stroke-width: 0.8"/>
    <path d="M 100.72898 125.00838 
L 92.443953 116.43718 
L 89.535176 113.02345 
L 81.471902 103.303605 
L 79.802669 101.038519 
L 75.319815 89.556259 
M 71.9706 64.435291 
L 71.091246 53.098798 
L 70.499851 43.385689 
L 70.317157 41.113867 
L 69.677695 29.128937 
L 69.379468 17.144006 
" clip-path="url(#p7285d65d7a)" style="fill: none; stroke: #3d4240; stroke-opacity: 0.1; stroke-width: 0.8"/>
    <path d="M 75.443014 125.00838 
L 70.499851 118.434268 
L 65.207723 113.02345 
L 59.5278 106.99929 
" clip-path="url(#p7285d65d7a)" style="fill: none; stroke: #3d4240; stroke-opacity: 0.1; stroke-width: 0.8"/>
    <path clip-path="url(#p7285d65d7a)" style="fill: none; stroke: #3d4240; stroke-opacity: 0.1; stroke-width: 0.8"/>
    <path clip-path="url(#p7285d65d7a)" style="fill: none; stroke: #3d4240; stroke-opacity: 0.1; stroke-width: 0.8"/>
    <path clip-path="url(#p7285d65d7a)" style="fill: none; stroke: #3d4240; stroke-opacity: 0.1; stroke-width: 0.8"/>
    <path clip-path="url(#p7285d65d7a)" style="fill: none; stroke: #3d4240; stroke-opacity: 0.1; stroke-width: 0.8"/>
    <path clip-path="url(#p7285d65d7a)" style="fill: none; stroke: #3d4240; stroke-opacity: 0.1; stroke-width: 0.8"/>
    <path clip-path="url(#p7285d65d7a)" style="fill: none; stroke: #3d4240; stroke-opacity: 0.1; stroke-width: 0.8"/>
   </g>
   <g id="text_7">
    <g clip-path="url(#p7285d65d7a)">
     <!-- 1.7 -->
     <g transform="translate(108.823347 79.91233) scale(0.11 -0.11)">
      <defs>
       <path id="ArialMT-2e" d="M 581 0 
L 581 641 
L 1222 641 
L 1222 0 
L 581 0 
z
" transform="scale(0.015625)"/>
       <path id="ArialMT-37" d="M 303 3981 
L 303 4522 
L 3269 4522 
L 3269 4084 
Q 2831 3619 2401 2847 
Q 1972 2075 1738 1259 
Q 1569 684 1522 0 
L 944 0 
Q 953 541 1156 1306 
Q 1359 2072 1739 2783 
Q 2119 3494 2547 3981 
L 303 3981 
z
" transform="scale(0.015625)"/>
      </defs>
      <use xlink:href="#ArialMT-31"/>
      <use xlink:href="#ArialMT-2e" x="55.615234"/>
      <use xlink:href="#ArialMT-37" x="83.398438"/>
     </g>
    </g>
   </g>
   <g id="text_8">
    <g clip-path="url(#p7285d65d7a)">
     <!-- 2.5 -->
     <g transform="translate(65.495536 79.91233) scale(0.11 -0.11)">
      <use xlink:href="#ArialMT-32"/>
      <use xlink:href="#ArialMT-2e" x="55.615234"/>
      <use xlink:href="#ArialMT-35" x="83.398438"/>
     </g>
    </g>
   </g>
   <g id="matplotlib.axis_3">
    <g id="xtick_1">
     <g id="line2d_6">
      <defs>
       <path id="m96786053d1" d="M 0 2 
L 0 -2 
" style="stroke: #000000; stroke-width: 0.8"/>
      </defs>
      <g>
       <use xlink:href="#m96786053d1" x="59.5278" y="125.00838" style="stroke: #000000; stroke-width: 0.8"/>
      </g>
     </g>
    </g>
    <g id="xtick_2">
     <g id="line2d_7">
      <g>
       <use xlink:href="#m96786053d1" x="84.214914" y="125.00838" style="stroke: #000000; stroke-width: 0.8"/>
      </g>
     </g>
     <g id="text_9">
      <!-- 45 -->
      <g transform="translate(78.097883 138.381974) scale(0.11 -0.11)">
       <use xlink:href="#ArialMT-34"/>
       <use xlink:href="#ArialMT-35" x="55.615234"/>
      </g>
     </g>
    </g>
    <g id="xtick_3">
     <g id="line2d_8">
      <g>
       <use xlink:href="#m96786053d1" x="108.902029" y="125.00838" style="stroke: #000000; stroke-width: 0.8"/>
      </g>
     </g>
     <g id="text_10">
      <!-- 60 -->
      <g transform="translate(102.784998 138.381974) scale(0.11 -0.11)">
       <defs>
        <path id="ArialMT-36" d="M 3184 3459 
L 2625 3416 
Q 2550 3747 2413 3897 
Q 2184 4138 1850 4138 
Q 1581 4138 1378 3988 
Q 1113 3794 959 3422 
Q 806 3050 800 2363 
Q 1003 2672 1297 2822 
Q 1591 2972 1913 2972 
Q 2475 2972 2870 2558 
Q 3266 2144 3266 1488 
Q 3266 1056 3080 686 
Q 2894 316 2569 119 
Q 2244 -78 1831 -78 
Q 1128 -78 684 439 
Q 241 956 241 2144 
Q 241 3472 731 4075 
Q 1159 4600 1884 4600 
Q 2425 4600 2770 4297 
Q 3116 3994 3184 3459 
z
M 888 1484 
Q 888 1194 1011 928 
Q 1134 663 1356 523 
Q 1578 384 1822 384 
Q 2178 384 2434 671 
Q 2691 959 2691 1453 
Q 2691 1928 2437 2201 
Q 2184 2475 1800 2475 
Q 1419 2475 1153 2201 
Q 888 1928 888 1484 
z
" transform="scale(0.015625)"/>
        <path id="ArialMT-30" d="M 266 2259 
Q 266 3072 433 3567 
Q 600 4063 929 4331 
Q 1259 4600 1759 4600 
Q 2128 4600 2406 4451 
Q 2684 4303 2865 4023 
Q 3047 3744 3150 3342 
Q 3253 2941 3253 2259 
Q 3253 1453 3087 958 
Q 2922 463 2592 192 
Q 2263 -78 1759 -78 
Q 1097 -78 719 397 
Q 266 969 266 2259 
z
M 844 2259 
Q 844 1131 1108 757 
Q 1372 384 1759 384 
Q 2147 384 2411 759 
Q 2675 1134 2675 2259 
Q 2675 3391 2411 3762 
Q 2147 4134 1753 4134 
Q 1366 4134 1134 3806 
Q 844 3388 844 2259 
z
" transform="scale(0.015625)"/>
       </defs>
       <use xlink:href="#ArialMT-36"/>
       <use xlink:href="#ArialMT-30" x="55.615234"/>
      </g>
     </g>
    </g>
    <g id="xtick_4">
     <g id="line2d_9">
      <g>
       <use xlink:href="#m96786053d1" x="133.589143" y="125.00838" style="stroke: #000000; stroke-width: 0.8"/>
      </g>
     </g>
     <g id="text_11">
      <!-- 75 -->
      <g transform="translate(127.472112 138.381974) scale(0.11 -0.11)">
       <use xlink:href="#ArialMT-37"/>
       <use xlink:href="#ArialMT-35" x="55.615234"/>
      </g>
     </g>
    </g>
    <g id="xtick_5">
     <g id="line2d_10">
      <g>
       <use xlink:href="#m96786053d1" x="158.276258" y="125.00838" style="stroke: #000000; stroke-width: 0.8"/>
      </g>
     </g>
     <g id="text_12">
      <!-- 90 -->
      <g transform="translate(152.159226 138.381974) scale(0.11 -0.11)">
       <defs>
        <path id="ArialMT-39" d="M 350 1059 
L 891 1109 
Q 959 728 1153 556 
Q 1347 384 1650 384 
Q 1909 384 2104 503 
Q 2300 622 2425 820 
Q 2550 1019 2634 1356 
Q 2719 1694 2719 2044 
Q 2719 2081 2716 2156 
Q 2547 1888 2255 1720 
Q 1963 1553 1622 1553 
Q 1053 1553 659 1965 
Q 266 2378 266 3053 
Q 266 3750 677 4175 
Q 1088 4600 1706 4600 
Q 2153 4600 2523 4359 
Q 2894 4119 3086 3673 
Q 3278 3228 3278 2384 
Q 3278 1506 3087 986 
Q 2897 466 2520 194 
Q 2144 -78 1638 -78 
Q 1100 -78 759 220 
Q 419 519 350 1059 
z
M 2653 3081 
Q 2653 3566 2395 3850 
Q 2138 4134 1775 4134 
Q 1400 4134 1122 3828 
Q 844 3522 844 3034 
Q 844 2597 1108 2323 
Q 1372 2050 1759 2050 
Q 2150 2050 2401 2323 
Q 2653 2597 2653 3081 
z
" transform="scale(0.015625)"/>
       </defs>
       <use xlink:href="#ArialMT-39"/>
       <use xlink:href="#ArialMT-30" x="55.615234"/>
      </g>
     </g>
    </g>
    <g id="text_13">
     <!-- Yield [$\mathrm{g} \cdot \mathrm{L}^{\mathrm{-1}}$] -->
     <g transform="translate(75.737029 154.468224) scale(0.11 -0.11)">
      <defs>
       <path id="ArialMT-59" d="M 1784 0 
L 1784 1941 
L 19 4581 
L 756 4581 
L 1659 3200 
Q 1909 2813 2125 2425 
Q 2331 2784 2625 3234 
L 3513 4581 
L 4219 4581 
L 2391 1941 
L 2391 0 
L 1784 0 
z
" transform="scale(0.015625)"/>
       <path id="ArialMT-69" d="M 425 3934 
L 425 4581 
L 988 4581 
L 988 3934 
L 425 3934 
z
M 425 0 
L 425 3319 
L 988 3319 
L 988 0 
L 425 0 
z
" transform="scale(0.015625)"/>
       <path id="ArialMT-65" d="M 2694 1069 
L 3275 997 
Q 3138 488 2766 206 
Q 2394 -75 1816 -75 
Q 1088 -75 661 373 
Q 234 822 234 1631 
Q 234 2469 665 2931 
Q 1097 3394 1784 3394 
Q 2450 3394 2872 2941 
Q 3294 2488 3294 1666 
Q 3294 1616 3291 1516 
L 816 1516 
Q 847 969 1125 678 
Q 1403 388 1819 388 
Q 2128 388 2347 550 
Q 2566 713 2694 1069 
z
M 847 1978 
L 2700 1978 
Q 2663 2397 2488 2606 
Q 2219 2931 1791 2931 
Q 1403 2931 1139 2672 
Q 875 2413 847 1978 
z
" transform="scale(0.015625)"/>
       <path id="ArialMT-6c" d="M 409 0 
L 409 4581 
L 972 4581 
L 972 0 
L 409 0 
z
" transform="scale(0.015625)"/>
       <path id="ArialMT-64" d="M 2575 0 
L 2575 419 
Q 2259 -75 1647 -75 
Q 1250 -75 917 144 
Q 584 363 401 755 
Q 219 1147 219 1656 
Q 219 2153 384 2558 
Q 550 2963 881 3178 
Q 1213 3394 1622 3394 
Q 1922 3394 2156 3267 
Q 2391 3141 2538 2938 
L 2538 4581 
L 3097 4581 
L 3097 0 
L 2575 0 
z
M 797 1656 
Q 797 1019 1065 703 
Q 1334 388 1700 388 
Q 2069 388 2326 689 
Q 2584 991 2584 1609 
Q 2584 2291 2321 2609 
Q 2059 2928 1675 2928 
Q 1300 2928 1048 2622 
Q 797 2316 797 1656 
z
" transform="scale(0.015625)"/>
       <path id="ArialMT-20" transform="scale(0.015625)"/>
       <path id="DejaVuSans-4c" d="M 628 4666 
L 1259 4666 
L 1259 531 
L 3531 531 
L 3531 0 
L 628 0 
L 628 4666 
z
" transform="scale(0.015625)"/>
      </defs>
      <use xlink:href="#ArialMT-59" transform="translate(0 0.684375)"/>
      <use xlink:href="#ArialMT-69" transform="translate(66.699219 0.684375)"/>
      <use xlink:href="#ArialMT-65" transform="translate(88.916016 0.684375)"/>
      <use xlink:href="#ArialMT-6c" transform="translate(144.53125 0.684375)"/>
      <use xlink:href="#ArialMT-64" transform="translate(166.748047 0.684375)"/>
      <use xlink:href="#ArialMT-20" transform="translate(222.363281 0.684375)"/>
      <use xlink:href="#ArialMT-5b" transform="translate(250.146484 0.684375)"/>
      <use xlink:href="#DejaVuSans-67" transform="translate(277.929688 0.684375)"/>
      <use xlink:href="#DejaVuSans-22c5" transform="translate(360.888672 0.684375)"/>
      <use xlink:href="#DejaVuSans-4c" transform="translate(412.158203 0.684375)"/>
      <use xlink:href="#DejaVuSans-2212" transform="translate(468.828125 38.965625) scale(0.7)"/>
      <use xlink:href="#DejaVuSans-31" transform="translate(527.480469 38.965625) scale(0.7)"/>
      <use xlink:href="#ArialMT-5d" transform="translate(574.750977 0.684375)"/>
     </g>
    </g>
   </g>
   <g id="matplotlib.axis_4">
    <g id="ytick_6">
     <g id="line2d_11">
      <defs>
       <path id="md1bbf4f40e" d="M 2 0 
L -2 -0 
" style="stroke: #000000; stroke-width: 0.8"/>
      </defs>
      <g>
       <use xlink:href="#md1bbf4f40e" x="59.5278" y="125.00838" style="stroke: #000000; stroke-width: 0.8"/>
      </g>
     </g>
     <g id="text_14">
      <!-- 0.1 -->
      <g transform="translate(38.7378 128.945177) scale(0.11 -0.11)">
       <use xlink:href="#ArialMT-30"/>
       <use xlink:href="#ArialMT-2e" x="55.615234"/>
       <use xlink:href="#ArialMT-31" x="83.398438"/>
      </g>
     </g>
    </g>
    <g id="ytick_7">
     <g id="line2d_12">
      <g>
       <use xlink:href="#md1bbf4f40e" x="59.5278" y="98.042287" style="stroke: #000000; stroke-width: 0.8"/>
      </g>
     </g>
     <g id="text_15">
      <!-- 0.4 -->
      <g transform="translate(38.7378 101.979083) scale(0.11 -0.11)">
       <use xlink:href="#ArialMT-30"/>
       <use xlink:href="#ArialMT-2e" x="55.615234"/>
       <use xlink:href="#ArialMT-34" x="83.398438"/>
      </g>
     </g>
    </g>
    <g id="ytick_8">
     <g id="line2d_13">
      <g>
       <use xlink:href="#md1bbf4f40e" x="59.5278" y="71.076193" style="stroke: #000000; stroke-width: 0.8"/>
      </g>
     </g>
     <g id="text_16">
      <!-- 0.7 -->
      <g transform="translate(38.7378 75.01299) scale(0.11 -0.11)">
       <use xlink:href="#ArialMT-30"/>
       <use xlink:href="#ArialMT-2e" x="55.615234"/>
       <use xlink:href="#ArialMT-37" x="83.398438"/>
      </g>
     </g>
    </g>
    <g id="ytick_9">
     <g id="line2d_14">
      <g>
       <use xlink:href="#md1bbf4f40e" x="59.5278" y="44.1101" style="stroke: #000000; stroke-width: 0.8"/>
      </g>
     </g>
     <g id="text_17">
      <!-- 1.0 -->
      <g transform="translate(38.7378 48.046897) scale(0.11 -0.11)">
       <use xlink:href="#ArialMT-31"/>
       <use xlink:href="#ArialMT-2e" x="55.615234"/>
       <use xlink:href="#ArialMT-30" x="83.398438"/>
      </g>
     </g>
    </g>
    <g id="ytick_10">
     <g id="line2d_15">
      <g>
       <use xlink:href="#md1bbf4f40e" x="59.5278" y="17.144006" style="stroke: #000000; stroke-width: 0.8"/>
      </g>
     </g>
     <g id="text_18">
      <!-- 1.3 -->
      <g transform="translate(38.7378 21.080803) scale(0.11 -0.11)">
       <use xlink:href="#ArialMT-31"/>
       <use xlink:href="#ArialMT-2e" x="55.615234"/>
       <use xlink:href="#ArialMT-33" x="83.398438"/>
      </g>
     </g>
    </g>
    <g id="text_19">
     <!-- Productivity -->
     <g transform="translate(18.232644 99.50174) rotate(-90) scale(0.11 -0.11)">
      <defs>
       <path id="ArialMT-72" d="M 416 0 
L 416 3319 
L 922 3319 
L 922 2816 
Q 1116 3169 1280 3281 
Q 1444 3394 1641 3394 
Q 1925 3394 2219 3213 
L 2025 2691 
Q 1819 2813 1613 2813 
Q 1428 2813 1281 2702 
Q 1134 2591 1072 2394 
Q 978 2094 978 1738 
L 978 0 
L 416 0 
z
" transform="scale(0.015625)"/>
       <path id="ArialMT-6f" d="M 213 1659 
Q 213 2581 725 3025 
Q 1153 3394 1769 3394 
Q 2453 3394 2887 2945 
Q 3322 2497 3322 1706 
Q 3322 1066 3130 698 
Q 2938 331 2570 128 
Q 2203 -75 1769 -75 
Q 1072 -75 642 372 
Q 213 819 213 1659 
z
M 791 1659 
Q 791 1022 1069 705 
Q 1347 388 1769 388 
Q 2188 388 2466 706 
Q 2744 1025 2744 1678 
Q 2744 2294 2464 2611 
Q 2184 2928 1769 2928 
Q 1347 2928 1069 2612 
Q 791 2297 791 1659 
z
" transform="scale(0.015625)"/>
       <path id="ArialMT-75" d="M 2597 0 
L 2597 488 
Q 2209 -75 1544 -75 
Q 1250 -75 995 37 
Q 741 150 617 320 
Q 494 491 444 738 
Q 409 903 409 1263 
L 409 3319 
L 972 3319 
L 972 1478 
Q 972 1038 1006 884 
Q 1059 663 1231 536 
Q 1403 409 1656 409 
Q 1909 409 2131 539 
Q 2353 669 2445 892 
Q 2538 1116 2538 1541 
L 2538 3319 
L 3100 3319 
L 3100 0 
L 2597 0 
z
" transform="scale(0.015625)"/>
       <path id="ArialMT-63" d="M 2588 1216 
L 3141 1144 
Q 3050 572 2676 248 
Q 2303 -75 1759 -75 
Q 1078 -75 664 370 
Q 250 816 250 1647 
Q 250 2184 428 2587 
Q 606 2991 970 3192 
Q 1334 3394 1763 3394 
Q 2303 3394 2647 3120 
Q 2991 2847 3088 2344 
L 2541 2259 
Q 2463 2594 2264 2762 
Q 2066 2931 1784 2931 
Q 1359 2931 1093 2626 
Q 828 2322 828 1663 
Q 828 994 1084 691 
Q 1341 388 1753 388 
Q 2084 388 2306 591 
Q 2528 794 2588 1216 
z
" transform="scale(0.015625)"/>
       <path id="ArialMT-74" d="M 1650 503 
L 1731 6 
Q 1494 -44 1306 -44 
Q 1000 -44 831 53 
Q 663 150 594 308 
Q 525 466 525 972 
L 525 2881 
L 113 2881 
L 113 3319 
L 525 3319 
L 525 4141 
L 1084 4478 
L 1084 3319 
L 1650 3319 
L 1650 2881 
L 1084 2881 
L 1084 941 
Q 1084 700 1114 631 
Q 1144 563 1211 522 
Q 1278 481 1403 481 
Q 1497 481 1650 503 
z
" transform="scale(0.015625)"/>
       <path id="ArialMT-76" d="M 1344 0 
L 81 3319 
L 675 3319 
L 1388 1331 
Q 1503 1009 1600 663 
Q 1675 925 1809 1294 
L 2547 3319 
L 3125 3319 
L 1869 0 
L 1344 0 
z
" transform="scale(0.015625)"/>
       <path id="ArialMT-79" d="M 397 -1278 
L 334 -750 
Q 519 -800 656 -800 
Q 844 -800 956 -737 
Q 1069 -675 1141 -563 
Q 1194 -478 1313 -144 
Q 1328 -97 1363 -6 
L 103 3319 
L 709 3319 
L 1400 1397 
Q 1534 1031 1641 628 
Q 1738 1016 1872 1384 
L 2581 3319 
L 3144 3319 
L 1881 -56 
Q 1678 -603 1566 -809 
Q 1416 -1088 1222 -1217 
Q 1028 -1347 759 -1347 
Q 597 -1347 397 -1278 
z
" transform="scale(0.015625)"/>
      </defs>
      <use xlink:href="#ArialMT-50"/>
      <use xlink:href="#ArialMT-72" x="66.699219"/>
      <use xlink:href="#ArialMT-6f" x="100"/>
      <use xlink:href="#ArialMT-64" x="155.615234"/>
      <use xlink:href="#ArialMT-75" x="211.230469"/>
      <use xlink:href="#ArialMT-63" x="266.845703"/>
      <use xlink:href="#ArialMT-74" x="316.845703"/>
      <use xlink:href="#ArialMT-69" x="344.628906"/>
      <use xlink:href="#ArialMT-76" x="366.845703"/>
      <use xlink:href="#ArialMT-69" x="416.845703"/>
      <use xlink:href="#ArialMT-74" x="439.0625"/>
      <use xlink:href="#ArialMT-79" x="466.845703"/>
     </g>
     <!-- [$\mathrm{g} \cdot \mathrm{L}^{\mathrm{-1}} \cdot \mathrm{h}^{\mathrm{-1}}$] -->
     <g transform="translate(32.4278 103.746193) rotate(-90) scale(0.11 -0.11)">
      <defs>
       <path id="DejaVuSans-68" d="M 3513 2113 
L 3513 0 
L 2938 0 
L 2938 2094 
Q 2938 2591 2744 2837 
Q 2550 3084 2163 3084 
Q 1697 3084 1428 2787 
Q 1159 2491 1159 1978 
L 1159 0 
L 581 0 
L 581 4863 
L 1159 4863 
L 1159 2956 
Q 1366 3272 1645 3428 
Q 1925 3584 2291 3584 
Q 2894 3584 3203 3211 
Q 3513 2838 3513 2113 
z
" transform="scale(0.015625)"/>
      </defs>
      <use xlink:href="#ArialMT-5b" transform="translate(0 0.684375)"/>
      <use xlink:href="#DejaVuSans-67" transform="translate(27.783203 0.684375)"/>
      <use xlink:href="#DejaVuSans-22c5" transform="translate(110.742188 0.684375)"/>
      <use xlink:href="#DejaVuSans-4c" transform="translate(162.011719 0.684375)"/>
      <use xlink:href="#DejaVuSans-2212" transform="translate(218.681641 38.965625) scale(0.7)"/>
      <use xlink:href="#DejaVuSans-31" transform="translate(277.333984 38.965625) scale(0.7)"/>
      <use xlink:href="#DejaVuSans-22c5" transform="translate(344.086914 0.684375)"/>
      <use xlink:href="#DejaVuSans-68" transform="translate(395.356445 0.684375)"/>
      <use xlink:href="#DejaVuSans-2212" transform="translate(459.692383 38.965625) scale(0.7)"/>
      <use xlink:href="#DejaVuSans-31" transform="translate(518.344727 38.965625) scale(0.7)"/>
      <use xlink:href="#ArialMT-5d" transform="translate(565.615234 0.684375)"/>
     </g>
    </g>
   </g>
   <g id="patch_5">
    <path d="M 59.5278 125.00838 
L 59.5278 17.144006 
" style="fill: none; stroke: #000000; stroke-width: 0.8; stroke-linejoin: miter; stroke-linecap: square"/>
   </g>
   <g id="patch_6">
    <path d="M 158.276258 125.00838 
L 158.276258 17.144006 
" style="fill: none; stroke: #000000; stroke-width: 0.8; stroke-linejoin: miter; stroke-linecap: square"/>
   </g>
   <g id="patch_7">
    <path d="M 59.5278 125.00838 
L 158.276258 125.00838 
" style="fill: none; stroke: #000000; stroke-width: 0.8; stroke-linejoin: miter; stroke-linecap: square"/>
   </g>
   <g id="patch_8">
    <path d="M 59.5278 17.144006 
L 158.276258 17.144006 
" style="fill: none; stroke: #000000; stroke-width: 0.8; stroke-linejoin: miter; stroke-linecap: square"/>
   </g>
  </g>
  <g id="axes_4">
   <g id="patch_9">
    <path d="M 174.322882 125.00838 
L 273.071339 125.00838 
L 273.071339 17.144006 
L 174.322882 17.144006 
L 174.322882 125.00838 
z
" style="fill: none"/>
   </g>
   <g id="PathCollection_12"/>
   <g id="PathCollection_13">
    <defs>
     <path id="m0e51673de4" d="M 273.071339 -57.926764 
L 273.071339 -65.798062 
L 273.071339 -77.782992 
L 273.071339 -89.767922 
L 273.071339 -101.752853 
L 273.071339 -113.737783 
L 273.071339 -125.722714 
L 262.099289 -125.722714 
L 254.141729 -125.722714 
L 254.528066 -113.737783 
L 255.125104 -101.752853 
L 256.621794 -89.767922 
L 259.611785 -77.782992 
L 262.099289 -71.496541 
L 265.640874 -65.798062 
z
" style="stroke: #a5db36"/>
    </defs>
    <g clip-path="url(#pcf9b783ea5)">
     <use xlink:href="#m0e51673de4" x="0" y="142.86672" style="fill: #a5db36; stroke: #a5db36"/>
    </g>
   </g>
   <g id="PathCollection_14">
    <defs>
     <path id="m05fa58d802" d="M 262.099289 -28.404112 
L 273.071339 -24.160946 
L 273.071339 -29.84327 
L 273.071339 -41.828201 
L 273.071339 -53.813131 
L 273.071339 -57.926764 
L 265.640874 -65.798062 
L 262.099289 -71.496541 
L 259.611785 -77.782992 
L 256.621794 -89.767922 
L 255.125104 -101.752853 
L 254.528066 -113.737783 
L 254.141729 -125.722714 
L 251.127238 -125.722714 
L 240.155187 -125.722714 
L 229.183136 -125.722714 
L 219.698809 -125.722714 
L 220.456075 -113.737783 
L 221.584793 -101.752853 
L 222.630091 -89.767922 
L 223.780965 -77.782992 
L 226.12549 -65.798062 
L 229.183136 -58.070592 
L 231.136102 -53.813131 
L 240.155187 -43.184989 
L 241.403146 -41.828201 
L 251.127238 -35.265897 
L 259.77044 -29.84327 
z
" style="stroke: #69cd5b"/>
    </defs>
    <g clip-path="url(#pcf9b783ea5)">
     <use xlink:href="#m05fa58d802" x="0" y="142.86672" style="fill: #69cd5b; stroke: #69cd5b"/>
    </g>
   </g>
   <g id="PathCollection_15">
    <defs>
     <path id="m8aec10c0e2" d="M 229.183136 -24.905811 
L 238.672946 -17.85834 
L 240.155187 -17.85834 
L 251.127238 -17.85834 
L 262.099289 -17.85834 
L 273.071339 -17.85834 
L 273.071339 -24.160946 
L 262.099289 -28.404112 
L 259.77044 -29.84327 
L 251.127238 -35.265897 
L 241.403146 -41.828201 
L 240.155187 -43.184989 
L 231.136102 -53.813131 
L 229.183136 -58.070592 
L 226.12549 -65.798062 
L 223.780965 -77.782992 
L 222.630091 -89.767922 
L 221.584793 -101.752853 
L 220.456075 -113.737783 
L 219.698809 -125.722714 
L 218.211085 -125.722714 
L 207.239034 -125.722714 
L 196.266984 -125.722714 
L 194.886449 -125.722714 
L 195.191512 -113.737783 
L 195.837269 -101.752853 
L 196.266984 -96.667818 
L 196.889522 -89.767922 
L 198.199077 -77.782992 
L 199.726223 -65.798062 
L 202.466742 -53.813131 
L 207.239034 -44.690914 
L 209.020406 -41.828201 
L 218.211085 -33.577788 
L 222.979798 -29.84327 
z
" style="stroke: #3bbb75"/>
    </defs>
    <g clip-path="url(#pcf9b783ea5)">
     <use xlink:href="#m8aec10c0e2" x="0" y="142.86672" style="fill: #3bbb75; stroke: #3bbb75"/>
    </g>
   </g>
   <g id="PathCollection_16">
    <defs>
     <path id="m95fd730bba" d="M 196.266984 -27.500034 
L 205.800792 -17.85834 
L 207.239034 -17.85834 
L 218.211085 -17.85834 
L 229.183136 -17.85834 
L 238.672946 -17.85834 
L 229.183136 -24.905811 
L 222.979798 -29.84327 
L 218.211085 -33.577788 
L 209.020406 -41.828201 
L 207.239034 -44.690914 
L 202.466742 -53.813131 
L 199.726223 -65.798062 
L 198.199077 -77.782992 
L 196.889522 -89.767922 
L 196.266984 -96.667818 
L 195.837269 -101.752853 
L 195.191512 -113.737783 
L 194.886449 -125.722714 
L 185.294933 -125.722714 
L 174.322882 -125.722714 
L 174.322882 -113.737783 
L 174.322882 -101.752853 
L 174.322882 -89.767922 
L 174.322882 -77.782992 
L 174.322882 -65.798062 
L 174.322882 -65.451535 
L 177.305356 -53.813131 
L 183.689276 -41.828201 
L 185.294933 -40.318062 
L 194.164215 -29.84327 
z
" style="stroke: #21a685"/>
    </defs>
    <g clip-path="url(#pcf9b783ea5)">
     <use xlink:href="#m95fd730bba" x="0" y="142.86672" style="fill: #21a685; stroke: #21a685"/>
    </g>
   </g>
   <g id="PathCollection_17">
    <defs>
     <path id="mb7733daab5" d="M 185.294933 -17.85834 
L 196.266984 -17.85834 
L 205.800792 -17.85834 
L 196.266984 -27.500034 
L 194.164215 -29.84327 
L 185.294933 -40.318062 
L 183.689276 -41.828201 
L 177.305356 -53.813131 
L 174.322882 -65.451535 
L 174.322882 -53.813131 
L 174.322882 -41.828201 
L 174.322882 -29.84327 
L 174.322882 -19.451096 
L 176.181856 -17.85834 
z
" style="stroke: #21908d"/>
    </defs>
    <g clip-path="url(#pcf9b783ea5)">
     <use xlink:href="#mb7733daab5" x="0" y="142.86672" style="fill: #21908d; stroke: #21908d"/>
    </g>
   </g>
   <g id="PathCollection_18">
    <defs>
     <path id="mdce8d05d97" d="M 174.322882 -19.451096 
L 174.322882 -17.85834 
L 176.181856 -17.85834 
z
" style="stroke: #297a8e"/>
    </defs>
    <g clip-path="url(#pcf9b783ea5)">
     <use xlink:href="#mdce8d05d97" x="0" y="142.86672" style="fill: #297a8e; stroke: #297a8e"/>
    </g>
   </g>
   <g id="PathCollection_19"/>
   <g id="PathCollection_20"/>
   <g id="PathCollection_21"/>
   <g id="PathCollection_22"/>
   <g id="QuadContourSet_2">
    <path clip-path="url(#pcf9b783ea5)" style="fill: none; stroke: #3d4240; stroke-opacity: 0.1; stroke-width: 0.8"/>
    <path clip-path="url(#pcf9b783ea5)" style="fill: none; stroke: #3d4240; stroke-opacity: 0.1; stroke-width: 0.8"/>
    <path d="M 273.071339 84.939956 
L 265.640874 77.068658 
L 262.099289 71.370179 
L 259.735127 65.395441 
M 255.09478 40.505145 
L 254.528066 29.128937 
L 254.141729 17.144006 
" clip-path="url(#pcf9b783ea5)" style="fill: none; stroke: #3d4240; stroke-opacity: 0.1; stroke-width: 0.8"/>
    <path d="M 273.071339 118.705774 
L 262.099289 114.462608 
L 259.77044 113.02345 
L 251.127238 107.600823 
L 241.403146 101.038519 
L 240.155187 99.681731 
L 231.136102 89.053589 
L 229.183136 84.796128 
L 226.12549 77.068658 
L 223.780965 65.083728 
L 222.630091 53.098798 
L 221.584793 41.113867 
L 220.456075 29.128937 
L 219.698809 17.144006 
" clip-path="url(#pcf9b783ea5)" style="fill: none; stroke: #3d4240; stroke-opacity: 0.1; stroke-width: 0.8"/>
    <path d="M 238.672946 125.00838 
L 229.183136 117.960909 
L 222.979798 113.02345 
L 218.211085 109.288932 
L 209.020406 101.038519 
L 207.239034 98.175806 
L 202.649025 89.402021 
M 198.13329 64.481646 
L 196.889522 53.098798 
L 196.266984 46.198902 
L 195.837269 41.113867 
L 195.191512 29.128937 
L 194.886449 17.144006 
" clip-path="url(#pcf9b783ea5)" style="fill: none; stroke: #3d4240; stroke-opacity: 0.1; stroke-width: 0.8"/>
    <path d="M 205.800792 125.00838 
L 196.266984 115.366686 
L 194.164215 113.02345 
L 185.294933 102.548658 
L 183.689276 101.038519 
L 177.305356 89.053589 
L 174.322882 77.415185 
" clip-path="url(#pcf9b783ea5)" style="fill: none; stroke: #3d4240; stroke-opacity: 0.1; stroke-width: 0.8"/>
    <path d="M 176.181856 125.00838 
L 174.322882 123.415624 
" clip-path="url(#pcf9b783ea5)" style="fill: none; stroke: #3d4240; stroke-opacity: 0.1; stroke-width: 0.8"/>
    <path clip-path="url(#pcf9b783ea5)" style="fill: none; stroke: #3d4240; stroke-opacity: 0.1; stroke-width: 0.8"/>
    <path clip-path="url(#pcf9b783ea5)" style="fill: none; stroke: #3d4240; stroke-opacity: 0.1; stroke-width: 0.8"/>
    <path clip-path="url(#pcf9b783ea5)" style="fill: none; stroke: #3d4240; stroke-opacity: 0.1; stroke-width: 0.8"/>
    <path clip-path="url(#pcf9b783ea5)" style="fill: none; stroke: #3d4240; stroke-opacity: 0.1; stroke-width: 0.8"/>
    <path clip-path="url(#pcf9b783ea5)" style="fill: none; stroke: #3d4240; stroke-opacity: 0.1; stroke-width: 0.8"/>
   </g>
   <g id="text_20">
    <g clip-path="url(#pcf9b783ea5)">
     <!-- 1.7 -->
     <g transform="translate(248.976794 55.942469) scale(0.11 -0.11)">
      <use xlink:href="#ArialMT-31"/>
      <use xlink:href="#ArialMT-2e" x="55.615234"/>
      <use xlink:href="#ArialMT-37" x="83.398438"/>
     </g>
    </g>
   </g>
   <g id="text_21">
    <g clip-path="url(#pcf9b783ea5)">
     <!-- 2.5 -->
     <g transform="translate(192.081223 79.91233) scale(0.11 -0.11)">
      <use xlink:href="#ArialMT-32"/>
      <use xlink:href="#ArialMT-2e" x="55.615234"/>
      <use xlink:href="#ArialMT-35" x="83.398438"/>
     </g>
    </g>
   </g>
   <g id="matplotlib.axis_5">
    <g id="xtick_6">
     <g id="line2d_16">
      <g>
       <use xlink:href="#m96786053d1" x="174.322882" y="125.00838" style="stroke: #000000; stroke-width: 0.8"/>
      </g>
     </g>
    </g>
    <g id="xtick_7">
     <g id="line2d_17">
      <g>
       <use xlink:href="#m96786053d1" x="199.009996" y="125.00838" style="stroke: #000000; stroke-width: 0.8"/>
      </g>
     </g>
     <g id="text_22">
      <!-- 45 -->
      <g transform="translate(192.892965 138.381974) scale(0.11 -0.11)">
       <use xlink:href="#ArialMT-34"/>
       <use xlink:href="#ArialMT-35" x="55.615234"/>
      </g>
     </g>
    </g>
    <g id="xtick_8">
     <g id="line2d_18">
      <g>
       <use xlink:href="#m96786053d1" x="223.697111" y="125.00838" style="stroke: #000000; stroke-width: 0.8"/>
      </g>
     </g>
     <g id="text_23">
      <!-- 60 -->
      <g transform="translate(217.580079 138.381974) scale(0.11 -0.11)">
       <use xlink:href="#ArialMT-36"/>
       <use xlink:href="#ArialMT-30" x="55.615234"/>
      </g>
     </g>
    </g>
    <g id="xtick_9">
     <g id="line2d_19">
      <g>
       <use xlink:href="#m96786053d1" x="248.384225" y="125.00838" style="stroke: #000000; stroke-width: 0.8"/>
      </g>
     </g>
     <g id="text_24">
      <!-- 75 -->
      <g transform="translate(242.267194 138.381974) scale(0.11 -0.11)">
       <use xlink:href="#ArialMT-37"/>
       <use xlink:href="#ArialMT-35" x="55.615234"/>
      </g>
     </g>
    </g>
    <g id="xtick_10">
     <g id="line2d_20">
      <g>
       <use xlink:href="#m96786053d1" x="273.071339" y="125.00838" style="stroke: #000000; stroke-width: 0.8"/>
      </g>
     </g>
     <g id="text_25">
      <!-- 90 -->
      <g transform="translate(266.954308 138.381974) scale(0.11 -0.11)">
       <use xlink:href="#ArialMT-39"/>
       <use xlink:href="#ArialMT-30" x="55.615234"/>
      </g>
     </g>
    </g>
    <g id="text_26">
     <!-- Yield [$\mathrm{g} \cdot \mathrm{L}^{\mathrm{-1}}$] -->
     <g transform="translate(190.532111 154.468224) scale(0.11 -0.11)">
      <use xlink:href="#ArialMT-59" transform="translate(0 0.684375)"/>
      <use xlink:href="#ArialMT-69" transform="translate(66.699219 0.684375)"/>
      <use xlink:href="#ArialMT-65" transform="translate(88.916016 0.684375)"/>
      <use xlink:href="#ArialMT-6c" transform="translate(144.53125 0.684375)"/>
      <use xlink:href="#ArialMT-64" transform="translate(166.748047 0.684375)"/>
      <use xlink:href="#ArialMT-20" transform="translate(222.363281 0.684375)"/>
      <use xlink:href="#ArialMT-5b" transform="translate(250.146484 0.684375)"/>
      <use xlink:href="#DejaVuSans-67" transform="translate(277.929688 0.684375)"/>
      <use xlink:href="#DejaVuSans-22c5" transform="translate(360.888672 0.684375)"/>
      <use xlink:href="#DejaVuSans-4c" transform="translate(412.158203 0.684375)"/>
      <use xlink:href="#DejaVuSans-2212" transform="translate(468.828125 38.965625) scale(0.7)"/>
      <use xlink:href="#DejaVuSans-31" transform="translate(527.480469 38.965625) scale(0.7)"/>
      <use xlink:href="#ArialMT-5d" transform="translate(574.750977 0.684375)"/>
     </g>
    </g>
   </g>
   <g id="matplotlib.axis_6">
    <g id="ytick_11">
     <g id="line2d_21">
      <g>
       <use xlink:href="#md1bbf4f40e" x="174.322882" y="125.00838" style="stroke: #000000; stroke-width: 0.8"/>
      </g>
     </g>
    </g>
    <g id="ytick_12">
     <g id="line2d_22">
      <g>
       <use xlink:href="#md1bbf4f40e" x="174.322882" y="98.042287" style="stroke: #000000; stroke-width: 0.8"/>
      </g>
     </g>
    </g>
    <g id="ytick_13">
     <g id="line2d_23">
      <g>
       <use xlink:href="#md1bbf4f40e" x="174.322882" y="71.076193" style="stroke: #000000; stroke-width: 0.8"/>
      </g>
     </g>
    </g>
    <g id="ytick_14">
     <g id="line2d_24">
      <g>
       <use xlink:href="#md1bbf4f40e" x="174.322882" y="44.1101" style="stroke: #000000; stroke-width: 0.8"/>
      </g>
     </g>
    </g>
    <g id="ytick_15">
     <g id="line2d_25">
      <g>
       <use xlink:href="#md1bbf4f40e" x="174.322882" y="17.144006" style="stroke: #000000; stroke-width: 0.8"/>
      </g>
     </g>
    </g>
   </g>
   <g id="patch_10">
    <path d="M 174.322882 125.00838 
L 174.322882 17.144006 
" style="fill: none; stroke: #000000; stroke-width: 0.8; stroke-linejoin: miter; stroke-linecap: square"/>
   </g>
   <g id="patch_11">
    <path d="M 273.071339 125.00838 
L 273.071339 17.144006 
" style="fill: none; stroke: #000000; stroke-width: 0.8; stroke-linejoin: miter; stroke-linecap: square"/>
   </g>
   <g id="patch_12">
    <path d="M 174.322882 125.00838 
L 273.071339 125.00838 
" style="fill: none; stroke: #000000; stroke-width: 0.8; stroke-linejoin: miter; stroke-linecap: square"/>
   </g>
   <g id="patch_13">
    <path d="M 174.322882 17.144006 
L 273.071339 17.144006 
" style="fill: none; stroke: #000000; stroke-width: 0.8; stroke-linejoin: miter; stroke-linecap: square"/>
   </g>
  </g>
  <g id="axes_5">
   <g id="patch_14">
    <path d="M 289.117964 125.00838 
L 387.866421 125.00838 
L 387.866421 17.144006 
L 289.117964 17.144006 
L 289.117964 125.00838 
z
" style="fill: none"/>
   </g>
   <g id="PathCollection_23"/>
   <g id="PathCollection_24">
    <defs>
     <path id="m54bdd4cbe6" d="M 387.866421 -75.684037 
L 387.866421 -77.782992 
L 387.866421 -89.767922 
L 387.866421 -101.752853 
L 387.866421 -113.737783 
L 387.866421 -125.722714 
L 376.89437 -125.722714 
L 376.857686 -125.722714 
L 376.89437 -124.012898 
L 377.218134 -113.737783 
L 378.258949 -101.752853 
L 381.195128 -89.767922 
L 386.489276 -77.782992 
z
" style="stroke: #a5db36"/>
    </defs>
    <g clip-path="url(#p464ec9d2c8)">
     <use xlink:href="#m54bdd4cbe6" x="0" y="142.86672" style="fill: #a5db36; stroke: #a5db36"/>
    </g>
   </g>
   <g id="PathCollection_25">
    <defs>
     <path id="m658a79d908" d="M 387.866421 -29.819151 
L 387.866421 -29.84327 
L 387.866421 -41.828201 
L 387.866421 -53.813131 
L 387.866421 -65.798062 
L 387.866421 -75.684037 
L 386.489276 -77.782992 
L 381.195128 -89.767922 
L 378.258949 -101.752853 
L 377.218134 -113.737783 
L 376.89437 -124.012898 
L 376.857686 -125.722714 
L 365.92232 -125.722714 
L 354.950269 -125.722714 
L 343.978218 -125.722714 
L 339.796471 -125.722714 
L 340.549105 -113.737783 
L 341.473513 -101.752853 
L 342.317765 -89.767922 
L 343.732906 -77.782992 
L 343.978218 -76.714118 
L 347.008276 -65.798062 
L 352.874303 -53.813131 
L 354.950269 -51.38151 
L 363.634914 -41.828201 
L 365.92232 -40.265556 
L 376.89437 -33.836829 
L 387.795864 -29.84327 
z
" style="stroke: #69cd5b"/>
    </defs>
    <g clip-path="url(#p464ec9d2c8)">
     <use xlink:href="#m658a79d908" x="0" y="142.86672" style="fill: #69cd5b; stroke: #69cd5b"/>
    </g>
   </g>
   <g id="PathCollection_26">
    <defs>
     <path id="m11a7c271a3" d="M 354.950269 -22.639847 
L 362.059858 -17.85834 
L 365.92232 -17.85834 
L 376.89437 -17.85834 
L 387.866421 -17.85834 
L 387.866421 -29.819151 
L 387.795864 -29.84327 
L 376.89437 -33.836829 
L 365.92232 -40.265556 
L 363.634914 -41.828201 
L 354.950269 -51.38151 
L 352.874303 -53.813131 
L 347.008276 -65.798062 
L 343.978218 -76.714118 
L 343.732906 -77.782992 
L 342.317765 -89.767922 
L 341.473513 -101.752853 
L 340.549105 -113.737783 
L 339.796471 -125.722714 
L 333.006167 -125.722714 
L 322.034116 -125.722714 
L 314.290396 -125.722714 
L 314.812726 -113.737783 
L 315.74386 -101.752853 
L 316.877393 -89.767922 
L 318.010879 -77.782992 
L 319.50322 -65.798062 
L 322.034116 -56.257048 
L 322.792432 -53.813131 
L 330.492402 -41.828201 
L 333.006167 -39.543001 
L 343.978218 -30.836882 
L 345.338486 -29.84327 
z
" style="stroke: #3bbb75"/>
    </defs>
    <g clip-path="url(#p464ec9d2c8)">
     <use xlink:href="#m11a7c271a3" x="0" y="142.86672" style="fill: #3bbb75; stroke: #3bbb75"/>
    </g>
   </g>
   <g id="PathCollection_27">
    <defs>
     <path id="m0834f0bebf" d="M 322.034116 -24.662209 
L 329.417208 -17.85834 
L 333.006167 -17.85834 
L 343.978218 -17.85834 
L 354.950269 -17.85834 
L 362.059858 -17.85834 
L 354.950269 -22.639847 
L 345.338486 -29.84327 
L 343.978218 -30.836882 
L 333.006167 -39.543001 
L 330.492402 -41.828201 
L 322.792432 -53.813131 
L 322.034116 -56.257048 
L 319.50322 -65.798062 
L 318.010879 -77.782992 
L 316.877393 -89.767922 
L 315.74386 -101.752853 
L 314.812726 -113.737783 
L 314.290396 -125.722714 
L 311.062065 -125.722714 
L 300.090015 -125.722714 
L 289.117964 -125.722714 
L 289.117964 -113.737783 
L 289.117964 -108.041638 
L 289.59691 -101.752853 
L 290.947528 -89.767922 
L 292.916375 -77.782992 
L 295.220802 -65.798062 
L 299.006703 -53.813131 
L 300.090015 -52.337763 
L 305.441688 -41.828201 
L 311.062065 -35.945241 
L 316.980015 -29.84327 
z
" style="stroke: #21a685"/>
    </defs>
    <g clip-path="url(#p464ec9d2c8)">
     <use xlink:href="#m0834f0bebf" x="0" y="142.86672" style="fill: #21a685; stroke: #21a685"/>
    </g>
   </g>
   <g id="PathCollection_28">
    <defs>
     <path id="me57d60ed56" d="M 300.090015 -20.976632 
L 303.141702 -17.85834 
L 311.062065 -17.85834 
L 322.034116 -17.85834 
L 329.417208 -17.85834 
L 322.034116 -24.662209 
L 316.980015 -29.84327 
L 311.062065 -35.945241 
L 305.441688 -41.828201 
L 300.090015 -52.337763 
L 299.006703 -53.813131 
L 295.220802 -65.798062 
L 292.916375 -77.782992 
L 290.947528 -89.767922 
L 289.59691 -101.752853 
L 289.117964 -108.041638 
L 289.117964 -101.752853 
L 289.117964 -89.767922 
L 289.117964 -77.782992 
L 289.117964 -65.798062 
L 289.117964 -53.813131 
L 289.117964 -41.828201 
L 289.117964 -29.84327 
L 289.117964 -28.622572 
z
" style="stroke: #21908d"/>
    </defs>
    <g clip-path="url(#p464ec9d2c8)">
     <use xlink:href="#me57d60ed56" x="0" y="142.86672" style="fill: #21908d; stroke: #21908d"/>
    </g>
   </g>
   <g id="PathCollection_29">
    <defs>
     <path id="m8b020d55a3" d="M 300.090015 -17.85834 
L 303.141702 -17.85834 
L 300.090015 -20.976632 
L 289.117964 -28.622572 
L 289.117964 -17.85834 
z
" style="stroke: #297a8e"/>
    </defs>
    <g clip-path="url(#p464ec9d2c8)">
     <use xlink:href="#m8b020d55a3" x="0" y="142.86672" style="fill: #297a8e; stroke: #297a8e"/>
    </g>
   </g>
   <g id="PathCollection_30"/>
   <g id="PathCollection_31"/>
   <g id="PathCollection_32"/>
   <g id="PathCollection_33"/>
   <g id="QuadContourSet_3">
    <path clip-path="url(#p464ec9d2c8)" style="fill: none; stroke: #3d4240; stroke-opacity: 0.1; stroke-width: 0.8"/>
    <path clip-path="url(#p464ec9d2c8)" style="fill: none; stroke: #3d4240; stroke-opacity: 0.1; stroke-width: 0.8"/>
    <path d="M 387.866421 67.182683 
L 386.489276 65.083728 
L 381.335802 53.417255 
M 377.197428 28.471802 
L 376.89437 18.853822 
L 376.857686 17.144006 
" clip-path="url(#p464ec9d2c8)" style="fill: none; stroke: #3d4240; stroke-opacity: 0.1; stroke-width: 0.8"/>
    <path d="M 387.866421 113.047569 
L 387.795864 113.02345 
L 376.89437 109.029891 
L 365.92232 102.601164 
L 363.634914 101.038519 
L 354.950269 91.48521 
L 352.874303 89.053589 
L 347.008276 77.068658 
L 343.978218 66.152602 
L 343.732906 65.083728 
L 342.317765 53.098798 
L 341.473513 41.113867 
L 340.549105 29.128937 
L 339.796471 17.144006 
" clip-path="url(#p464ec9d2c8)" style="fill: none; stroke: #3d4240; stroke-opacity: 0.1; stroke-width: 0.8"/>
    <path d="M 362.059858 125.00838 
L 354.950269 120.226873 
L 345.338486 113.02345 
L 343.978218 112.029838 
L 333.006167 103.323719 
L 330.492402 101.038519 
L 328.267241 97.575078 
M 319.155201 74.273729 
L 318.010879 65.083728 
L 316.877393 53.098798 
L 315.74386 41.113867 
L 314.812726 29.128937 
L 314.290396 17.144006 
" clip-path="url(#p464ec9d2c8)" style="fill: none; stroke: #3d4240; stroke-opacity: 0.1; stroke-width: 0.8"/>
    <path d="M 329.417208 125.00838 
L 322.034116 118.204511 
L 316.980015 113.02345 
L 311.062065 106.921479 
L 305.441688 101.038519 
L 300.090015 90.528957 
L 299.006703 89.053589 
L 295.220802 77.068658 
L 292.916375 65.083728 
L 290.947528 53.098798 
L 289.59691 41.113867 
L 289.117964 34.825082 
" clip-path="url(#p464ec9d2c8)" style="fill: none; stroke: #3d4240; stroke-opacity: 0.1; stroke-width: 0.8"/>
    <path d="M 303.141702 125.00838 
L 300.090015 121.890088 
L 289.117964 114.244148 
" clip-path="url(#p464ec9d2c8)" style="fill: none; stroke: #3d4240; stroke-opacity: 0.1; stroke-width: 0.8"/>
    <path clip-path="url(#p464ec9d2c8)" style="fill: none; stroke: #3d4240; stroke-opacity: 0.1; stroke-width: 0.8"/>
    <path clip-path="url(#p464ec9d2c8)" style="fill: none; stroke: #3d4240; stroke-opacity: 0.1; stroke-width: 0.8"/>
    <path clip-path="url(#p464ec9d2c8)" style="fill: none; stroke: #3d4240; stroke-opacity: 0.1; stroke-width: 0.8"/>
    <path clip-path="url(#p464ec9d2c8)" style="fill: none; stroke: #3d4240; stroke-opacity: 0.1; stroke-width: 0.8"/>
    <path clip-path="url(#p464ec9d2c8)" style="fill: none; stroke: #3d4240; stroke-opacity: 0.1; stroke-width: 0.8"/>
   </g>
   <g id="text_27">
    <g clip-path="url(#p464ec9d2c8)">
     <!-- 1.7 -->
     <g transform="translate(370.613949 43.957539) scale(0.11 -0.11)">
      <use xlink:href="#ArialMT-31"/>
      <use xlink:href="#ArialMT-2e" x="55.615234"/>
      <use xlink:href="#ArialMT-37" x="83.398438"/>
     </g>
    </g>
   </g>
   <g id="text_28">
    <g clip-path="url(#p464ec9d2c8)">
     <!-- 2.5 -->
     <g transform="translate(314.389116 89.453343) scale(0.11 -0.11)">
      <use xlink:href="#ArialMT-32"/>
      <use xlink:href="#ArialMT-2e" x="55.615234"/>
      <use xlink:href="#ArialMT-35" x="83.398438"/>
     </g>
    </g>
   </g>
   <g id="matplotlib.axis_7">
    <g id="xtick_11">
     <g id="line2d_26">
      <g>
       <use xlink:href="#m96786053d1" x="289.117964" y="125.00838" style="stroke: #000000; stroke-width: 0.8"/>
      </g>
     </g>
    </g>
    <g id="xtick_12">
     <g id="line2d_27">
      <g>
       <use xlink:href="#m96786053d1" x="313.805078" y="125.00838" style="stroke: #000000; stroke-width: 0.8"/>
      </g>
     </g>
     <g id="text_29">
      <!-- 45 -->
      <g transform="translate(307.688047 138.381974) scale(0.11 -0.11)">
       <use xlink:href="#ArialMT-34"/>
       <use xlink:href="#ArialMT-35" x="55.615234"/>
      </g>
     </g>
    </g>
    <g id="xtick_13">
     <g id="line2d_28">
      <g>
       <use xlink:href="#m96786053d1" x="338.492193" y="125.00838" style="stroke: #000000; stroke-width: 0.8"/>
      </g>
     </g>
     <g id="text_30">
      <!-- 60 -->
      <g transform="translate(332.375161 138.381974) scale(0.11 -0.11)">
       <use xlink:href="#ArialMT-36"/>
       <use xlink:href="#ArialMT-30" x="55.615234"/>
      </g>
     </g>
    </g>
    <g id="xtick_14">
     <g id="line2d_29">
      <g>
       <use xlink:href="#m96786053d1" x="363.179307" y="125.00838" style="stroke: #000000; stroke-width: 0.8"/>
      </g>
     </g>
     <g id="text_31">
      <!-- 75 -->
      <g transform="translate(357.062276 138.381974) scale(0.11 -0.11)">
       <use xlink:href="#ArialMT-37"/>
       <use xlink:href="#ArialMT-35" x="55.615234"/>
      </g>
     </g>
    </g>
    <g id="xtick_15">
     <g id="line2d_30">
      <g>
       <use xlink:href="#m96786053d1" x="387.866421" y="125.00838" style="stroke: #000000; stroke-width: 0.8"/>
      </g>
     </g>
     <g id="text_32">
      <!-- 90 -->
      <g transform="translate(381.74939 138.381974) scale(0.11 -0.11)">
       <use xlink:href="#ArialMT-39"/>
       <use xlink:href="#ArialMT-30" x="55.615234"/>
      </g>
     </g>
    </g>
    <g id="text_33">
     <!-- Yield [$\mathrm{g} \cdot \mathrm{L}^{\mathrm{-1}}$] -->
     <g transform="translate(305.327193 154.468224) scale(0.11 -0.11)">
      <use xlink:href="#ArialMT-59" transform="translate(0 0.684375)"/>
      <use xlink:href="#ArialMT-69" transform="translate(66.699219 0.684375)"/>
      <use xlink:href="#ArialMT-65" transform="translate(88.916016 0.684375)"/>
      <use xlink:href="#ArialMT-6c" transform="translate(144.53125 0.684375)"/>
      <use xlink:href="#ArialMT-64" transform="translate(166.748047 0.684375)"/>
      <use xlink:href="#ArialMT-20" transform="translate(222.363281 0.684375)"/>
      <use xlink:href="#ArialMT-5b" transform="translate(250.146484 0.684375)"/>
      <use xlink:href="#DejaVuSans-67" transform="translate(277.929688 0.684375)"/>
      <use xlink:href="#DejaVuSans-22c5" transform="translate(360.888672 0.684375)"/>
      <use xlink:href="#DejaVuSans-4c" transform="translate(412.158203 0.684375)"/>
      <use xlink:href="#DejaVuSans-2212" transform="translate(468.828125 38.965625) scale(0.7)"/>
      <use xlink:href="#DejaVuSans-31" transform="translate(527.480469 38.965625) scale(0.7)"/>
      <use xlink:href="#ArialMT-5d" transform="translate(574.750977 0.684375)"/>
     </g>
    </g>
   </g>
   <g id="matplotlib.axis_8">
    <g id="ytick_16">
     <g id="line2d_31">
      <g>
       <use xlink:href="#md1bbf4f40e" x="289.117964" y="125.00838" style="stroke: #000000; stroke-width: 0.8"/>
      </g>
     </g>
    </g>
    <g id="ytick_17">
     <g id="line2d_32">
      <g>
       <use xlink:href="#md1bbf4f40e" x="289.117964" y="98.042287" style="stroke: #000000; stroke-width: 0.8"/>
      </g>
     </g>
    </g>
    <g id="ytick_18">
     <g id="line2d_33">
      <g>
       <use xlink:href="#md1bbf4f40e" x="289.117964" y="71.076193" style="stroke: #000000; stroke-width: 0.8"/>
      </g>
     </g>
    </g>
    <g id="ytick_19">
     <g id="line2d_34">
      <g>
       <use xlink:href="#md1bbf4f40e" x="289.117964" y="44.1101" style="stroke: #000000; stroke-width: 0.8"/>
      </g>
     </g>
    </g>
    <g id="ytick_20">
     <g id="line2d_35">
      <g>
       <use xlink:href="#md1bbf4f40e" x="289.117964" y="17.144006" style="stroke: #000000; stroke-width: 0.8"/>
      </g>
     </g>
    </g>
   </g>
   <g id="patch_15">
    <path d="M 289.117964 125.00838 
L 289.117964 17.144006 
" style="fill: none; stroke: #000000; stroke-width: 0.8; stroke-linejoin: miter; stroke-linecap: square"/>
   </g>
   <g id="patch_16">
    <path d="M 387.866421 125.00838 
L 387.866421 17.144006 
" style="fill: none; stroke: #000000; stroke-width: 0.8; stroke-linejoin: miter; stroke-linecap: square"/>
   </g>
   <g id="patch_17">
    <path d="M 289.117964 125.00838 
L 387.866421 125.00838 
" style="fill: none; stroke: #000000; stroke-width: 0.8; stroke-linejoin: miter; stroke-linecap: square"/>
   </g>
   <g id="patch_18">
    <path d="M 289.117964 17.144006 
L 387.866421 17.144006 
" style="fill: none; stroke: #000000; stroke-width: 0.8; stroke-linejoin: miter; stroke-linecap: square"/>
   </g>
  </g>
  <g id="axes_6">
   <g id="matplotlib.axis_9">
    <g id="ytick_21">
     <g id="line2d_36">
      <defs>
       <path id="m9b054bb496" d="M 0 0 
L -4 0 
" style="stroke: #000000; stroke-width: 0.8"/>
      </defs>
      <g>
       <use xlink:href="#m9b054bb496" x="158.276258" y="125.00838" style="stroke: #000000; stroke-width: 0.8"/>
      </g>
     </g>
    </g>
    <g id="ytick_22">
     <g id="line2d_37">
      <g>
       <use xlink:href="#m9b054bb496" x="158.276258" y="98.042287" style="stroke: #000000; stroke-width: 0.8"/>
      </g>
     </g>
    </g>
    <g id="ytick_23">
     <g id="line2d_38">
      <g>
       <use xlink:href="#m9b054bb496" x="158.276258" y="71.076193" style="stroke: #000000; stroke-width: 0.8"/>
      </g>
     </g>
    </g>
    <g id="ytick_24">
     <g id="line2d_39">
      <g>
       <use xlink:href="#m9b054bb496" x="158.276258" y="44.1101" style="stroke: #000000; stroke-width: 0.8"/>
      </g>
     </g>
    </g>
    <g id="ytick_25">
     <g id="line2d_40">
      <g>
       <use xlink:href="#m9b054bb496" x="158.276258" y="17.144006" style="stroke: #000000; stroke-width: 0.8"/>
      </g>
     </g>
    </g>
   </g>
   <g id="patch_19">
    <path d="M 59.5278 125.00838 
L 59.5278 17.144006 
" style="fill: none; stroke: #000000; stroke-width: 0.8; stroke-linejoin: miter; stroke-linecap: square"/>
   </g>
   <g id="patch_20">
    <path d="M 158.276258 125.00838 
L 158.276258 17.144006 
" style="fill: none; stroke: #000000; stroke-width: 0.8; stroke-linejoin: miter; stroke-linecap: square"/>
   </g>
   <g id="patch_21">
    <path d="M 59.5278 125.00838 
L 158.276258 125.00838 
" style="fill: none; stroke: #000000; stroke-width: 0.8; stroke-linejoin: miter; stroke-linecap: square"/>
   </g>
   <g id="patch_22">
    <path d="M 59.5278 17.144006 
L 158.276258 17.144006 
" style="fill: none; stroke: #000000; stroke-width: 0.8; stroke-linejoin: miter; stroke-linecap: square"/>
   </g>
  </g>
  <g id="axes_7">
   <g id="matplotlib.axis_10">
    <g id="xtick_16">
     <g id="line2d_41">
      <defs>
       <path id="mc02db29bc7" d="M 0 0 
L 0 4 
" style="stroke: #000000; stroke-width: 0.8"/>
      </defs>
      <g>
       <use xlink:href="#mc02db29bc7" x="59.5278" y="17.144006" style="stroke: #000000; stroke-width: 0.8"/>
      </g>
     </g>
    </g>
    <g id="xtick_17">
     <g id="line2d_42">
      <g>
       <use xlink:href="#mc02db29bc7" x="84.214914" y="17.144006" style="stroke: #000000; stroke-width: 0.8"/>
      </g>
     </g>
    </g>
    <g id="xtick_18">
     <g id="line2d_43">
      <g>
       <use xlink:href="#mc02db29bc7" x="108.902029" y="17.144006" style="stroke: #000000; stroke-width: 0.8"/>
      </g>
     </g>
    </g>
    <g id="xtick_19">
     <g id="line2d_44">
      <g>
       <use xlink:href="#mc02db29bc7" x="133.589143" y="17.144006" style="stroke: #000000; stroke-width: 0.8"/>
      </g>
     </g>
    </g>
    <g id="xtick_20">
     <g id="line2d_45">
      <g>
       <use xlink:href="#mc02db29bc7" x="158.276258" y="17.144006" style="stroke: #000000; stroke-width: 0.8"/>
      </g>
     </g>
    </g>
   </g>
   <g id="patch_23">
    <path d="M 59.5278 125.00838 
L 59.5278 17.144006 
" style="fill: none; stroke: #000000; stroke-width: 0.8; stroke-linejoin: miter; stroke-linecap: square"/>
   </g>
   <g id="patch_24">
    <path d="M 158.276258 125.00838 
L 158.276258 17.144006 
" style="fill: none; stroke: #000000; stroke-width: 0.8; stroke-linejoin: miter; stroke-linecap: square"/>
   </g>
   <g id="patch_25">
    <path d="M 59.5278 125.00838 
L 158.276258 125.00838 
" style="fill: none; stroke: #000000; stroke-width: 0.8; stroke-linejoin: miter; stroke-linecap: square"/>
   </g>
   <g id="patch_26">
    <path d="M 59.5278 17.144006 
L 158.276258 17.144006 
" style="fill: none; stroke: #000000; stroke-width: 0.8; stroke-linejoin: miter; stroke-linecap: square"/>
   </g>
  </g>
  <g id="axes_8">
   <g id="matplotlib.axis_11">
    <g id="ytick_26">
     <g id="line2d_46">
      <g>
       <use xlink:href="#m9b054bb496" x="273.071339" y="125.00838" style="stroke: #000000; stroke-width: 0.8"/>
      </g>
     </g>
    </g>
    <g id="ytick_27">
     <g id="line2d_47">
      <g>
       <use xlink:href="#m9b054bb496" x="273.071339" y="98.042287" style="stroke: #000000; stroke-width: 0.8"/>
      </g>
     </g>
    </g>
    <g id="ytick_28">
     <g id="line2d_48">
      <g>
       <use xlink:href="#m9b054bb496" x="273.071339" y="71.076193" style="stroke: #000000; stroke-width: 0.8"/>
      </g>
     </g>
    </g>
    <g id="ytick_29">
     <g id="line2d_49">
      <g>
       <use xlink:href="#m9b054bb496" x="273.071339" y="44.1101" style="stroke: #000000; stroke-width: 0.8"/>
      </g>
     </g>
    </g>
    <g id="ytick_30">
     <g id="line2d_50">
      <g>
       <use xlink:href="#m9b054bb496" x="273.071339" y="17.144006" style="stroke: #000000; stroke-width: 0.8"/>
      </g>
     </g>
    </g>
   </g>
   <g id="patch_27">
    <path d="M 174.322882 125.00838 
L 174.322882 17.144006 
" style="fill: none; stroke: #000000; stroke-width: 0.8; stroke-linejoin: miter; stroke-linecap: square"/>
   </g>
   <g id="patch_28">
    <path d="M 273.071339 125.00838 
L 273.071339 17.144006 
" style="fill: none; stroke: #000000; stroke-width: 0.8; stroke-linejoin: miter; stroke-linecap: square"/>
   </g>
   <g id="patch_29">
    <path d="M 174.322882 125.00838 
L 273.071339 125.00838 
" style="fill: none; stroke: #000000; stroke-width: 0.8; stroke-linejoin: miter; stroke-linecap: square"/>
   </g>
   <g id="patch_30">
    <path d="M 174.322882 17.144006 
L 273.071339 17.144006 
" style="fill: none; stroke: #000000; stroke-width: 0.8; stroke-linejoin: miter; stroke-linecap: square"/>
   </g>
  </g>
  <g id="axes_9">
   <g id="matplotlib.axis_12">
    <g id="xtick_21">
     <g id="line2d_51">
      <g>
       <use xlink:href="#mc02db29bc7" x="174.322882" y="17.144006" style="stroke: #000000; stroke-width: 0.8"/>
      </g>
     </g>
    </g>
    <g id="xtick_22">
     <g id="line2d_52">
      <g>
       <use xlink:href="#mc02db29bc7" x="199.009996" y="17.144006" style="stroke: #000000; stroke-width: 0.8"/>
      </g>
     </g>
    </g>
    <g id="xtick_23">
     <g id="line2d_53">
      <g>
       <use xlink:href="#mc02db29bc7" x="223.697111" y="17.144006" style="stroke: #000000; stroke-width: 0.8"/>
      </g>
     </g>
    </g>
    <g id="xtick_24">
     <g id="line2d_54">
      <g>
       <use xlink:href="#mc02db29bc7" x="248.384225" y="17.144006" style="stroke: #000000; stroke-width: 0.8"/>
      </g>
     </g>
    </g>
    <g id="xtick_25">
     <g id="line2d_55">
      <g>
       <use xlink:href="#mc02db29bc7" x="273.071339" y="17.144006" style="stroke: #000000; stroke-width: 0.8"/>
      </g>
     </g>
    </g>
   </g>
   <g id="patch_31">
    <path d="M 174.322882 125.00838 
L 174.322882 17.144006 
" style="fill: none; stroke: #000000; stroke-width: 0.8; stroke-linejoin: miter; stroke-linecap: square"/>
   </g>
   <g id="patch_32">
    <path d="M 273.071339 125.00838 
L 273.071339 17.144006 
" style="fill: none; stroke: #000000; stroke-width: 0.8; stroke-linejoin: miter; stroke-linecap: square"/>
   </g>
   <g id="patch_33">
    <path d="M 174.322882 125.00838 
L 273.071339 125.00838 
" style="fill: none; stroke: #000000; stroke-width: 0.8; stroke-linejoin: miter; stroke-linecap: square"/>
   </g>
   <g id="patch_34">
    <path d="M 174.322882 17.144006 
L 273.071339 17.144006 
" style="fill: none; stroke: #000000; stroke-width: 0.8; stroke-linejoin: miter; stroke-linecap: square"/>
   </g>
  </g>
  <g id="axes_10">
   <g id="matplotlib.axis_13">
    <g id="ytick_31">
     <g id="line2d_56">
      <g>
       <use xlink:href="#m9b054bb496" x="387.866421" y="125.00838" style="stroke: #000000; stroke-width: 0.8"/>
      </g>
     </g>
    </g>
    <g id="ytick_32">
     <g id="line2d_57">
      <g>
       <use xlink:href="#m9b054bb496" x="387.866421" y="98.042287" style="stroke: #000000; stroke-width: 0.8"/>
      </g>
     </g>
    </g>
    <g id="ytick_33">
     <g id="line2d_58">
      <g>
       <use xlink:href="#m9b054bb496" x="387.866421" y="71.076193" style="stroke: #000000; stroke-width: 0.8"/>
      </g>
     </g>
    </g>
    <g id="ytick_34">
     <g id="line2d_59">
      <g>
       <use xlink:href="#m9b054bb496" x="387.866421" y="44.1101" style="stroke: #000000; stroke-width: 0.8"/>
      </g>
     </g>
    </g>
    <g id="ytick_35">
     <g id="line2d_60">
      <g>
       <use xlink:href="#m9b054bb496" x="387.866421" y="17.144006" style="stroke: #000000; stroke-width: 0.8"/>
      </g>
     </g>
    </g>
   </g>
   <g id="patch_35">
    <path d="M 289.117964 125.00838 
L 289.117964 17.144006 
" style="fill: none; stroke: #000000; stroke-width: 0.8; stroke-linejoin: miter; stroke-linecap: square"/>
   </g>
   <g id="patch_36">
    <path d="M 387.866421 125.00838 
L 387.866421 17.144006 
" style="fill: none; stroke: #000000; stroke-width: 0.8; stroke-linejoin: miter; stroke-linecap: square"/>
   </g>
   <g id="patch_37">
    <path d="M 289.117964 125.00838 
L 387.866421 125.00838 
" style="fill: none; stroke: #000000; stroke-width: 0.8; stroke-linejoin: miter; stroke-linecap: square"/>
   </g>
   <g id="patch_38">
    <path d="M 289.117964 17.144006 
L 387.866421 17.144006 
" style="fill: none; stroke: #000000; stroke-width: 0.8; stroke-linejoin: miter; stroke-linecap: square"/>
   </g>
  </g>
  <g id="axes_11">
   <g id="matplotlib.axis_14">
    <g id="xtick_26">
     <g id="line2d_61">
      <g>
       <use xlink:href="#mc02db29bc7" x="289.117964" y="17.144006" style="stroke: #000000; stroke-width: 0.8"/>
      </g>
     </g>
    </g>
    <g id="xtick_27">
     <g id="line2d_62">
      <g>
       <use xlink:href="#mc02db29bc7" x="313.805078" y="17.144006" style="stroke: #000000; stroke-width: 0.8"/>
      </g>
     </g>
    </g>
    <g id="xtick_28">
     <g id="line2d_63">
      <g>
       <use xlink:href="#mc02db29bc7" x="338.492193" y="17.144006" style="stroke: #000000; stroke-width: 0.8"/>
      </g>
     </g>
    </g>
    <g id="xtick_29">
     <g id="line2d_64">
      <g>
       <use xlink:href="#mc02db29bc7" x="363.179307" y="17.144006" style="stroke: #000000; stroke-width: 0.8"/>
      </g>
     </g>
    </g>
    <g id="xtick_30">
     <g id="line2d_65">
      <g>
       <use xlink:href="#mc02db29bc7" x="387.866421" y="17.144006" style="stroke: #000000; stroke-width: 0.8"/>
      </g>
     </g>
    </g>
   </g>
   <g id="patch_39">
    <path d="M 289.117964 125.00838 
L 289.117964 17.144006 
" style="fill: none; stroke: #000000; stroke-width: 0.8; stroke-linejoin: miter; stroke-linecap: square"/>
   </g>
   <g id="patch_40">
    <path d="M 387.866421 125.00838 
L 387.866421 17.144006 
" style="fill: none; stroke: #000000; stroke-width: 0.8; stroke-linejoin: miter; stroke-linecap: square"/>
   </g>
   <g id="patch_41">
    <path d="M 289.117964 125.00838 
L 387.866421 125.00838 
" style="fill: none; stroke: #000000; stroke-width: 0.8; stroke-linejoin: miter; stroke-linecap: square"/>
   </g>
   <g id="patch_42">
    <path d="M 289.117964 17.144006 
L 387.866421 17.144006 
" style="fill: none; stroke: #000000; stroke-width: 0.8; stroke-linejoin: miter; stroke-linecap: square"/>
   </g>
  </g>
 </g>
 <defs>
  <clipPath id="p6d5296bca6">
   <rect x="416.256603" y="17.144006" width="5.393219" height="107.864374"/>
  </clipPath>
  <clipPath id="p7285d65d7a">
   <rect x="59.5278" y="17.144006" width="98.748458" height="107.864374"/>
  </clipPath>
  <clipPath id="pcf9b783ea5">
   <rect x="174.322882" y="17.144006" width="98.748458" height="107.864374"/>
  </clipPath>
  <clipPath id="p464ec9d2c8">
   <rect x="289.117964" y="17.144006" width="98.748458" height="107.864374"/>
  </clipPath>
 </defs>
</svg>
