<?xml version="1.0" encoding="UTF-8" standalone="no"?>
<!-- Created with Inkscape (http://www.inkscape.org/) -->

<svg
   width="47mm"
   height="47mm"
   viewBox="0 0 47 47"
   version="1.1"
   id="svg1"
   xmlns="http://www.w3.org/2000/svg"
   xmlns:svg="http://www.w3.org/2000/svg">
  <defs
     id="defs1">
    <clipPath
       clipPathUnits="userSpaceOnUse"
       id="clipPath9">
      <rect
         style="display:inline;fill:none;fill-opacity:1;stroke:none;stroke-width:1.69574;stroke-opacity:1"
         id="rect9"
         width="47"
         height="47"
         x="30.612246"
         y="78.845833" />
    </clipPath>
  </defs>
  <g
     id="layer1"
     transform="translate(-29.897917,-78.316666)"
     style="display:none">
    <rect
       style="display:inline;fill:#000000;fill-opacity:1;stroke:none;stroke-width:1.73182;stroke-opacity:1"
       id="rect1"
       width="48"
       height="48"
       x="29.897917"
       y="78.316666" />
    <g
       id="g1">
      <path
         d="m 68.617508,117.35392 c 6.577218,0 11.239547,-5.07858 11.239547,-11.36436 0,-6.285786 -4.662329,-11.405992 -11.239547,-11.405992 -3.122095,0 -5.744656,1.207203 -7.243263,2.7058 V 87.715 l -4.45419,0.749298 v 28.265212 h 4.537447 l -0.04163,-2.20627 c 1.41535,1.45697 3.704885,2.83068 7.201633,2.83068 z m -0.333023,-3.99626 c -3.996283,0 -7.160006,-2.7058 -7.160006,-7.40973 0,-4.6623 3.163723,-7.368104 7.160006,-7.368104 4.037912,0 7.201637,3.288594 7.201637,7.368104 0,4.07952 -3.163725,7.40973 -7.201637,7.40973 z"
         id="text5-2"
         style="font-size:157.333px;font-family:Lack;-inkscape-font-specification:'Lack, Normal';fill:#ffffff;stroke-width:1.5875"
         aria-label="b" />
      <path
         d="m 46.512489,127.05665 c 6.285783,0 8.616931,-2.20627 8.616931,-2.20627 v -4.03789 c -0.04163,0 -3.246958,2.2479 -8.533675,2.2479 -4.870439,0 -7.20159,-2.9972 -7.701121,-6.32741 h 17.192233 v -2.08139 c 0,-5.20346 -3.621608,-10.36529 -9.865762,-10.36529 -6.66043,0 -11.614123,4.91207 -11.614123,11.36436 0,6.20253 4.329279,11.40599 11.905517,11.40599 z m -7.409728,-13.8204 c 0.249767,-1.6651 1.831618,-5.28671 6.535547,-5.28671 4.703929,0 5.78625,3.62161 5.95276,5.28671 z"
         id="text5-5"
         style="font-size:157.333px;font-family:Lack;-inkscape-font-specification:'Lack, Normal';fill:#ffffff;stroke-width:1.5875"
         aria-label="e" />
      <path
         d="m 35.870712,103.46178 6.366946,-15.578693 6.592723,15.578693 9.031132,-25.196845 h -5.10259 L 48.469138,91.766473 42.282815,77.316666 36.593204,91.721317 31.94217,78.264935 h -5.102587 z"
         id="text5-6"
         style="font-size:170.667px;font-family:Lack;-inkscape-font-specification:'Lack, Normal';fill:#ffffff;stroke-width:1.5875"
         aria-label="w" />
    </g>
  </g>
  <g
     id="g8"
     transform="translate(-29.897917,-78.316666)"
     style="display:inline">
    <g
       id="g9"
       transform="translate(-0.71432873,-0.52916663)"
       clip-path="url(#clipPath9)">
      <path
         d="m 68.617508,117.35392 c 6.577218,0 11.239547,-5.07858 11.239547,-11.36436 0,-6.285787 -4.662329,-11.405992 -11.239547,-11.405992 -3.122095,0 -5.744656,1.207203 -7.243263,2.7058 V 87.715 l -4.45419,0.749298 v 28.265212 h 4.537447 l -0.04163,-2.20627 c 1.41535,1.45697 3.704885,2.83068 7.201633,2.83068 z m -0.333023,-3.99626 c -3.996283,0 -7.160006,-2.7058 -7.160006,-7.40973 0,-4.6623 3.163723,-7.368104 7.160006,-7.368104 4.037912,0 7.201637,3.288594 7.201637,7.368104 0,4.07952 -3.163725,7.40973 -7.201637,7.40973 z"
         id="path5"
         style="font-size:157.333px;font-family:Lack;-inkscape-font-specification:'Lack, Normal';display:inline;fill:#ffffff;stroke:#000000;stroke-width:1.5875;stroke-linejoin:miter;stroke-opacity:1"
         aria-label="b" />
      <path
         d="m 46.512489,127.05665 c 6.285783,0 8.616931,-2.20627 8.616931,-2.20627 v -4.03789 c -0.04163,0 -3.246958,2.2479 -8.533675,2.2479 -4.870439,0 -7.20159,-2.9972 -7.701121,-6.32741 h 17.192233 v -2.08139 c 0,-5.20346 -3.621608,-10.36529 -9.865762,-10.36529 -6.66043,0 -11.614123,4.91207 -11.614123,11.36436 0,6.20253 4.329279,11.40599 11.905517,11.40599 z m -7.409728,-13.8204 c 0.249767,-1.6651 1.831618,-5.28671 6.535547,-5.28671 4.703929,0 5.78625,3.62161 5.95276,5.28671 z"
         id="path6"
         style="font-size:157.333px;font-family:Lack;-inkscape-font-specification:'Lack, Normal';fill:#ffffff;stroke:#000000;stroke-width:1.5875;stroke-linejoin:miter;stroke-opacity:1"
         aria-label="e" />
      <path
         d="m 35.870712,102.93261 6.366946,-15.57869 6.592723,15.57869 9.031132,-25.196842 h -5.10259 L 48.469138,91.237306 42.282815,76.787499 36.593204,91.19215 31.94217,77.735768 h -5.102587 z"
         id="path7"
         style="font-size:170.667px;font-family:Lack;-inkscape-font-specification:'Lack, Normal';fill:#ffffff;stroke:#000000;stroke-width:1.5875;stroke-linejoin:miter;stroke-opacity:1"
         aria-label="w" />
    </g>
  </g>
  <g
     id="g5"
     transform="translate(-29.897917,-78.316666)"
     style="display:none">
    <path
       id="rect2"
       style="display:none;fill:#000000;fill-opacity:1;stroke:none;stroke-width:1.73182;stroke-opacity:1"
       d="m 31.960323,78.316666 4.632793,13.404867 5.294767,-13.404867 z m 10.750249,0 5.758821,13.449825 4.273124,-13.449825 z m 15.132409,0 L 48.830611,103.4619 42.237732,87.883007 35.870679,103.4619 29.897917,86.797802 v 39.519038 h 12.020455 c -4.704842,-1.64659 -7.311182,-5.85468 -7.311182,-10.66602 0,-6.45228 4.953338,-11.36468 11.613762,-11.36468 6.244147,0 9.866064,5.1618 9.866064,10.36526 v 2.08153 H 38.894784 c 0.49953,3.3302 2.830388,6.32726 7.700822,6.32726 5.286712,0 8.492216,-2.24793 8.533846,-2.24793 v 4.038 c 0,0 -0.879098,0.82538 -2.996716,1.46658 H 77.898088 V 112.5492 c -1.962419,2.90766 -5.26285,4.80488 -9.280571,4.80488 -3.496736,0 -5.786283,-1.37387 -7.201627,-2.83084 l 0.04186,2.20607 H 56.92004 V 88.464367 l 4.453992,-0.749308 v 9.574092 c 1.498601,-1.498591 4.121402,-2.705778 7.243485,-2.705778 4.017616,0 7.318133,1.91265 9.280571,4.832264 V 78.316666 Z m 10.44174,20.263363 c -3.996271,0 -7.160286,2.705751 -7.160286,7.368021 0,4.70393 3.164015,7.40937 7.160286,7.40937 4.0379,0 7.201628,-3.32985 7.201628,-7.40937 0,-4.07948 -3.163728,-7.368021 -7.201628,-7.368021 z m -22.646163,9.369451 c -4.703924,0 -6.286268,3.62192 -6.536035,5.28702 h 12.488644 c -0.16651,-1.6651 -1.248684,-5.28702 -5.952609,-5.28702 z" />
  </g>
</svg>
